<mxfile host="app.diagrams.net" modified="2023-09-23T05:18:35.299Z" agent="Mozilla/5.0 (Windows NT 10.0; Win64; x64) AppleWebKit/537.36 (KHTML, like Gecko) Chrome/116.0.0.0 Safari/537.36" etag="59mnTrheMRmQrMDwqtTQ" version="21.8.0" type="github">
  <diagram name="Page-1" id="UtsFhi1LAzL9Dt9o1_Q7">
    <mxGraphModel dx="3172" dy="971" grid="1" gridSize="10" guides="1" tooltips="1" connect="1" arrows="1" fold="1" page="1" pageScale="1" pageWidth="827" pageHeight="1169" math="0" shadow="0">
      <root>
        <mxCell id="0" />
        <mxCell id="1" parent="0" />
        <mxCell id="umbwLptrerriWo3OxnRR-1" value="User" style="shape=umlActor;verticalLabelPosition=bottom;verticalAlign=top;html=1;outlineConnect=0;" parent="1" vertex="1">
          <mxGeometry x="-540" y="420" width="30" height="60" as="geometry" />
        </mxCell>
        <mxCell id="umbwLptrerriWo3OxnRR-4" value="Lawyer" style="shape=umlActor;verticalLabelPosition=bottom;verticalAlign=top;html=1;outlineConnect=0;" parent="1" vertex="1">
          <mxGeometry x="935" y="620" width="30" height="60" as="geometry" />
        </mxCell>
        <mxCell id="umbwLptrerriWo3OxnRR-15" style="edgeStyle=orthogonalEdgeStyle;rounded=0;orthogonalLoop=1;jettySize=auto;html=1;entryX=1;entryY=0.5;entryDx=0;entryDy=0;" parent="1" source="umbwLptrerriWo3OxnRR-5" target="umbwLptrerriWo3OxnRR-10" edge="1">
          <mxGeometry relative="1" as="geometry" />
        </mxCell>
        <mxCell id="umbwLptrerriWo3OxnRR-5" value="Admin" style="shape=umlActor;verticalLabelPosition=bottom;verticalAlign=top;html=1;outlineConnect=0;" parent="1" vertex="1">
          <mxGeometry x="930" y="72.5" width="40" height="70" as="geometry" />
        </mxCell>
        <mxCell id="umbwLptrerriWo3OxnRR-10" value="&lt;font style=&quot;font-size: 14px;&quot;&gt;Verify Password&lt;/font&gt;" style="ellipse;whiteSpace=wrap;html=1;" parent="1" vertex="1">
          <mxGeometry x="470" y="75" width="155" height="65" as="geometry" />
        </mxCell>
        <mxCell id="umbwLptrerriWo3OxnRR-11" value="&lt;font style=&quot;font-size: 14px;&quot;&gt;Display Login Error&lt;/font&gt;" style="ellipse;whiteSpace=wrap;html=1;" parent="1" vertex="1">
          <mxGeometry x="480" y="170" width="150" height="60" as="geometry" />
        </mxCell>
        <mxCell id="umbwLptrerriWo3OxnRR-16" value="&lt;font style=&quot;font-size: 14px;&quot;&gt;Sign Up / Login&lt;/font&gt;" style="ellipse;whiteSpace=wrap;html=1;" parent="1" vertex="1">
          <mxGeometry x="-160" y="110" width="140" height="70" as="geometry" />
        </mxCell>
        <mxCell id="umbwLptrerriWo3OxnRR-30" value="" style="endArrow=none;dashed=1;html=1;rounded=0;exitX=1;exitY=0.5;exitDx=0;exitDy=0;entryX=0;entryY=0.5;entryDx=0;entryDy=0;" parent="1" source="umbwLptrerriWo3OxnRR-16" target="umbwLptrerriWo3OxnRR-10" edge="1">
          <mxGeometry width="50" height="50" relative="1" as="geometry">
            <mxPoint x="192" y="165" as="sourcePoint" />
            <mxPoint x="472" y="105" as="targetPoint" />
          </mxGeometry>
        </mxCell>
        <mxCell id="umbwLptrerriWo3OxnRR-33" value="&lt;font style=&quot;font-size: 14px;&quot;&gt;&amp;lt;&amp;lt;Include &amp;gt;&amp;gt;&lt;/font&gt;" style="edgeLabel;html=1;align=center;verticalAlign=middle;resizable=0;points=[];" parent="umbwLptrerriWo3OxnRR-30" vertex="1" connectable="0">
          <mxGeometry x="-0.0572" y="1" relative="1" as="geometry">
            <mxPoint as="offset" />
          </mxGeometry>
        </mxCell>
        <mxCell id="umbwLptrerriWo3OxnRR-34" value="" style="endArrow=none;dashed=1;html=1;rounded=0;exitX=1;exitY=0.5;exitDx=0;exitDy=0;entryX=0;entryY=0.5;entryDx=0;entryDy=0;" parent="1" source="umbwLptrerriWo3OxnRR-16" target="umbwLptrerriWo3OxnRR-11" edge="1">
          <mxGeometry width="50" height="50" relative="1" as="geometry">
            <mxPoint x="180" y="165" as="sourcePoint" />
            <mxPoint x="490" y="115" as="targetPoint" />
            <Array as="points">
              <mxPoint x="220" y="170" />
            </Array>
          </mxGeometry>
        </mxCell>
        <mxCell id="umbwLptrerriWo3OxnRR-35" value="&lt;font style=&quot;font-size: 14px;&quot;&gt;&amp;lt;&amp;lt;Exclude&amp;gt;&amp;gt;&lt;/font&gt;" style="edgeLabel;html=1;align=center;verticalAlign=middle;resizable=0;points=[];" parent="umbwLptrerriWo3OxnRR-34" vertex="1" connectable="0">
          <mxGeometry x="-0.0572" y="1" relative="1" as="geometry">
            <mxPoint as="offset" />
          </mxGeometry>
        </mxCell>
        <mxCell id="umbwLptrerriWo3OxnRR-36" value="" style="html=1;labelBackgroundColor=#ffffff;startArrow=none;startFill=0;startSize=6;endArrow=classic;endFill=1;endSize=6;jettySize=auto;orthogonalLoop=1;strokeWidth=1;dashed=1;fontSize=14;rounded=0;entryX=0;entryY=0.5;entryDx=0;entryDy=0;exitX=0.5;exitY=0;exitDx=0;exitDy=0;exitPerimeter=0;" parent="1" source="umbwLptrerriWo3OxnRR-1" target="umbwLptrerriWo3OxnRR-16" edge="1">
          <mxGeometry width="60" height="60" relative="1" as="geometry">
            <mxPoint x="30" y="250" as="sourcePoint" />
            <mxPoint x="80" y="200" as="targetPoint" />
          </mxGeometry>
        </mxCell>
        <mxCell id="umbwLptrerriWo3OxnRR-43" value="&lt;font style=&quot;font-size: 18px;&quot;&gt;Login&lt;/font&gt;" style="rounded=0;whiteSpace=wrap;html=1;" parent="1" vertex="1">
          <mxGeometry x="180" y="410" width="160" height="60" as="geometry" />
        </mxCell>
        <mxCell id="umbwLptrerriWo3OxnRR-49" value="" style="html=1;labelBackgroundColor=#ffffff;startArrow=none;startFill=0;startSize=6;endArrow=classic;endFill=1;endSize=6;jettySize=auto;orthogonalLoop=1;strokeWidth=1;dashed=1;fontSize=14;rounded=0;exitX=1;exitY=0.3333333333333333;exitDx=0;exitDy=0;exitPerimeter=0;entryX=0;entryY=0.5;entryDx=0;entryDy=0;" parent="1" source="umbwLptrerriWo3OxnRR-1" target="umbwLptrerriWo3OxnRR-43" edge="1">
          <mxGeometry width="60" height="60" relative="1" as="geometry">
            <mxPoint x="-200" y="460" as="sourcePoint" />
            <mxPoint x="310" y="420" as="targetPoint" />
          </mxGeometry>
        </mxCell>
        <mxCell id="6DFZFS7HIfwsKLZCXP9J-2" value="" style="shape=image;verticalLabelPosition=bottom;labelBackgroundColor=default;verticalAlign=top;aspect=fixed;imageAspect=0;image=data:image/png,iVBORw0KGgoAAAANSUhEUgAAA8sAAAIGCAYAAABj8B1xAAAAAXNSR0IArs4c6QAAAARnQU1BAACxjwv8YQUAAAAJcEhZcwAAEnQAABJ0Ad5mH3gAAIleSURBVHhe7d0JnBTF+f/xh0PkUBFBBVEEPDg8QARFQSNoxDsCCh54RaP8vTEq5mcwKjFqJF4JKEbjhVFQUIwHeOABCCKnCnIJiIAgIOABCgL//RZV2LSzuzO7s7Mzu5/369W709U9Pd3VNdP9dFVXV9icxwAAAAAAwFYV/X8AAAAAAOARLAMAAAAAEEOwDAAAAABADMEyAAAAAAAxBMsAAAAAAMQQLAMAAAAAEEOwDAAAAABADMEyAAAAAAAxBMsAAAAAAMQQLAMAAAAAEEOwDAAAAABADMEyAAAAAAAxBMsAAAAAAMQQLAMAAAAAEEOwDAAAAABADMEyAAAAAAAxBMsAAAAAAMQQLAMAAAAAEEOwDAAAAABADMEyAAAAAAAxBMsAAAAAAMQQLAMAAAAAEEOwDAAAAABADMEyAAAAAAAxBMsAAAAAAMQQLAMAAAAAEEOwDAAAAABADMEyAAAAAAAxBMsAAAAAAMQQLAMAAAAAEEOwDAAAAABADMEyAAAAAAAxBMsAAAAAAMQQLAMAAAAAEEOwDAAAAABADMEyAAAAAAAxBMsAAAAAAMQQLAMAAAAAEEOwDAAAAABADMEyAAAAAAAxBMsAAAAAAMQQLAMAAAAAEEOwDAAAAABADMEyAAAAAAAxBMsAAAAAAMQQLAMAAAAAEEOwDAAAAABADMEyAAAAAAAxBMsAAAAAAMQQLAMAAAAAEEOwDAAAAABADMEyAAAAAAAxBMsAAAAAAMQQLAMAAAAAEEOwDAAAAABADMEyAAAAAAAxBMsAAAAAAMRU2JzHv84JX331lb399ij7+ONP7Mcff7QKFSpYzZo17dBDW1mnTsdb1apV/ZxAdlu3bp2NHPmGTZ48xdasWW36JlarVs0OOuhAO+64Y61u3bp+TqTbuHHj7YMPxtmiRYvs559/tu2228723ntvO/ro9nbIIYf4uZALNm7caK+/PtImTZpk33zzTd73aLNtv/32dsABza1jxw7WoEEDPycAAEBqciZYnjdvvv3zn/+yKlWq2lFHHZsXULS0ihUruWk//PC9TZ060UaPfjsvwNjdbrrpRnfyC2Sjn376ye6++x5btuzrvODsOGvZsrVVr17DTdOJ/6efTrX3338rL4hbb1dffaU1bNjQTUPxDRnygo0aNcoOPPAQO+ywdlavXn0/xWzhwgX24YdjbPbsGXbKKSfnDSf5KchWf/97P5s//wtr376DHXJIG9txx538FLPp0z92x4Tvv19jPXteas2aNfNTAAAAkpMTwbJOcN9/f7Rddlkv23nnWj41sZkzp9vQoYPs0kv/YK1aUUOE7PLRRxPtscf+Y2eeeb7tv3/BJ++rVn1jAwfeZx06HGNnnNHFp6KoevX6ozVpcpCdfHJnn5K/F14YZEuXLra77/6bT0E2+eyzz+yBB/5pp53WzQ46qODf+XXr1tqAAf2sZcuWduGF5/lUAACAwmV9sDxo0H9t/vyFeSc5/8+nJOfOO/9sv//9Rda6dSufApQuBcqPP/6U/elPfX1Kch5/vL/tt98+dvbZ3X0KUnXllVdb585n2/77N/cphZsyZYK9884Iu+++f/gUZIOZM2fZ/fc/aP/3f3e423CSNXjwk7bTTtXt0ksv8SkAAAAFy+oOvqZMmWqTJ09NOVCWP/3pr/boo4/ahg0bfApQetT0WjXKqQbKctFFV9iHH35k06Z97FOQij//+RY78cTOKQXKcsghh9lhhx1l/frd61OQDRQo6/c9lUBZune/wBYuXGzvvz/GpwAAABQsq4PlRx99zHr1utmPpe6MM3q4e0OB0nbXXX+3bt0u8GOpu+66m+2RR/7tx5Csjz76yKpUqWYHH1y0Fia6F/arr5bZ559/7lNQmhQon3ji6VaxYtEOXZdddq09++yzfgwAAKBgWRssjx8/3vbZp6kfK5omTQ6wJUu+crV6QGlZu3atff31cttvv6KX5woVKlrjxvu74A/J++9/n7Nzzy1es9tzzvm9Pf74k34MpUlNsFu1OsyPFY1aDLzxxpt+DAAAIH9ZGyy/+urrdvzxp/ixojv66GNtxIg3/BiQeSp/xxxzvB8ruuOOO9l9L5CcTZs22fr1P1uVKlV8StHstltdW7FipR9DaXnnnXetTZsj/FjRHX/8qe6RbQAAAIXJ2mB5xYoVVrPmzn6s6Fq0aGOTJ0/2Y0Dmqfzp8VDFtcsutd3jppCcjz/+2Jo1O9CPFc+eezawhQsX+jGUBj2P/OCDi/89qlSpkn3//Q9+DAAAIH9ZGyynq4/uHXbYwVavXu3HgMz79ttvrWrVan6seHLksehZYfHiJVa37i/PUS6O3Xffw5YuXerHUBq++uqrvP1Zz48VT6VKlf0rAACA/GVtsJxiR6cFIsBAaaL8lQ41wy5qR1BxWs7GjRv9GEoD3yMAAJBpWVyznJ4TI53gVquWnlo9oCiqVq3qX6UDAUOy6tSpY998s8KPFc8336x0y0PpqVWrlq1Zk55WQps2ceEDAAAULmuD5Ro1aqQlYP7kk6l20EHpuW8RKIoDDjjAlcPi+vnnn91tBUhO8+bNbObMT/1Y8cyfP8f2228/P4bScPDBB9n06dP8WPFUqbKdfwUAAJC/rA2WjznmGHvnnZF+rOhGj37bjj22ox8DMu+44zq6clhc7777hnXsSFlOVs2aNW3duuJ35KTWKQRXpa9jxw5536NRfqzoJkwYY23bHu7HAAAA8pe1wfKpp55sH3zwnh8rmtWrV9mGDT9avXrp6RQGKIo999wzL2j73r777lufUjQffjjaTjrpBD+GZHTq1MlefXWYHyuaIUOesjPPPMOPobSoVUWNGtVs8eJFPqVo3nzzNTv77LP8GAAAQP6yNliWE088wZ5/fpAfS93AgffZ1Vdf6ceA0nPFFZfbgAH/8GOpGzz4ybxA+SQ/hmSddtopNn36VFu1qmjPSf7ii3m2dOkia9fuSJ+C0vTHP/ayJ598yI+lThdOtC8rpLMHSQAACvDll1+6x4h+8sknPFkjB1XYnOVdjN52W19r3LiZHXPMb31Kcp544mHbf//G1r37mT4FKF3PPjvY5s9faOedd6lPSc677460BQvmWJ8+N/sUpEIHpltv7Ws33XR7So8MUsuU/v3vsfvu60cngVnk1Vdfsw8+mGA9e/byKcn58MOxNmHC+/b3v9/lUwAAKL6ffvrJPv30U5sxY4bNnj3b/dfjDpcvX2Hff/+dn2tb6rRyt912c61fDzroIGvatKk1b97c/Ud2yfpgWW677XbbaafadsYZPXxKwe6//292yCEtrEePc3wKkB2efPLpvB/UGXb11Tf5lIKpCfAPP6yxW275s09BUcyaNScv6L3Pune/0Pbdt4lPzd/HH0+2V14Zan/5Sx+rW3d3n4psMXToi/bOO+/Zddf92bbbrvD7yf/3v+ftiy8+t7vvvtOnAABQdHPnzs07p3vSRo0aZfPmzfOpWzRvfpDtvHMtq1atulWvrqGG1aixg+uodd26tXnndT+4PlXWrl1rX3+9zObPn+vfuUWLFi3s5JNPtrPPPpsncWSBnAiW5aWXhtvrr4+0du2OsQ4dOvnUX3z77Rp7881XbfbsGXbxxb+3Qw89xE8BssvEiZPsP/953Jo0OdB++9uTbccdd/JTttBXctSokTZ+/Ht20kkn2mmnneqnoDg2bNhgt956u/300895+drZ9tvv10Hz9Okfu6a69ertbv/3f8ld0EDp0JX7AQMetr333seOP/5U22WX2n7KL95//23Xud4xx/zGzjqrm08FACB1Oo/43//+Z0899ZR9+OGHLm377avagQe2sEMOaW0tWx6aF+i2cmmp0GMRJ0/+yKZM+cimTp2YF8vMco84rFy5srsF7/zzz8+Lf9r5uZFpORMsBy+//D9799333NWYb75ZlZey2Z0k1amzi5144oncW4icMWbMB/baa6+5cqzn+Oo+SjXL0RXIjh2PsVNOOdnPiXRatGiRDRv2ks2aNSvvwPezO0jVqrVL3kGpknvMXNeuXbiSm0M++miivfLKq/b111/b6tWr804wNrnvkZrOt2/fPm9/dvZzAgBQNP/+97+tX79+9u23WzprVYDcpctZ9tvfnphycFwYnRP+739DbejQZ23p0q9c2j777GN33303QXMpyLlgOeqFF16wvffe29q0aeNTgNw0YcIEF8R16dLFpyAT1q9fb3379nUDcp/uGZs6dar16JHcLTsAABRE52bXXnutjR071o137Xq2det2rjVqtK8bL2kTJnxgzz//jL333pZHkF588cX25z//2apWTW+AjvxldW/YAAAAAJBpuif5mGOOcYFyy5at7cUX37Tevf+SsUBZDjvsSLvnnv720ENPWr16e9hjjz1mRx99tH300Ud+DpQ0gmUAAAAA8AYNGmQ33XSTVaxYyf7857/aI48Msvr19/JTM+/QQw+3IUNes/POu9gWL15inTt3tvnz5/upKEkEywAAAACQZ926dXbXXVseM/jAA/+20047w70ubbo3+qqrbrCePa+xjRs3Wp8+ffwUlCSCZQAAAADIc++999rKlSutS5furiOvbKPa5X322c/efvtte++993wqSgrBMgAAAADkUQfCcs45F7n/2aZSpUrWvft57vXgwYPdf5QcgmUAAAAA5Z4eTbt06VKrXbuONWjQ0KdmH93DLLNnz3b/UXIIlgEAAACUezNnznT/W7feEoxmq7322tt23XU3mzNnjk9BSSn15yxPnDjRv0rdO++8Y3Xr1rVmzZr5lNRUq1bNDjjgAD8GFM8nn3xiP/30kx9LzYwZM+zrr792jygoqtatW/tX5U9Rf0c2bNhgjz/+uF166aU+JXXlOd9Lwueff26rVq3yY6mZN2+eu8p+wgkn+JTUsT8BoPwaMGCA9e3b184663y77rr/86nZ6aKLutn06R+7R1s1btzYpyLdSj1Yfu2111yTh6KYMGGC1alTp8gFREE2wTLSRcHyrFmz/FhqQoBQ1BP1GjVq2IknnujHyp9wf1Gqfv75Z3vppZfsjDOK3tNlcd6LX9N3YcqUKX4sNYsWLbIvvvjC2rVr51NSU6FCBevatasfAwCUN/fff7/dfffddvDBh9ijjz7rU7NThw6t7Ycfvrdx48ZZw4bZ22Q815V6sFwcOkHee++9rU2bNj4FyE268KMT/S5duvgUZML69evdFWQNyH2ffvqpTZ061Xr06OFTAABInjrMuvbaa2233eraK6+861Ozz08//WhHHdXSvSZYLlncswwAAACg3FMLI1m+fJlrfZatPv10mn+FkkawDAAAAACeGt4+9tgAP5ZdNm3aaAMHPrg1sEfJIlgGAAAAAE+9TStYHjs2+5piP/jgPTZ16iTbZ5/9fQpKEsEyAAAAAHgnn3y6bb99Vevd+2obPPhpn1q6fvzxR/vrX/9s//3vE9ao0b55wfJ+fgpKEsEyAAAAAHg1a+5sDz/8VN7/WvaPf9xhV111sX3zzUo/NfPmzp1tZ599qr388guup+4BA56gGXaGECwDAAAAQMQBBxxszz77sh122JH24YdjrUuX39pdd/3FBa6ZoPumP/jgfbv++sutR4/OtmTJIjvvvIvtkUcGWe3adfxcKGkEywAAAAAQs9NONe2f/3zM/t//u9Z+/PEnGzZssJ1zzmn2+993t1dffcnWr//Jz5k+q1evsscfH2inn36cXXvtpfb++6OsevXqdt99A+2qq26wihUr+TmRCQTLAAAAAJCAmjtfdFFPGz78LRc0N2jQ0D266bbbbrKOHdvY+ed3tTvu6GNDhz7r0nVvcbLWrFltEyZ8YE8//Zj16fNH69btJDvhhHb20EP32dKlS6xly9Z288193TOfjzzyaP8uZFKFzarjz1EvvPCC7b333tamTRufAuSmCRMm2KJFi6xLly4+BZmwfv1669u3rxuQ+z799FObOnWq9ejRw6cAAJC8IUOG2DXXXGO9e//FunY926f+2scfT7HXX3/ZPvjgPfvqqyU+9Re657lOnV3dULv2lmHDhvW2cuUKW7Fied7/5e7/2rU/+Hf8Yr/9mlqHDr91nYzVq1ffp/7aLbfcYCNG/M/GjRtnDRs29KlIN2qWAQAAACBJ6mRLAfXw4aPyguYxduedD9jZZ19gzZsfZJUrV3Y1xp9/Psc+/PADe+214fb004/ac889ZW+++ZpNmfKRLVy4wAXKal6te6IvueQK19z73Xcn2TPPvOTGCwqUkTkEywAAAABQBOps69hjO1mvXn+yJ5543j744FMX9L722mgbOnSkDRr0oj3yyDP22GPP2X//+7K9+OKbNnLkWHv//al58022f/3rP3bppVfZ4Ye3ywuea/ilIlsQLAMAAABAmijoVRPsvfba2/bfv5m1bHmoHXRQS9t33/2tfv29rFat2la1alU/N7IZwTIAAAAAADEEywAAAAAAxBAsAwAAAAAQQ7AMAAAAAEAMwTIAAAAAADEEywAAAAAAxBAsAwAAAAAQQ7AMAAAAAEBMTgfL48aNs08//dSPAbnrk08+ceUZmbV8+XJbs2aNfffddz4Fueyzzz6zDz/80I8BAAAUT84Gy2+//bbVq1fPFi5caNOnT/epQO5RoLx48WLbbbfdbNSoUT4VJe3HH3+0F154wfbbbz979tlnfSpy1Zw5c2zq1KnWqFEje/31130qAABA0eVksPzRRx/Z5MmT7dJLL7Wzzz7b/vvf/9qXX37ppwK544svvnCB2jnnnOPK88SJE92Akqd833///e2qq66yOnXqEDDnsGXLlrnjgI4HV1xxhc2ePdvGjh3rpwIAABRNzgXLs2bNspdfftmdFO20007uZLdLly7uREnNKYFcsWrVKhegnXHGGbbvvvtazZo1Xbl+6aWX3Mk+So5qlKtXr24nnniiG9dvyPr16+3VV19148gd69atc7//xx9/vB144IG2/fbbu4tPaqXx8ccf+7kAAABSl1PB8ldffeVOinQitOeee/pUs0MPPdQOO+wwN23Tpk0+FcheGzdudIFy27ZtrVWrVj7VbK+99nIBs6YtXbrUpyKd3njjDVu9erV1797dp2yhfJ83b56NHj3apyAX6He/efPmdsQRR/gUs1133dUdJ/Q9WrBggU8FAABITc4Ey99//707KTrppJOsWbNmPvUXHTp0sD322IOmlMgJKsu64HPMMcf4lF8ccMABrpZM86xdu9anIh3Gjx/vOgVUYBxXpUoVl/7+++/btGnTfCqy2fPPP+9aGHXq1Mmn/GKfffaxbt26uWPCN99841MBAACSlzPBsk54Dj74YDv88MN9yq/97ne/czXL//vf/3wKkH2GDx9uFStWtNNOO82n/JpqydSkVAEz0mPGjBk2YsQIFxDXqFHDp25L9y5ruvJ9/vz5PhXZaOTIkfbtt9/amWee6VN+7ZBDDrEjjzzSHT9+/vlnnwoAAJCcnAiWBw8ebLvssov99re/9Sn5U9M79ZD93nvv+RQge7zzzju2ZMmShDWbcapd3nnnnW3IkCE+BUW1aNEiFwAr39WLfkEaN27sfkc0/8qVK30qsokes6aLH9pPhfnNb35jDRo04MITAABIWdYHy3oEiJqidu3a1acUrFKlSu4E6oMPPnA9ZgPZYtKkSTZhwgQXsKlmORnq/Eu3IKhGFEWj2kcFSqeffro1adLEpxasRYsWdvTRR7v3bdiwwaciG+hRgbrvXL/z1apV86kFO/XUU61y5cqu8zwAAPKjW7IkF1ojhfMTdWyJkpPVwfKYMWNcr8DJ1B5E1apVy71HPd7OnTvXpwKlR8+AHTZsmAuUVVucCr1n5syZ7gIQUqeAt3Xr1m5IxVFHHeVqmamRzB5qNaT9od/33Xff3acmR98jdZrHs8wBAPnRU3ZkzpxZ7n82mzt3llWtWrXQFnMonqwNlvXIj3fffdedFBXlisnee+/tTo50r9rXX3/tU4HMC8+AVVlWc9BUqfZM733rrbdc51RInvK9bt261rFjR5+SmpNPPtldZX7xxRd9CkqLejDX77ke87Xffvv51ORVqFDBHRN4ljkAID9NmzZ1LZFmzpzuU7LTTz/9aF98Md/1zYGSlZXBsh71oZMindjoESBFddBBB7mTZJ0w//jjjz4VyJzoM2DVy3VR7bbbbi5g1rJUu4bCvfLKK64ZlZpfF4d+h3TB7e233/YpyDR13Khjgh4RqEcFFhXPMgcAFES3ySlgVq1tNjfF/vTTLU/tUGewKFmVbs3jX2cFPeLj8ccfdye4enZmcakmTzUSasLK1Rdk2lNPPeUeYZPoEVGpUid3usVAJ/oKvJO9X7M80uOfZs2aZRdddFHS94cXRPc6q5d91TLXr1/fpyJTdJGodu3adsIJJ/iUolPArNYGzz33nDsh2mGHHfwUAADM1SzriQvSunX+T+EpLZs2bbTbbrvJVqxYbg8++KA7N0TJyaqaZV3B0UlR+/bt0xrY6gRLJ0S6hxnIlIKeAVtUrVq1srZt27pato0bN/pURE2dOtX1d6CaeB3w0mHHHXd0y3v55Zfd/ePIHOW5apb1aMB00YVYHRd0vOFZ5gCAKB3vda712GMDbOzYd31q9njwwXvyznUmWa9evaxRo0Y+FSUlq4Jlnbg0bNjQ9UKbbt26dXM1zOpFFShpyTwDtqhUS73nnnu6gBnb+vzzz12NoQ50qolPJ9Uoa7nKdz3+CyVP/VbosV/K93TTiRDPMgcAJKIaW3We1bv31TZ48NM+tXTpltK//vXPecetJ1xHZFdffbWfgpKUNcGympaqFuiUU07xKemne9XUQdL48eN9CpB+qTwDtqhOO+0091+1bthi+fLlLpBVvuuiW0lo1qyZnXTSSe5z9EgvlBw9+k+/1frd1iMBSwLPMgcAJLLXXnu5p5jowvs//nGHXXXVxfbNNyv91MybO3d23vHw1LzzvhesTZs2rvViulrPoWBZESzrUR56pIdOikpSjRo13Im0nlmrYAZIN12MSfUZsEWlz1i8eLG98847PqX8+umnn1wAq1r3gw8+2KeWjMMPP9x9BjX7JUeP/NNtMzomlPS9WDzLHACQiG4J1TmWWrx++OFY69Llt3bXXX9xgWsmbN682T744H27/vrLrUePzrZkySK7/PLL3RM61PErMqPUO/jSIzzGjh3rOuJRc4eSpnuX99hjDxs0aJB7/Ig6ewHSQb1UP/HEE3beeecV6RFRqdKjcFSGVbuswFzlurzS91lXgY899lifUrLUaZt67dcj7uiJMr3U87g6edQtDOF5lyVNLQYULOveaJUjAABEsYkuqm633Xau89AZMz6xoUOftXHjRlvlyttZw4aNrFKl9Nbwrl69yp599im79dbe9sIL/3WPiFLfKf/5z3/swgsvTEvHpUhehc26bFGKdIKik03dg5lJCtIVbBTnMSRAVGmVKQXpn332WVo7Esslan6txzqdddZZPiVzdHGka9eu7iCG9NAFCNX0HnnkkT4lMxSkf/jhh3bqqaf6FAAAfqH+StT8WbfuzJs3z6XpKRmNG+9nTZo0t6ZNm7v/++7bJOkKwDVrVtusWTPyhs9s9uwt/xcuXOAu3uqcUo9M1MVjdXLJ0xtKR6kHywAAAACQKz766CMbOnSou1ivjijjatbc2erU2dUNtWtvGTZsWG8rV65wj3xauXK5+7927Q/+Hb/Q40HVP4qCZFo7lT6CZQAAAAAoArVMmjBhghsURE+fPj0vMN7gpxZM/SmpRWLr1q1dLbJeU4OcXQiWAQAAACBNdDvRDz/84IZ169a5/7rXWMFx9erV3X8NJd0ZLIqPYBkAAAAAgBi6UwMAAAAAICZjwbIeD6Ve3fQ/kcKmA6Wpb9++rnz27NnTNadJVrrL9TPPPGMnnHCCrVxZeg/GV16U9jrkJ5n80f7TftR+yW/I1u2bNWuW3XjjjSmVwaKI5pH2dyLKH+VTftMTKer3KFX6vrVs2dLlVyr0vlS2pygy8RkAUJ6Ec61EQzqO5/rNLup5nN5b0sc8lCxqloFC6EdWP5Ldu3e3gQMH2uTJk/2UzDv33HPd49Zq167tU1BUl112ma1du9Y99D8+ZGseDxkyxL799ls/VnL0OLLx48e7Mq/ePlMNOhPJ5PeoXbt2NnXqVGvSpIlPKZxOZJ5++mk/VjIy8RkAUF6NGTPmV8dzHQ+OPfbYIh/H9D4dB1F+ESwDhZg5c6YtXbrUrrrqKvcs41GjRvkpQNmkZ4bXrVvXlfkwXlx8jwAAmXb99ddb27Zt7Zprril2DTPKp6wOlqNNAcOQqPlaovnizSVCk8FHHnnENc/Lb1lAVKgJ0g9tq1at7LzzznNlK78fXDUDDmVQ5UyPD4gLTXJUFqPz6uqllh3SNMTLcbyZcSjXStdyw/vS0ewoHaL5oSG/71x83YcPH/6rZrRhW5NZXrqEz4znZ1jfsH80nt8+jYtvR3y+8Ht23333bZ3vkksuccMtt9ziamXVk2a8bKSL1k9lXlfjNXTt2tVGjx7t1quoUvkexb8DifKxsHk0PZ6m10qLvi/kodajc+fOLm+Vx/H3xstxfHrYZyoH8d+AMF9hnwEASD/1Nq1jzsiRI91F26hExwX9hgc6RjRt2tSmTZtm7du3d7/z0WNhYceGqL/85S9JzRc9H9IQP/+QROsdjmdRel9B5xtITtYGyyqMvXr1cq9DU8kVK1a4whAtyOEERMJ8aoahQp2o4AwYMMAGDx7s5uvTp49PBRILzVGPOuoo94Or5+CpdkzNdOP0A3fPPfe4H2OVL5UzlbdEdMK8bNkyN5/KrYII/SAroAjleNCgQXbFFVck9cPWo0cP69ixo3ufvidy8803FyvAKa54foTvr9KDEGQoXdM1n76Xp59+up9jC33P1QRdBzzNo0HLVdOo6O9Buqkp9gMPPOD2ediXWlcFO9o/CiaD0LQ47L8bbrjBNTmO7j+9VnMwvS9sR6L55LrrrnN5oXkeffRRN9x+++1bm49HPzudlK86qVB5Ev0P21ZUyX6PlLf67Y42pVP+RGsEkpknTnmrPNZ84T16f/h+aT+/+OKLLm+Vx9Em3Cpf+l6G8qlBFxASfZ7KhWie8L0O8xX0GQCAklOnTh1r0aKFLViwwKf8clzo37//NscFnU/pOCM6zuqYqPdq2sMPP7z1UU+pHBt0DNUtVAWdH4jOjxYvXrx1Pv1v2LDhNudzhR3PAr1O9nwDBcvaYFkFRIU6nFyJTjZ0cqWT5kDjOulSYB3mU8HQyYgKXbzAqiBzgoJkheaoujInDRo0cCfA8Zo2/fAocNMPUShf+q8f4UTUDPXyyy93r1VuVc71YxwtxwooJAS/BVF5D8GTvicKKvX90feoNCTKD62Xgj8FFOFApABMBxGla7qE729UCKrCfhAttzi1nvpc1dBGr8yGIRqA63O0HVpv1Xjrd0UBT5cuXfwcW2if3nHHHVv3n6arrAwZMsSNi16rPIV9L2E+1SRHt0OfoVrYTFPz6Ohn6yJOcZtNJ/s9UpnVZ+kzg/h9+snMExe+Q+E7JSpnhQWsOn7oZEjfp+iyu3Xr5o47OomKipYLlQO9T/Ml8x0GAJQMBcs6Bs2bN8+nbDke6zgUPc7qtX7HCzvepXpsSOb8IJw3aZlhvnAc0cVmXXSWZI9nqZxvoGBZGyyr8Gnn6wpPoiYIoh2tky3teJ18Rak2JNFJSuPGjf0roGDhx1DlMPwY6odLgW28pi3Rj5eEq5lxulKoQC1dsq1ch3tc4/kRAq9wdTdR4CPx7YkGQzqghOZHoSavKHRADFdv40P0gpzoAKP5VeMdvzgXxPepptevX99dGFBZ0qDX0fIkoUzFL27ovfHPKGnhYB2/SKl1VrqmpyqV75HKi/JX35v8WgwkM0+cypdOGvQ/2rKhMFpflbtQHvRelTstR83y4kpjnwEAUqeL9KGmWMdm/bbrGK7jUmFSPTYkOj/QMTCcH4gCXQW8OlYqvlGrOy1TLamikjmepXq+gYJl9T3LKshqWqAmgToxUqFJFDgnqiGKFy4gVaE5qgKyaNnSBRyJXnkMwV9cuJpZGhJdLMokHTD0Yx7NO+WH8jSIXuWN0oElSt95ffe1DC1TNcoKauM10CVFBxhd3ZX8WqckCpQSXcSIlycNoUyVNl3k0H7T+kTXT+us9KJ09JXK90j5Om7cOHdhIroO8Zr+wuaJCyc2Ki/R9UgmcNZyw/y6YKDt0ZDoIlgiyjdqlgGg9Og3WOdE0WNy9MK7YgbdWqUAUseWZKRybEj2QmoIuhXT6LxS6604KCqV41k2n2/kkowFyzpJLujkQoVC0zVflK6KhNoeFUIVdl3JiQbMKjBhnujAPWEoKl3VU21YfrWPKnPRK4Lx4C4IP9DlkWqMtf3xvNMQrsbmVyMev/gQ7hcOy9OFtEzSfg4HIh18tO/jdJ9RvFlToosBOiDH80NDqDkvLdpGlflEv6fhBCLVJu+pfo9EJxS62h+dRwf3aDCczDyJqNyE92g/aF8WFDDrZEr33Yd9xjEFAHKPzh104TKcq+nYpKbIapkajk3xFmUFSfXYkOj8IE7HQh2TFBxrmYWdEyRzPMvW841ck9FgWTVs+d0HoJPKRM2po1QQde9gqDHTCVO8GUOgk6b8mm8DhYl3SBSnZv6qLdMPjoSLPPGat/ADXd6EprK6wBUVruSGYFMHLuVjfL5okKkDjA408WZM+m4nClpLgoL1sD0KzHRAiv+2xJs1hfUOzaA06HWigFPLU5Orwg6mJUnbpn0ROvaKCr+18WbThUn1e5SI7rfShZf8WiFIMvPEhab1BZ3ExE+wglADDwDIbvp9Dxdtw/3JOlbrmB2v8Q3HrMKkemxIdH6gc4FoM+n8Kg2T6S8kfjzL9vONXJOxYFk7TldBdOUjfvVf40qP3tSuE1EFu9GrJKFwRYNqzSPxnuJ0xSd+4z2QrBD0xu+5DdQUWCfn4YcoXMhRuVP5E5Xh+FW+8kL5oebK0d4ZlU/hSm44YIXONKLBZ7i6qotrOmjoN0EHtGgHF6IAVoFWSQvrEzorC51lxHs617pE0/r16+fWWR1+BHqtNE0LwvKjv3/5UU18/KCbLjogJ7p/PNB3QQfyZA7cQarfIx0L4o+2iAfxycwTpzxW87PoxZV4IB/KWTR4VvmLb3M4vhRFos8AAJSccCyO9jWiC+8KdHVMCOce4RwlHuyGyj4de4NUjw3JnB9offTZ0UqXcH4QlczxTIp7voGIzRmWd1KzOa+AbdZHhyHvZGnzihUr/By/UJqmRefNO7HenHei6OfYQuNKj843ZswYP3WLsKxBgwb5FCCxUFZuv/12n5KYylK8rIW0MAwcONCV9+g8Wm68HOt9mk/fjyB8V+LLj35f8ivXiZaXLlr/6DZGh0TbFZ2eX55Gl6nteemll7bZTol/rpYd306Nx98Xl+j3ItGgfA/7IL5dmqZ5wvbov+bJC6i3vj+/9Qj7LMwX309h/RLlVVgfvU/bmi5huYUtU+sU1jdsR6L1lMKmB/pMbU8o52E8OkS/A1LYPHodz9ewz6JDfHuj84TlRfNcg7Yp76Rom23Lb5+F5YVlSaLPAAAUXfR3NT7Ej99BonMBLUe/4/p9jx6/labp0fRkjg2i18meH8S3Q++bMmXKr47PibY3fjyTcBwO88SPi0hOBf3Jy0AAyBqqPVRto67y5sLVT9WMq7YwV9YXAAAAhcvq3rABlG2JmhOFpkz53ecKAAAAZALBMoBSow4oBg0a5B7bEB5roPtY+/fvn1LPlAAAAEC65XQz7M8//9x14LXzzjv7FCA3TZo0yQ499FA/hkwi78sO9iUAIBsRs+SunK5ZHjNmjC1ZssSPAblryJAh/hUyjbwvO9iXAIBsRMySu2iGDQAAAABADMEyAAAAAAAxBMsAAAAAAMQQLAMAAAAAEJPTwXKzZs1sl1128WNA7tIjlFA6yPuyg30JAMhGxCy5K6cfHQUAAAAAQEmgGTYAAAAAADEEywAAAAAAxBAsAwAAAAAQQ7AMAAAAAEBMTgfL06ZNs+XLl/sxIHe99dZb/hUyjbwvO9iXAIBsRMySu3I6WJ46dSoFD2XCm2++6V8h08j7soN9CQDIRsQsuYtm2AAAAAAAxBAsAwAAAAAQQ7AMAAAAAEAMwTIAAAAAADGVbs3jX+ecKlWq2O67727Vq1f3KUBuqlq1qu29995+DJlE3pcd7EsAQDYiZsldFTbn8a8BAAAAAEAemmEDAAAAABBTLoLlZ555xnr27Gnr1q3zKb8YO3asnXDCCbZy5UqfUrpmzZplLVu2TMs66f2zZ8/2Y1vGtVxtcyZpHaLbom3s1KmT+18S9Cy76L4uaP8DAAAAQCLULGeZiRMnunsali5daiNGjPCpqVNweu6555b6A9AVmF999dV+bIsmTZrYyJEj3f90U2D88MMP+7EtlA9Kq1atmk8BAAAAgIIRLGcR1XyOHj3azj//fOvatat7TW0oAAAAAGReTgfLqrVcsmSJH0uf0Fy5QoUKbsivSXTfvn23zqOm0/FmxarlvPHGG10TYM2j8YJMnjzZxo8fb61bt7aOHTu61wsXLvRTf6HP1RAVTQu1yqq9bd++/a/mnT59ulvfsO6JmmWH5uBhnvgyQh4NHz58m7yKbqOWq8/XetSpU2fr5yRqhq2LAiGfNCTKT70/TA9D9PP0ukePHjZw4EA74ogjtr5f6fFm2PHPS7SPQ55qCPPFl5Muzz//vH+FTCPvyw72JQAgG5VUzIKSl9PB8ty5c2316tV+LD0UCN1888123nnnmToK19CuXTsbMGCAn+OXQEvCPP3797fu3bv/KsC75557ti5LAWxBRo0aZW3btrUGDRpYq1at3Gs1y05V7dq1XYCogHTMmDHWp08fP2WLYcOG2dtvv+3WSdOvuOKKbdZbX2hty+DBg908a9eutcWLF/8qYJaHHnrIfVZYlrY3LEv5pjStx4oVK9x4IsrPXr16udf6LC3rhhtusGuuuWZrAKtl3n777TZz5kw3XcOgQYO2+Tzlr9Iuu+wyGzduXL7NvLXMzp07W/369bcuS+um98cD5ltuucVduNA82oYFCxa4/Eu3ouxnpAd5X3awLwEA2agkYhZkBs2wYxSsKSCKUrAZDThV27tmzRq7/PLLfcqWwFBNp4cMGeJTtlCg2LRpUz+WPwVpClIVWOveWg1HHXWUPf30078K4IpLn6GAWrRudevWdYFgoKBdwWoINrUuCmYV+MYvBhS2rGQoP+fPn+8+I9xXrMBV92yHZSe6z1k18Lq/O1UKuCW6/8LrMC1Q4K0LF6J10X6eN2+eGwcAAABQdhEsxyggUgCo5rz5Nc9VMPjcc8+5psWhea4G1ULGNWzYMKkHkIcgLRpYKxhUR1/xAK64tE75US2vapHD9odB67Vs2TI/1y8KWlaylJ/6DOVnYbQvQrPv/NapMLoYEt8vIRCOXyhR7TMdgwEAAADlT7kIlgsL6OKBk2o1Q7NbURAXDZoVUIWmxaEZbxjiTZ6ToQBVNcjh3t5ogDpt2jRX05spoWZdzZnj26ZHMpVED9bJUI227mNW/oRm7bqIUJSa5UTCRQIAAAAAkHIRLCvAUrNpBYJxCkTzqz1UbaOaAoegOdTwKrhWjW9ILy41Q1ZnXmrmHA9QFbQOHTr0V82fo9IZ6OmigbYvk02NtX+0rQXlp+5F1D3c2ofh3m/NX5SaZW2fLghEy0O4SFDYhRUAAAAA5UNOB8sdOnSwvfbay4/lTx1m1axZ03XcpcAy0D3CCkS7devmU35p5hvtZTneRDp0vnXfffdtXV6i9yUrBILh3tgoNcWWaMc1jRs33iaAVi/a6gE6KgS98WbFhdFFA9Xcqkm58ifQdiVqkl6YZAJh7Z9GjRptc7+3ti3eY3Y0wFW6OiaLSxQIx4X9GO20LbwO0zJNjwtD6SDvyw72JQAgGyUbsyD75HSwrCBrxx139GP5UwD48MMPuxpkBZGhmbOCLfX4HG1arNrkBx54wPWyHJ1PaZomWp4CZQnLC82DQ61nshR8qgm2OvNKVLutdYs/c1mfoTQFdvps1Y6rp+goLUvL1L3HqT7uSPfuqpZbj30KeaB1VMAc8iBZIRDWuuZ3ISHkp2rHw+epN+4HH3xw677RNmu9lM9hunogV4di0QsJIdjVfNFgP0rb8OKLL27zeZq3KNuXLgcccIB/hUwj78sO9iUAIBslG7Mg+1TYrGo/AGmxaNEiu//+++3iiy+2Zs2a+VQAAAAAuYbesIE0+vLLL+3NN990z2Y+5phjXI18KrX6AAAAALIDNctAmr3yyit26aWXunu11cR7u+22szPOOMM1iT/kkEP8XAAAAACyGcEyUAIUMF922WVbezWvWLGibdq0yfbbbz+75JJL3D3nNWrU8HMDAAAAyDY53QxbzyVOtbdnIBNOOeUU10N56EBMgbLMmTPHbrrpJmvevLldc801NmnSJJf+yCOPuP/IPPK+7GBfAgCyETFL7srpmmX1lnzXXXf5MSA7FfYVO/XUU22nnXayfv36+RRkUu/eve3uu+/2Y8hl7EsAQDZ68sknrU2bNq6yBLkl54NlPVdXzx0Gso06+7ryyitdB1/Rr5keN/bjjz+651ZfdNFF7hFdnOSXHvK+7GBfAgCyEcFy7srpYJmCh2w1d+5cO/HEE+2HH35wgbI6+dL/mjVr2oUXXmjnn3++7bbbbn5uTvJLE3lfdrAvAQDZiJgld/HoKCDNQqD8/fffW7Vq1Vxa69atbcCAATZ16lS7/vrrtwmUAQAAAGQfgmUgjRYtWmQnnXTS1kC5e/fu9v7779uwYcPcvcmVK1f2cwIAAADIZjndDPubb75x939WrVrVpwCla8KECXbDDTfYxRdf7J6trPKZjCVLltgee+zhx5BJ5H3Zwb4EAGQjYpbcxXOWAQAAAACIoRk2AAAAAAAxBMsAAAAAAMQQLAMAAAAAEEOwDAAAAABATE4Hy0OHDrU5c+b4MSB33X333f4VMo28LzvYlwCAbETMkrtyOljWs2w3bNjgx4DcpUcKoHSQ92UH+xIAkI2IWXIXzbABAAAAAIghWAYAAAAAIIZgGQAAAACAGIJlAAAAAABiKmzO41/nnPXr11ulSpXcAOSydevWWbVq1fwYMom8LzvYlwCAbETMkrtyuma5SpUqSRW6Z555xipUqPCroWfPnu7kCltOMqdOnerHCrZy5Uo74YQTtsnLvn37+qmp03uL8/6CaF1nz57tx35Z97Fjx/qU7MAJfukh78sO9iUAIBslG7Mg+5SbZtiXXXaZrV271lSRHob69etb586dXQBVnilQ7tWrl02fPt2n5G/WrFl27LHHWp8+fbbmo/J18eLFWXfxQfv13HPPteXLl/sUs9q1a9uIESOsXbt2PgUAAAAAfq1c37N8/fXXW8OGDW3AgAE+BYWZOHGitW3b1lq1auVTttTmKNieP3++LVy40KcCAAAAQO4q18GygrzzzjvPNcmN1y4rLdrMWE2540KT3jCPXkeXo/fEa1vjaWEZjzzyiLVs2dItR/9VgxttPp6o1lbjSs/v8yU0cdaQaFn6r0B34MCB1qNHj4SfE7dgwQJXmxzVpEkTGzlypPsfpe0I26Uh2ebWybwvvv0h30T5oFplrVP79u23vj/kd7wZdmH7O7xv+PDh7n9+8wEAAAAoG8p9b9h16tRxTYlXrFjhU7YEtFdccYXNnDnTTdP/e+65Z5vAKARjas4bmiPr9c0331xosJnIsGHD7O2333bL6dq1qzVt2tSlh3VTgKp5An2+mpAfddRRWz9fgb/WSdOibrnlFuvYsWPCZemCwX333eeaqQ8aNMgefvjhAu/7U6AoyrfCgkUFoN27d7fBgwe7zw7NtQsLmJN5XwjyJTSvv+GGG+yaa65x26/m1lq3Tp062ZgxY1yz8fwks7+Dhx56yKVrPi1X84UAHQAAAEDZkdPB8lNPPWUzZszwY+mhIGz06NEu8Aq1pPqvcaWHQFgBlVx++eXuvyggKyzYzI8CXQV4osBWQV4ITKtXr+6ai0fp85XWpUsXn2LutdJ0T26UAuHQbFqfoaB+3rx5bjxV4Z5fBdai2uhQyxqvrR01atQ2+RiaayvILCjATOZ9au6tZt9KD/mtCwVat5CPyUh2fwfR/aQLGnXr1t3mQktR9e7d279CppH3ZQf7EgCQjUoiZkFm5HSwrNq9dFMtpWpe48Fp69atbc2aNVubH4d5FMimQ/zzCqPPV9NpfX4IVvVaaXHqyKwoAXxBFJgq/zUoWFRwr9rZEMwqyFRtcDSY1qAAc9myZW6eRJJ9nz5T6arhLo5k93eQ6n4CAABA+VYSMQsyo9w3w1bQ1ahRI2vQoIFPSUzzrVq1yo+VPtUMJ+rhW4MC2UxSTauaJquWVR2ASQhCVQMdXz89oirU4sYV9X3plm37GwAAAEBmletgWbWYTz/9tLvvN9S8hibPCtiiQu1jqEkO88RrHgtT1ObPcY0bNy7S5xdH6OQq0b28Id+CMJ7q9ib7vkT3mhdFsvsbAAAAQPlSroPlfv36uaAo3BssCpoVPEc7btJ/jUeD6tABV/T+YN2zq2WFDrYUbKlZ9OTJk924ljN06FD3urjCOkcfe6Xlq0fo+L3DhdE2qal2YQGqapB1z66aSMc/Q9sYzUstU/Oqc7HovAq0o3kUl+z71BJALQKGDBnixkXbr+bgYb/lFwhHJbu/AQAAAJQvOR0sV6lSxSpWTG4T4vf3atC9sS+++OKvOoRSM+b+/fu7gDjcL6sOn6LNm0PTY9VMh+Wpt2alheWpIy01J9ajizRdvU5HOwQrjvD5CijD52s9td763FSpUzEFqAUFsqI8UOdiuj85fK4G5UM8L7Ue6pQrbH+YL5pHiSTzPgWxyk/twzCPetB+8MEHt+kYTAFvYY/ESmZ/l7SqVav6V8g08r7sYF8CALJRKjELskuFzWrLCgAAAAAAtuISBwAgq0yaNMnq1atn//znP4vdLwEAAEBRUbMMAMgqGzdudLde3HnnnfbDDz+420QuvvhiO/roo92tEgAAAJlAsAwAyDobNmywbt262YQJE9x45cqVrWbNmnbRRRe5TgCL+4x1AACAwhAsAwCykgLmM8880zXL/vnnn12aOu5bv369/eY3v7Hf//731qFDBzpNAQAAJSKng+W5c+e6XpMrVarkU4DcpOdl80zn0kHeZzc1yX7kkUds4cKF7nWgAHm77bazHXbYwS688ELXe716w65Vq5afAwCA7KBbitQjto5byC05HSzrMUEvvfQSz8JFzlMgoGdHI/PI++z31VdfuSER/f4riNaj4/T/H//4h58CAEB2ePLJJ61NmzbWvHlzn4JckdPBMgUPZUXv3r3t7rvv9mPIJPI+u6lHbO2faK2yrs5v2rTJ9t13X9fxV+fOna1GjRrsSwBAViJmyV3c6AUAyEoKlP/+979vDZTVXF5NrVWL/MYbb9g777xjPXr0cIEyAABAuhEsAwCyzgMPPGB/+9vfXA2y+qXQ1XiNf/bZZy6AbtasmZ8TAACgZBAsAwCyynvvvWd33XWXq0U+//zzbdSoUfb222+7GmWlAQAAZEJOB8u77LKLbb/99n4MyF316tXzr5Bp5H32OfLII23AgAE2a9Ysu/POO23//ff3UwrGvgQAZCNiltzFc5YBAAAAAIihGTYAAAAAADEEywAAAAAAxBAsAwAAAAAQQ7AMAAAAAEBMTgfLy5Yts7Vr1/oxIHfNmzfPv0KmkfdlB/sSAJCNiFlyV04HyyNGjLAFCxb4MSB3DRw40L9CppH3ZQf7EgCQjYhZchfNsAEAAAAAiCFYBgAAAAAghmAZAAAAAIAYgmUAAAAAAGJyOlhu0KCB7bjjjn4MyF3Nmzf3r5Bp5H3Zwb4EAGQjYpbcldPBcocOHWyvvfbyY/l75plnrGfPnrZu3TqfUvr69u3rhmRovgoVKrjtSFaq27xy5Uo74YQTbOzYsT4lM8K2hUHroHUpKr139uzZfsxs1qxZ1qlTJ/c/m11wwQX+FTKNvC872JcAgGyUbMyC7EMz7Cyn4E8BbPfu3e3pp58uViBZkNq1a7tu7du1a+dTSlYIzhcvXuyeO7d582Y39OnTx+rUqVOkoF3LPPfcc2358uU+xaxJkyY2cuRI9x8AAAAAkkWwnOVmzpzp/l911VW2dOnSreO5bsCAAS4wf/jhh61atWo+1VzamDFj7Iorrsj62mAAAAAAZRfBcoSCs5YtW25tEpyomXR8nkceeeRXzXzj8+S3rMKoCbVqkxVAtmrVytq2bWujRo3yU7elZtfhs1Rj+/XXX/spW5ajJtnxZtyqvQ3NnkNNb7xGN7pcDfFlhGVHP7uw2m/ljwLibt26+ZRthW2dOHGiT/mlWfmNN9649bOizcxDrbJqkdu3b781v/VZiZphR5t/a18lmh6GRJ8HAAAAoGwjWPZCU+fBgwe75sBqGqwmwiHoEgVk11xzjd1www1unhUrVtiwYcNs2bJlfo5f5unfv//WpsUKDG+55ZaUmxYvXLjQxo8fbx07dnS1r+edd55bRjwYVdo999zjap1DU+brrrvOTzX33qOOOupXzbgVeCsQVxPsRBSgRper/xoP26Flde7c2S07bKvWUUFrfB2jlG8KPtXcOpGwvqNHj94mOB04cKDrHEGfo/0j/fr1c/+1DVpfBcbKb+VBIiG4jzb/1v7Uvo8HzNpnynvNo3VesGCB298AAAAAyr6cDpY///xzW716tR8rHgWOCprCva0K2Hr16uUCrxBE6Z7ehg0bWpcuXdy4ArR4UJbo3t+mTZu6IC5VqllVDatqWkXLES0/UPCnIDi67vrs22+/3b0OVOMroRm3glkFvQoGE9FyFaxGl6v/U6dO3bptWlY0P0SvlRZdx0Q0T/Xq1f1YcpSHl19+uXudaP8kQxcg5s+f796rZYjWOV6TLZdddtnWvNd+1XbPmzfPjafbpEmT/CtkGnlfdrAvAQDZKJ0xCzIrp4NlBUpLlizxY0WnwFA1jT169Nja5FaDgtNorbECpfr1628NskS1o7vvvrsf+0WowQw1qGoenIoQrKqGNXxeCNiiNa6qHVWNp4LPqMaNG/tXW4T3hmbcIWgOAXhcfsuN0nTV9iroDXmm10orjN4baoeTFQ+wla/6TNX6JitRrbbyV/kcD4Tj+7okDRkyxL9CppH3ZQf7EgCQjdIVsyDzaIadJwSGgwYN2tqcOAyqSU2lJ2XV2KoWV0Gdgq3QhDfVmuXJkye7oDMewKtpsJpmq4Y0VapFDs24FTSrybSC6KJScKna19CcOTqoKXZ+FKiGfEkk0YWCklZSNcYAAAAAchPBch4Ftqq1LCxgUm2taqBDra4o4IvWPocaW6WHJtp6rZ6sU6FgNlEgqmXVrVt3aw1KWHcF+1GJtiXUIg8dOtRd4WrdurUbTyS/5UYpP4pSQ6yLD+qEK79aIF0o0AWB+PrFP0t5oTyJ1hIXJlGgrv2p/RqvjQcAAABQfhEs51HtpWpZ451wqcOoaO/Oeq2ALXTypPRoB2CBAuMQjGkedfg1bdo0N54MvUfroXWK16yG5tShhjisuzreCvfuapq2JU7v1bwKwhs1amQNGjTwU35Ny1XNbrRTMAWValoeesQO90HrMVCB1kG9S0fzMRHde6x54j1MK02BtDpIi9foqyl7+Cy957777nPzhvmSCfC1zdp2vTd8rvZnouAcAAAAQPlVboLl+L21GqKPDFIAqtpWBV9hugJFBYahqbL+P/DAAy4w1XTVUqpzqOg9y1qOOsVSLW6Y549//KMLUMP9woUJnWPldz+xHrkUfeayPlPBZfhMBfD33nuvmxangLBFixZJNXFWU2oF19oGLVf5p/eFJtbKD+WPAlxN16B10LponQqi92o7tbzoftG660JDovcrD7/77rut66Jm7tEO1kKAr6br+T3mSfPo2c56b/hc7U/1gp5Kc3sAAAAAZVuFzWqTmqMmTJjgagrVLLm0KNi+9dZb7V//+tfWoBrpp6Bc9zGrRriwID8Xvfzyy3baaaf5MRTFX//6V3dBZdddd/UpySHvyw72JQAgG2VDzIKiyema5cMOOyyjhS7eLDs0BW7evDmBMoqFE/zi0Xfx0Ucfda0mLrjgAteKI9nrgOR92cG+BABko0zHLEgf7llOgZofq3lwtFlyvCkwgMxTa4PnnnvOtttuO3vjjTfs4osvtoMPPtj+8Y9/pNy5HgAAACA53QwbAKLUzOnMM8+0n3/+2TZt2uSC6J9++smOPvpo+/3vf+8en1apUiU/NwAAAJA/gmUAZUo8YJaKFStalSpVXGuQCy+80HVcR3MoAAAAFCSng+UlS5a4E18AiPr+++/dI8QS/bxVrVrV1q9f72qb9Yi1Zs2a+SkAAADAL3I6WH7rrbds/vz5tuOOO/oUIDfNmDHDdRSH4tu4caM9/vjj9tlnn22tWQ7ULFs1znrkm2qXDz30UPc7ctxxx/k5kMvYlwCAbDRt2jTbY489Un5iB0pfTgfLTz75pLVp04YgAzmvd+/edvfdd/sxFJUC4Ysuusjeffdd91rU6Zc0atTILrnkEhco16hRw6UJeV92sC8BANmImCV30Rs2gDJBwbF6wX777bfda9Ui6z5l3b/8yiuv2Hvvvedqk6OBMgAAAJAfgmUAOS/UKOuxUWosoyu3f/3rX23mzJnu8VF6jBQAAACQCoJlADlP9yl/+eWXrub4nXfecbXL55xzjqtdBgAAAIqCYBlAztt+++3dfcp///vfrWnTpj4VAAAAKLpKt+bxr3OO7kfcfffd3bNTgVymxxntvffefgyZRN6XHexLAEA2ImbJXTndGzYAAAAAACWBZtgAAAAAAMQQLAMAAAAAEEOwDAAAAABADMEyAAAAAAAxOR0sjx071pYsWeLHgNz1/PPP+1fINPK+7GBfAgCyETFL7srpYHnu3Lm2evVqPwbkrokTJ/pXyDTyvuxgXwIAshExS+6iGTYAAAAAADEEywAAAAAAxBAsAwAAAAAQQ7AMACi3+vbtaxUqVLBnnnnGp2xr1qxZ1qlTJ/e/MOrARctKNOhzyirlXc+ePW3dunU+5dc0TfMkypv88r68mT17tq1cudKPFS6U3TC0bNkyqXKa7ZQHyosgle9gOunzlKep5m1BZV3DCSeckNJ+Lmn6/iVaz8K+04VJtTynIr7sZH6DgKLK6WC5Q4cOttdee/kxIHedf/75/hUyjbwvO1LdlzrZUoDbvXt3e/rpp9NyYqeT+hUrVtjmzZu3DhrX5xAUmg0aNOhXeaO8L8sXE5Kh8nH11Vf7sYKFIE6iedm/f39r2rRpTpczfQfPPfdcW758uU8xa9KkiY0cOdL9zxStxzXXXOPyVHl7ww032H333ZdSMBYv62EYMWKE1a5d28+VHS677DJbu3btNutZv35969y5c5F+F1Mpz6lKtGyVmYcfftiqVavmU7IPMUvuyulguUGDBrbjjjv6MSB3HXDAAf4VMo28LztS3ZczZ850/6+66ipbunTp1vF004nxeeedZ6NHj6bmI0Z588ADD9jQoUPdSTAKpvKjoK1r167Wp08fn7pFu3btbMyYMWm78FOehQtederUceMNGza0BQsWuICyvLj++uvddg8YMMCnoDiIWXIXzbABAOWOgg4FFQowWrVqZW3btrVRo0b5qZkRbeapIVq7qvVTs8JoLaHmjzdH1XvitbLR5rmJmo9qugIuNQfVPNEgVa/DezUkqqVUWpiuZXz99dd+StGoxlDBX6L8L2xbJLo+GgrLs0Rp+pwbb7xxm+azWo7mCfso0eeH/RTek6iJrZYdhjCf3hMunCjP27dv72pPFZwVdNFg4cKFNn/+fOvWrZtP2ZbKc6Kay+h2aNC6RIU8GT58+DbzJVqXwsqIxqN5GZ0ezQMN0TwNtcrKB+VHWMewbvG8jy4r0b7R52odHnnkka3zJdsEWoFNo0aNbMiQIdv8VqS7RljrcvbZZ29dx7B++aUHhW27puf3HU+Waml1kU/vjedZQWVA0/Irz1rPgsqhxL9T0e3Lb9lhX4fvlBT23dRrpanMh3zSEN0WQAiWAQDljoKO8ePHW8eOHQs8KUwHnejdc889dtRRR21tJqjPUpPZ0MwzNNUOJ4+aT/NHa6P1HOk33njDzStaV71H2yDh5FBCU0otX83M4yfTTz75pKvR1TwKAkQnifr8UKsWmkjHT4S1LaqF1zyq3bzuuuv81KJr3LixLV68eOu2hm1RWmgeqqaw8W3RukXXR/81rvVMld6ncqDlqIa2R48eLuAYN26cS1NAH22Kq/xXM1XtJ03XoPcr4IuXo1tuucXtJ82jfFUt5bBhw9y0UCOsgFDTwv5IRGVAQZyCuWQpL5RvgwcPdp+v/FS+xgOVZcuW2euvv751e9WMWPNEtyWZMiLRvFR+iOaJ7k/910WqkKcKRDWP8kH5Ea85D5ItGzJw4ECrUaPG1s9LtqZU379evXq5Fg/Vq1d3TZLzW5/iWrVqlU2ePNmtX/RCR6L0VLY90Xc8VQpI9X7t56CwMpBfeU6mHGr7lO8S3T41iVc5TPa7Er6b2m9ahgbNm+i7+dBDD7l11zxatspuPC9RvhEsAwDKHQUdOlFXrbIocBWdlBZHqPEItRQatGyd8IWgQVSLevvtt2892dOJsE7GdUIZTuZat27tahEV2Oskctq0ae7kP9TAhmbjYd0135o1a+zyyy9346LlK8gbMmSIT9lC2x4NuLR8BeZah3CyHtZJJ8JaJ82j19qWcP+olq/tSLdQg6oT53CBoUuXLm69te8krHN0ffR/6tSp+Z5EF0T3bUbLg07IFfCFz1dAH6X8V/Cl9Qr0WmnxchRdtvJV6zdv3jw3XlwqM9HypiF6sUDlJZpHIRBUYBAPCqLbq/KnACIESsmUkUB5F8ploPIfva9U/3WhIVXJlI1A66FaQwmfpwBN21IQ5YsCO33nJFyQSoUutsT3i4YQVEZFL6RFxdNT2fb4dzwdUikDccmUw0Tbp3KTqLVEQcJvY/S3MLwO0wKV+bBsldm6detuLfOAECwDAMqVcMIXPRHVyZICGKUXdiJdkFDjEWozwhANlLV8nbDHgy+dqNWqVWvriVpoCqpx1bJ8++237r7sGTNmuJNS1U5qncOJnuZ77rnnfhWsq1YzTjUu0ZNwLV/LUxPH6Hs1HoR5FAxGxbcjHbQt+nxtS6D11T4LQWZ+61NU8TwpjD5bFy9U8xjyS6+VFpfqslOhMhDKmfJNZTAIZS0euKmsqSY5avfdd98mv+OSKSOB9onyIpFocK/1SlUyZSMoaD3yo++WajIV2ClPdTHoiiuucAGdakFVs5vMb0R+HXxFfwuC/MpwPD2VbS+JMpdKGYhKthwm2r6iCL8L0X0ffuM1LSq/vAeCnA6WdQU/XuiBXKT7klA6yPuyI9l9qaaNCmjiJ24KKtU0W7Ub+dGJdPT+tvh9cMWhE8VvvvnGj205CdYJr2pkVBui16qdVI+qX375pQvsozVeOh7mF6yr5qcgeo86OVMtT/y9qdbqFIVO9OO1aImkqzY2HbQuiXoR1pAoIEqHaGuDZITgJlHgphr4UMuXjOKWEdWo6jujwFPlWe/TeqVLusqGtkUBVGgxoI6uVEurwE6/EdHa92xRUt8L7fNos/+iloF0lsOiCgF7aSFmyV05HSzrC6svIJDrPv/8c/8KmUbelx3J7ksFn4mCHJ0IqgnekFiT5SidDOqkMLynKIFkCILjJ7j6fAUT0VoVBcOqiVMTR73We1u0aGH//e9/XdAUnVcn+Douajmp0nK07QWdzKmWRp8Rn6e4J+qqsdPJtwLBQOsT9kkQr5HPb30Ko2XGa1WLQuuhz87keUhobVBQGY0KeZSOYCqZMpIf7Ttd3FGwFA2OirJeyZSN4oruV33n7rjjDnchKtqcvjRkYtsDLVe/O9GLWEUtA8mWw0TbVxThdyH63dRrpWlaaSBmyV00wwYAlBuqBVbwmah2SEGvmulperpqi/OjwFe1VOHeUn2emnhGm1WLarNENd46kRSd7KkTmnhHTzqJVw1YvBMq1X4nuk8ySp+pPIl3bhNtdqr8is+j9U/UzDtZWj81eVUzzmjtUggKo9uiDrGUDyGo1vroRD56r6Tm1fqG7VWe6QLEEB9chgAgHcK9sNEOo5Qv6r037NdkJRskhMBNy483B1aalqPyEQK6sM+iZU2UP6m2ikimjBQmGixpHeJlJ5kLIMmUjeII+1UXwgLtY9UMqkWK7qdNZltLQklve1S/fv3cfgj5IcmWgXh5TrYcJroYpM/RhYrwecl8V8LvZvS7GV6HaUCyCJYBAOVGOAHO74RJj+RRDUC8E5h0U1Csz1CT1FCbrLR4c+kQwEc769G66+Qx3mxZr3USLQo6wnJ1kppMs2DNo/s0tXy9V4NqrLTM8DlaF/WwHebRSfK9997rpiUj3vQ9rF98u/V56gxKNfBhW3SCrp50o0G11lnv13I0j+ZVvoTtVf6F5zhr+hFHHGEnnniiuz+3uLRsnezr5D9sj/JF+aN8SkUIEvT+EOjnR5+rchzNGw2heXO0Ey3RuqjmPnqfqS4Y6HO0rFQkU0YS0bQQ5If3qaZZvbtHb33QfNp/Kif5BeDJlo2iCvtVeRTWVeut4Ez5q/XVrRyFiZf1MCR61FOySmrb4/fea9B+ffHFF39VRpIpA4nKczLlUO/XcrS8MI86WnvwwQe3bl8y3xUtT+seXY72YVHKPFBhsy7P5Ch1i9+mTRtr3ry5TwFyU+/eve3uu+/2Y8gk8r7sYF8CALIRMUvuomYZAAAAAAqhlipqgaRnkm/cuNGnoizL6Zpl9RqqZiNVq1b1KUBuWrJkie2xxx5+DJlE3pcd7EsAQElSU3I1Dd+0aZPttttudsEFF7hbQXbddVc/R2LELLkrp4NlAAAAAMgU3Wt/4YUXuo7Gtt9+e/v555/tlFNOcWnqXwJlC8EyAAAAACRJvaNffPHFW5tiq8Z4/fr17hFel1xyiZ155pmuJhm5j2AZAFBmTJkyxb8CAKDkqGd09fIevXe5YsWKVqVKFfda9zYrcN5vv/3cOHITwTIAoMzQ84vnzp3rxwAAKDkKlHX/ckH0pIZrr73WjyHXECwDAAAAQApUq6znXuue5UDPdFZotdNOO7lnbZ9//vm29957+6nIRTn96KihQ4fanDlz/BiQu3g2bOkh78sO9iUAIBMUKA8cOHBroKzm1wqUjzjiCHv00Udt+vTp1qdPn62BMjFL7srpYPn777+3DRs2+DEgd+mRAigd5H3Zwb4EAJS0v/71r/avf/1rawyy884725VXXmkffvihC4pPPvlkq1y5spsWELPkrpwOlgEAAAAgE9Tsun///u51u3bt7PHHH7dPP/3U/vSnP9lee+3l0lG2ECwDAAAAQCEaNWpkf/zjH92TF1544QU74YQTrFKlSn4qyiKCZQAAAAAoRKdOnez666+3unXr+hSUdQTLAAAAAADE5PSjo9avX++aPtD8Ablu3bp1Vq1aNT+GTCLvyw72JQAgGxGz5C6eswwAAAAAQAzNsAEAAAAAiCFYBgAAAAAghmAZAAAAAIAYgmUAAAAAAGJyOlh+6qmnbMaMGX4MyF29e/f2r5Bp5H3Zwb4EAGQjYpbcldPBMh15AwAAAMhmxCy5i2bYAAAAAADEECwDAAAAABBDsAwAKJdWrlxpJ5xwglWoUGHr8Mwzz/ipJUOfOXv2bD9W8vr27euGkrBu3TqbOnWqH9uiJD8PAIBMy+lguUqVKlaxIvE+cl/VqlX9K2QaeV92pLIvFRTXqVPH+vTp4+4l07BixQp7+umnSyzYU6B87rnn2vLly31KydP2aUg3Bcq9evWy6dOn+5QtSurzACCXEbPkrgp5JwjccQ4AKDdmzZpl3bt3t/79+1u7du186hYFTSuuECwrmEz3sjMtBMtHHXWU2yYAAMoiLnEAAMqViRMnWtu2ba1Vq1Y+5RdNmjRxTYujwaxqoXv27OkCxCBR2tixY7dp0h2toQ6B8siRI619+/a/qr3WeHhfy5YtXdAeFT7vxhtv3Gb58abkWocozRP9LC0nzBsdClofDdF1CoHywIEDrUePHtvkQ/zzRO/T+/P7rLANw4cP32ZbtK4AAJQmgmUAQLkyb948q1+/vlWrVs2nFJ8Cwttvv91mzpy5tUm3AtcQvNauXdsFf506dbIxY8ZsbaqsIFPB5uLFi23t2rXuvTfccIOr3Y4HzApOW7Ro4ebR5wwdOtQF4Fqu0gYNGuQCUQWf+dH8mjcMWhcts1u3bn6OLQF1dH30XxcX7rvvPre+yje9vuyyy9xnPvzww/nmpba/adOmrqZeywr5Eg+Y5aGHHtq6LVqve+6551d5AABAJhEsAwDKncaNG/tX6aEgcNmyZX5sS3A8YsSIQptbL1y40ObPn+9qakPA2aVLFxecqgY8SoG2al6lQYMGbp7zzjvPfZY0bNjQ/U+WAtErrrjCBbKqUQ8UUEcDYP1Xc+uiGDVqlLuIEPJB66oLBQqY40F9dFsUYNetW9flKwAApYVgGQBQ7qh2OZ3UpFvBq4K8RE2N86NgUPOrs7EgBKfxdVQwXL16dT9WPApUr7nmGleLnV9Ar4A2NIlWc+tUqRZaNdTxCxPKo1q1av0qEE412AcAoKTldLD8ww8/2IYNG/wYkLtWrVrlXyHTyPuyI9l9qeBNQVy4zzZOgW6q98sqwFVtbGhCfMstt6QUNMelO5iP0nbffPPNLkhO1DmXtl3rrlrn0Kxcza3TRUHyN99848cAoOwjZsldOR0sv/DCCzZnzhw/BuSuu+66y79CppH3ZUey+1JNmRcsWGCTJ0/2Kb9Q02TdC1xYLWdBwayC0BA0J2puHKUa5XAvb5BfjWy69OvXz/2//vrr3f8offbo0aNdcKyOzkLz7KIE77qAoHvD4+9NVJsOAGUZMUvuohk2AKBc0X2xuj9WvVIrmA1C0+SuXbtu0zRZgbM61wrBdQioo7SceC/Wul9Xywn34aoJtZalQD3QvceNGjXa2nmWDBs2zMaPH2+tW7d24+mkWmOte/Qe6USiAa7eo5ryqPwC4biOHTu694Z8Vh6rtj2aLwAAZCuCZQBAuaPmx2pirKbG4b5c1XQqiA49VQcK7FTTquBa8ymwvfzyy/3ULTSP7v8N9yxrUO1wtPY23IscfdxSaL6twFPBtN6nXqAHDx68Tadb6aBA9emnn7Zp06Zts54aoutzxx13bHO/smqa33jjDRfAq0OyIATCqqnPr/Zc+RLNZ+Wx0uJ5DABANqqwWe2/ctSTTz5pbdq0sebNm/sUIDf17t3b7r77bj+GTCLvyw72JQCgJH377be2fv36lG8jIWbJXdQsAwAAAEAh7rzzTjv00EPt6quvtilTpvhUlGU5HSzvsssutv322/sxIHfVq1fPv0KmkfdlB/sSAFCSdMtKzZo17fnnn7eTTjrJ3Vby1FNP2ffff+/nSIyYJXfldDNsAAAAAMiU+fPn2ymnnGJr1qyxjRs3uv4m9Fio3/3ud3bhhRe6mmeUHQTLAAAAAJCkEDDrHuaff/7ZpW233Xbu/5577mkXX3yxnXnmmbbTTju5NOQugmUAQJlx3XXX+VcAAJQcNb3WkwJUq7xp0yafuoVqm3/66Sfr3Lmze8rCYYcd5qcg1xAsAwDKjJtvvtm/AgCg5KhWWcGyguZ4sLzDDjtY5cqV7ZhjjrELLrjA2rZt66cg1xAsAwAAAECS1Axb9yivWrXqV82w9dx8NcPu1q0bzbDLgJzuDXvZsmW2du1aPwbkrnnz5vlXyDTyvuxgXwIASlo8UK5WrZoLlJX24osv2rhx4+ySSy7ZJlAmZsldOR0sjxgxwhYsWODHgNw1cOBA/wqZRt6XHexLAEBJUqB82mmn2fLly11P2I0bN7Zbb73VZsyYYf/85z/z7QmbmCV35XSwDAAAAACZ8O9//9u+++47O+uss+zVV1+1sWPH2vnnn+/uUUbZRLAMAAAAAIX405/+ZJ999pndd999dsghh/hUlGUEywAAAABQiB133NHdo4zyg2AZAAAAAICYnA6WGzRo4K7wALmuefPm/hUyjbwvO9iXAIBsRMySu3jOMgAAAAAAMTTDBgAAAAAghmAZAAAAAIAYgmUAAAAAAGIIlgEAAAAAiMnpYPnzzz+31atX+zEgd02aNMm/QqaR92UH+xIAkI2IWXJXTgfLY8aMsSVLlvgxIHcNGTLEv0KmkfdlB/sSAJCNiFlyF82wAQAAAACIIVgGAAAAACCGYBkAUK6MHTvWKlSokO/wzDPP+DmTo/l79uxp69at8ymlZ+XKlXbCCSe4bSxp2l5td6r5VZKS2ReaJ9F+D0M070J+Kr1v374uLby/ZcuWNmvWLJcepiUjm8oLAKBgBMsAgHKnU6dOtmLFCtu8efOvhnPPPdfPlXtq165tI0aMsHbt2vkUJHLZZZfZ2rVrE+7/aN4pLxs2bOjm7dOnjwuen376aXf/4dSpU61JkyYuXUOyVL4efvhhq1atmk8BAGSrnA6WmzVrZrvssosfA3IXJ7alh7wvO9iXSLd58+ZZ/fr1twa24QJLnTp13DgAJIOYJXfldLB82GGHWd26df0YkLtOO+00/wqZRt6XHSWxL0MTWw2hmW5+TWj/8pe/FDhPdBkaQjPeQK9V4z18+HA3LcwXb1IdbRqsQa+VFp0W3hPGtczoe+JNp+PLvO+++7ZZTnFFtz2+3UE8j2+88UaXFoRm32EeDVrHsO3pFD7rlltucYPW+dlnn7WmTZvaG2+84f6HddP/6HpKvKl3NL8TNcNWfkT3eaLl6T2PPPLI1nkSbXt8P0bn0TLjn5toXQCkHzFL7qIZNgAABVCw1LFjR1ejqJrFBQsW2LBhw/zULQYOHGgtWrRw86jJrvTr18/9FwUlixcv3tr0V//btm3rgtJooLJs2TJ7/fXXbdy4cW6+QYMGuSAnBDz6r2a8qkXXdA16ffPNNxcY8Dz00ENuHTS/mhDfc889WwNWvU/vD8vUumnayJEj3fTi0LIVjElY3/79+1v37t23CZi1bgrMQ83tUUcd5dYxSvmpWt6wHM0rAwYMcP/TSTXJaip9++23u0FNrs8++2ybOXOmHX/88e5/fk2vtS1ad82j9dR/jed34UHpyo/Bgwe7+ZX/KivxgFllrEaNGlvnUfPw6LYXVjZUhsePH28LFy508ytt9OjRLq9pEg4AiREsAwDKHQWCakobauAS1cQFur+1VatW7rXuCVYAoua5UaoR1ntFgYcCEAU8IYCN36ca5knkvPPO2zpf69atXdATAkMFXnL55Ze7/6KgrbB7YLVMrbuoVlQ1HGGZkydPdhcAwjK1nF69erngv7gUmK1Zs2ab9VX+de3adetzsZXfug9Y2xHWsUuXLi7fo+L3Bod9URQKPKtXr/6r/V/cWtYQgN5www3ufmbRfwXb+a3rqFGjtpk/5L8uakQvKBRWxgorG2G/T5w40U3Tvpk/f74rYwCAxAiWAQDlTn4dfKlDpxCwBdF7VvOjWj4FX4VRLWIIzHr06OFTf7H77rsXeD+sgtpkPytK78lPomVqHdLRZFB5/Nxzz/3qwoRq64OwH6LbrfxWvieimttEy0lFfh18FbfjLS0z5GcyFOgq4FVZiOaPAlu1MogqbL8XVjbCxQUF8/pcBc2NGjWyBg0a+DkAAHEEywAAlLAQ4F1xxRVbm+eqiXVZpwAuvwsT0VriZKhZsvJQtdBheWoinctCcK2yEM+f0Nt2OnXr1s3VJqvGmibYAFC4nA6Wp02bZsuXL/djQO566623/CtkGnlfdmTrvgxNcxUQRQOgeFPuZKjmUMGVgqx0SbRMBaNLly71Y0WnZWs5Wl5+Qq1zdJ5Q4xqoqbZq5dU0OdT+x+fJBqrVDfmZjDB/UcpCXDJlQ7XIqk2eMGECTbCBDCJmyV05HSzrpIOCh7LgzTff9K+QaeR92ZHt+zIaEKmmuShNiNU8VxQwBgoiE91rnSzdj61AK3QWpSBUHY/p5K64tOx4R2ZaT62v8kAU+Oqe6mhHZupATfcVx0WDUHX4lWie0qRaWtXWqvY7bIu2W/dCh+2N0vzadpWFaAdgmjfVfZpM2Qjrp2boNMEGMoeYJXfRDBsAUO7k18GXhngvxMWlAOWOO+7Y5n5l1TTrEUTR3omTocBSgZSCsej6Ki1+r3Wy4uun2k7Vfqv5dDLi99tqCB1ladkKlEXL1TTluwJEdXoWhF6cwz4JnWQF2rYHHnjA9SodPkNUW6/1TiWolPw6+NKQKKhNhbZF2xe2RZ+jADW6vVHabtWYt2/ffus6aP+muk+TLRuqTVbnbTTBBoDCVdisG2Ny1JNPPmlt2rSx5s2b+xQgN/Xu3dvuvvtuP4ZMIu/LDvZl+ij4vPLKK+3WW29N+32zyVKg17hx43yDTBSN7le++uqr7cEHHyy1fQvkKrXc+PTTT93vUr169Xxq4YhZchc1ywAAlGOqmW3ZsuU2jylSk+yaNWtmpJmuAvNos2zROg0dOpR7akuAesFWLTaBMpA6/V7pWfG6xeSMM86wV1991TZu3OinoiwiWAYAoBxTM2A1edY9r6H5rjrOUvPpTDTTTdTEWr2GDx48mIAujcJFCTXTjj6LGUDyVKN8ySWXuNe6qKfXBx54oN155522aNEil46yJaebYc+YMcM9kzKVe3qAbBQe4YHMC/cKIvexLwEAmaBO+Z544gnbsGGDG69YsaJ75NsRRxxhF198sR1//PFWuXJlN02IWXJXTgfLAABEhRMXAABK0m233ebuRf755599Sl5gVaGCC5p1G4s6P7zwwgttzz339FORiwiWAQBlRseOHe2zzz7zYwAAlC7d5nLdddf5MeQagmUAQJkR7aQKAICSonuW1Rw72sGXapa333579/qss86yiy66yPbff383jtxEsAwAAAAASdKz+tW5V2iCXbVqVVu/fr173J3SzzzzTPeMdeQ+gmUAAAAASIIC5d///ve2adMmFySrr4yTTz7Z1SK3bdvWz4WyIqcfHaXmD0uWLPFjQO56/vnn/StkGnlfdrAvAQAl6b333tsaKO+222521VVX2eTJk23gwIEFBsrELLkrp4PluXPn2urVq/0YkLsmTpzoXyHTyPuyg30JAChJH3/8sXs2/WOPPeaCZHXcpaC5MMQsuSung2UAAAAAyATVJA8ZMsROOukkq1Spkk9FWUawDAAAAABADMEyAAAAAAAxBMsAAAAAAMTk9KOjFi5caLVq1bIdd9zRpwC5afr06XbAAQf4MWQSeV92sC8BANmImCV38ZxlAAAAAABiaIYNAAAAAEAMwTIAAAAAADEEywAAAAAAxBAsAwAAAAAQk9PB8uuvv27z58/3Y0DuGjBggH+FTCPvyw72JQAgGxGz5K6cDpa//vprW7dunR8DctcXX3zhXyHTyPuyg30JAMhGxCy5i2bYAAAAAADEECwDAAAAABBDsAwAAAAAQExOB8sVKxLro2ygLJce8r7sYF8CALIRx6fcVWFzHv8aAAAAAADk4TIHAAAAAAAxGQuWx44daxUqVHD/EylsOlCa+vbt68pnz549U+r6P93l+plnnrETTjjBVq5c6VMyT3lR2uuQn2TyR/tP+1H7Jb8hW7dv1qxZduONN5b44yeieaT9nYjyR/mU3/REivo9SpW+by1btnT5lQq9L5XtKYpMfAYAlCfhXCvRkI7juX6zi3oep/eW9DEPJYuaZaAQ+pHVj2T37t1t4MCBNnnyZD8l884991wbMWKE1a5d26egqC677DJbu3at6U6U+JCteTxkyBD79ttv/VjJWbhwoY0fP96V+aFDh6YcdCaSye9Ru3btbOrUqdakSROfUjidyDz99NN+rGRk4jMAoLwaM2bMr47nOh4ce+yxRT6O6X06DqL8IlgGCjFz5kxbunSpXXXVVdapUycbNWqUnwKUTRMnTrS6deu6Mh/Gi4vvEQAg066//npr27atXXPNNcWuYUb5lNXBcrQpYBgSNV9LNF+8uURoMvjII4+45nn5LQuICjVB+qFt1aqVnXfeea5s5feDq2bAoQyqnE2fPt1P+UVokqOyGJ1XVy+17JCmIV6O482MQ7lWupYb3peOZkfpEM0PDfl95+LrPnz48F81ow3bmszy0iV8Zjw/w/qG/aPx/PZpXHw74vOF37P77rtv63yXXHKJG2655RZXK1u9evVflY100fqpzOtqvIauXbva6NGj3XoVVSrfo/h3IFE+FjaPpsfT9Fpp0feFPNR6dO7c2eWt8jj+3ng5jk8P+0zlIP4bEOYr7DMAAOlXrVo1d8wZOXKku2gblei4oN/wQMeIpk2b2rRp06x9+/budz56LCzs2BD1l7/8Jan5oudDGuLnH5JovcPxLErvK+h8A8nJ2mBZhbFXr17udWgquWLFClcYogU5nIBImE/NMFSoExWcAQMG2ODBg918ffr08alAYqE56lFHHeV+cFu3bu1qx9RMN04/cPfcc4/7MVb5UjlTeUtEJ8zLli1z86ncKojQD7ICilCOBw0aZFdccUVSP2w9evSwjh07uvfpeyI333xzsQKc4ornR/j+Kj0IQYbSNV3z6Xt5+umn+zm20PdcTdB1wNM8GrRcNY2K/h6km5piP/DAA26fh32pdVWwo/2jYDIITYvD/rvhhhtck+Po/tNrNQfT+8J2JJpPrrvuOpcXmufRRx91w+233761+Xj0s9NJ+aqTCpUn0f+wbUWV7PdIeavf7mhTOuVPtEYgmXnilLfKY80X3qP3h++X9vOLL77o8lZ5HG3CrfKl72Uonxp0ASHR56lciOYJ3+swX0GfAQAoOXXq1LEWLVrYggULfMovx4X+/ftvc1zQ+ZSOM6LjrI6Jeq+mPfzww+4YJqkcG3QM1S1UBZ0fiM6PFi9evHU+/W/YsOE253OFHc8CvU72fAMFy9pgWQVEhTqcXIlONnRypZPmQOM66VJgHeZTwdDJiApdvMCqIHOCgmSF5qi6MicNGjRwJ8Dxmjb98Chw0w9RKF/6rx/hRNQM9fLLL3evVW5VzvVjHC3HCigkBL8FUXkPwZO+Jwoq9f3R96g0JMoPrZeCPwUU4UCkAEwHEaVruoTvb1QIqsJ+EC23OLWe+lzV0EavzIYhGoDrc7QdWm/VeOt3RQFPly5d/BxbaJ/ecccdW/efpqusDBkyxI2LXqs8hX0vYT7VJEe3Q5+hWthMU/Po6GfrIk5xm00n+z1SmdVn6TOD+H36ycwTF75D4TslKmeFBaw6fuhkSN+n6LK7devmjjs6iYqKlguVA71P8yXzHQYAlAwFyzoGzZs3z6dsOR7rOBQ9zuq1fscLO96lemxI5vwgnDdpmWG+cBzRxWZddJZkj2epnG+gYFkbLKvwaefrCk+iJgiiHa2TLe14nXxFqTYk0UlK48aN/SugYOHHUOUw/Bjqh0uBbbymLdGPl4SrmXG6UqhALV2yrVyHe1zj+RECr3B1N1HgI/HtiQZDOqCE5kehJq8odEAMV2/jQ/SCnOgAo/lV4x2/OBfE96mm169f310YUFnSoNfR8iShTMUvbui98c8oaeFgHb9IqXVWuqanKpXvkcqL8lffm/xaDCQzT5zKl04a9D/asqEwWl+Vu1Ae9F6VOy1HzfLiSmOfAQBSp4v0oaZYx2b9tusYruNSYVI9NiQ6P9AxMJwfiAJdBbw6Viq+Uas7LVMtqaKSOZ6ler6BgmX1PcsqyGpaoCaBOjFSoUkUOCeqIYoXLiBVoTmqArJo2dIFHIleeQzBX1y4mlkaEl0syiQdMPRjHs075YfyNIhe5Y3SgSVK33l997UMLVM1ygpq4zXQJUUHGF3dlfxapyQKlBJdxIiXJw2hTJU2XeTQftP6RNdP66z0onT0lcr3SPk6btw4d2Eiug7xmv7C5okLJzYqL9H1SCZw1nLD/LpgoO3RkOgiWCLKN2qWAaD06DdY50TRY3L0wrtiBt1apQBSx5ZkpHJsSPZCagi6FdPovFLrrTgoKpXjWTafb+SSjAXLOkku6ORChULTNV+UroqE2h4VQhV2XcmJBswqMGGe6MA9YSgqXdVTbVh+tY8qc9ErgvHgLgg/0OWRaoy1/fG80xCuxuZXIx6/+BDuFw7L04W0TNJ+DgciHXy07+N0n1G8WVOiiwE6IMfzQ0OoOS8t2kaV+US/p+EEItUm76l+j0QnFLraH51HB/doMJzMPImo3IT3aD9oXxYUMOtkSvfdh33GMQUAco/OHXThMpyr6dikpshqmRqOTfEWZQVJ9diQ6PwgTsdCHZMUHGuZhZ0TJHM8y9bzjVyT0WBZNWz53Qegk8pEzamjVBB172CoMdMJU7wZQ6CTpvyabwOFiXdIFKdm/qot0w+OhIs88Zq38ANd3oSmsrrAFRWu5IZgUwcu5WN8vmiQqQOMDjTxZkz6bicKWkuCgvWwPQrMdECK/7bEmzWF9Q7NoDTodaKAU8tTk6vCDqYlSdumfRE69ooKv7XxZtOFSfV7lIjut9KFl/xaIUgy88SFpvUFncTET7CCUAMPAMhu+n0PF23D/ck6VuuYHa/xDceswqR6bEh0fqBzgWgz6fwqDZPpLyR+PMv2841ck7FgWTtOV0F05SN+9V/jSo/e1K4TUQW70askoXBFg2rNI/Ge4nTFJ37jPZCsEPTG77kN1BRYJ+fhhyhcyFG5U/kTleH4Vb7yQvmh5srR3hmVT+FKbjhghc40osFnuLqqi2s6aOg3QQe0aAcXogBWgVZJC+sTOisLnWXEezrXukTT+vXr59ZZHX4Eeq00TQvC8qO/f/lRTXz8oJsuOiAnun880HdBB/JkDtxBqt8jHQvij7aIB/HJzBOnPFbzs+jFlXggH8pZNHhW+Ytvczi+FEWizwAAlJxwLI72NaIL7wp0dUwI5x7hHCUe7IbKPh17g1SPDcmcH2h99NnRSpdwfhCVzPFMinu+gYjNGZZ3UrM5r4Bt1keHIe9kafOKFSv8HL9QmqZF5807sd6cd6Lo59hC40qPzjdmzBg/dYuwrEGDBvkUILFQVm6//XafkpjKUryshbQwDBw40JX36Dxabrwc632aT9+PIHxX4suPfl/yK9eJlpcuWv/oNkaHRNsVnZ5fnkaXqe156aWXttlOiX+ulh3fTo3H3xeX6Pci0aB8D/sgvl2apnnC9ui/5skLqLe+P7/1CPsszBffT2H9EuVVWB+9T9uaLmG5hS1T6xTWN2xHovWUwqYH+kxtTyjnYTw6RL8DUtg8eh3P17DPokN8e6PzhOVF81yDtinvpGibbctvn4XlhWVJos8AABRd9Hc1PsSP30GicwEtR7/j+n2PHr+VpunR9GSODaLXyZ4fxLdD75syZcqvjs+Jtjd+PJNwHA7zxI+LSE4F/cnLQADIGqo9VG2jrvLmwtVP1YyrtjBX1hcAAACFy+resAGUbYmaE4WmTPnd5woAAABkAsEygFKjDigGDRrkHtsQHmug+1j79++fUs+UAAAAQLrRDBsAAAAAimnNmjU2Y8YM++qrr1yv2V9//bUtX77cDdttt53tuuuuW4fddtvN6tWrZwcccIBVrVrVLwHZJueC5fXr19uoUe/Yxx9/4gphpUoVbY899rBDD21lRx55pJ8LyA1jxoy1KVOm2OLFS2zTpk3ux/Oggw60Y4/t6H5UUTLmzJlj48aNt88/n+d6lt5hhx1sv/32tfbt2xX4+Dpkp/HjJ9jkyZPsyy8X2caNP1vt2nXyTj6aW4cOx1iNGjX8XAAApI/ikPfff98Fx5999pl98sknLiguCvWGraBZw0EHHWTHHXecn4LSljPB8urVq+3ee++zlStXWdu2R+cVpoPzAovd806MNtqSJYts2jQ922ySHXzwQXb55T39u4Ds1L//gLwf1enWsmXrvDJ7qNWvv6dVrFjJvv56Wd6P7sd5gdz7eeW7tv3xj71sp5128u9Ccb399igbOnSY1au3l7VufYTts89+Vq1adfvhh+/zAuhZNmHCGFu1aoX16HGOe8QVstujjz5uEyd+ZAceeIi1aNHa9tyzgVWuXDnvOLE873v0iX3wwbt5wXJ1u+66a2333Xf37wIAoOjUAak6Ih0+fLhP2aJFi1Z2yCFt3P+dd67lHlFVrVoNd9F2xx13svXrf3IX6Neu/cH9X7dubd5531KbMuWjvGPZhzZv3ly/JMubf0f3+KeLL77YGjVq5FNRGnIiWH7jjbds2LAX7dxzL7GGDRv71MQmTBhrb731ql1//R/zToQLnhfItNmz57oek48//lQXrBVkwYLP836MH7Mzzuhixx13rE9FUd188y1Ws2YtO/vs3/uU/D322L+satXt7KabbvQpyCZLliyxv/71Tjv66I7Wrl3iZysHX321yB5//GHr1Om3dvrpp/lUAACS98MPP9gTTzxhTz31lHuusdSrV99OOaWzHXro4daqVRuXVhzff/+dTZ78kX344Vh77bXh7kK+HH744XbhhRfmHcNOd+PIrKwPlv/3v1ds9OgP7KqrevuUwv3000/Wr99trlZOTSuBbDB79my7994H7MYbb0upifWDD95pHTr8xk466USfglT16vXHvMDqt4VeoIh677037dNPJ9tdd/3NpyAb6D6w227ra1de2dtq1tzZpxbu3/9+0A44oIl1797NpwAAULiPPvrIevbs6S7UqvWSLtR27tzdDjvsSNcxaUnQbadvvfW6vfjiYJs2bbJLa9OmjT388MPu9lNkTlYHy7Nnz7EHHviX3XTT7T4leRs2bLB77vmLPfRQf58ClK6ePa/IK8t9rVKlSj4leXfd1Scv4LvG9t13H5+CZN1119+tceNmdsQRR/uU5L3xxv/yfkvW5u27S30KStvll1+ZN9yQUqAc3HvvX+28886xVq0O8SkAACT2448/2u23326PP/64G//d7860//f/rrVddqntxjNl7tzZ9ve/325Tp050Tbr79OljF1xwgZ+KkpbVj4765z//Zddcc5MfS41q7k48sbPdd9/9PgUoPffc8w875ZQzihQoi2rRHnzwn34MyZo+fbqtWfNdkQJlUXP5Tz+d7mozUfoeeeRR10KgKIGyXHfdn+3RRx/zYwAA5E8BqQLl+vX3yjv+DLKbb+6b8UBZ9t13fxs48Gn7059utwoVKtpNN91kAwYM8FNR0rI2WJ48eWpe4dzbdb5TVLrJXveIAqVJndDNn7/AdfhQVOqtuW7d+jZt2sc+Bcn4z3+etB49/uDHiuacc35vjz225aoyStfkyVOsXbtj/FjRNGt2sL333vt+DACAX3v00UddT9d169azp58e5jpkLU1q7t25c7e8IPlJq1Kliv3tb3e6HrhR8rI2WH711Vft+ONP8WNFpxqlESNG+DEg815/fWTeCX4HP1Z0quV89dXX/BiSsW7dOttpp5p+rGj22quhLVq02I+htHzwwQd5JyuH+rGi69TpNHd8AQAgkXnz5rnm13r28b33DrQddtjRTyl9TZs2tz59/uYek/iHP/zB9dOEkpW1wfKSJV+5R0MVV6tWh9tHH03yY0DmqWOIVq0O82NFt/vu9fKCtkV+DIXR8w6bNj3AjxWPerxUxx4oPRMmTMwLlov/PapWrZp9++13fgwAgG2pibP6PrrttntcE+hs06nTKdalS3f7/PPP7bXXqEQpaVkbLKer3zHd27ZixUo/BmTeqlWr0nZVctOmnHgselZYvHix1a27px8rHi1Hy0PpUf7rvrF00DPNAQBIZOLESe65/R06/NanZJ+LL77c/Z80iQrBkpa1wXI6u2LfvHmTfwVkXpY/na3M0mMXUnlEV0G2266yu8qM0rNpU/p+x9VBCgAAceoBe86c2bbffk18SnZS61vdZvbRRxN9CkpKFtcsp+/EaPvtt/evgMxTRwzpQ+CdLPVYuXr1N36seFavXpW3vF38GEpDzZo72fffp6f5tO71AgAgTrfO6eLsvvtmd7As++3X1GbMmO4CfJScrA2WdV9ZOkyf/rE1b97MjwGZ16xZU5s5c7ofK57q1YveO3x5o3yfNWuGHyuezz+fZU2aZP+Bsyw74IAD7LPPPvFjxVO5cmX/CgCAX7zzzjvuv+KHbDd//uf2888/2xdffOFTUBKyNlhu376djRmzpcAWx9ix71iHDsXviRgoqo4dO7hyWFzvv/+WHX30UX4Mhaldu7atWbPKjxVPpUoV03prCFJ3zDG/ScsxYerUj+zQQ4v+GDcAQNm19957u/9Ll2Z/p57hHIcWtCUra4Plrl272HvvvenHimb9+p/yCtI31rDhloIPlIbGjRvbypVfF7vp5+jRo+z003/nx5CMY4452t5+u3iPjnvxxefstNNO9WMoLbr4YbbJVq0qXtP6114bbmed1c2PAQDwi9Cyddmyr9z/bPXFF/Pzzis3+jGUpKzu5eSoo9rnndi86MdSN2DAP+wPf7jEjwGl5+KLL7L+/f/hx1L3yisv2G9+c7QfQ7K6d+9mEyaMdp19FcWKFV/b3Lmf2XHHHetTUJquvPIKe+SR+/1Y6t55Z6S1aHFQ2m7zAQCUTT/88IONGPE/P5Z9nnnmcf8KJS2rg+Vzzz3b5sz5zCZNGu9Tkjd06DPWrFkTO+igA30KUHpatmxp++7b2F588VmfkryJE8fZ/Plz7Oyzu/sUpKJXr2utX7/b/Fjy1MHHwIH3W58+N/sUlLbGjRtZu3ZH2qBBj/qU5M2Y8bFNnjzeeva81KcAAJC/u+++zZYv/9qPZY/x48fYSy8NSXMHsshPVgfL0q/f3TZ69Fv2xhvJX915/PH+pv5bLrnk9z4FKH2XXaZWDj/bE088tCUhCSNGvGxjx46yv//9Lp+CVO2337520UUX2h13/F/eQW+ZTy3YF1/MszvvvDkv0L7Gdt11V5+KbKCLRrvvvos99NC9PqVwuqVHrZTuvz/59wAAyq+2bdvbDz98b3/5y40+JTt89923W9epRYtD3X+UrEq35vGvs1anTsfb1KmTbfDgQbbDDjtavXr1/ZRtvf326/bss//Jm/+3dtZZ1MIh+xx++GH2008/2iOP/Mv1YNio0b5+yrYmTfrQBdUNGtS3G2+83qeiqOrX38MOO6yN/etf99ucObNsr70aJuxZ/KuvFuf9hjxu06dPsbvu+lveb01dPwXZ5JBDDnEdmgwYcL9rKpffIz4+/niK/ec/A6xmzRp2yy20EAAAFGz69Ok2YsQIO/vsC2zlyhX2ySdTbPLkj/KOO63dc41L09SpE+3aay+1r79eZueee5FLmzt3tl1yySW28847u3GkX4XNefzrrPfTTz/ZM888m1doJ9vGjZts7dp17nnMOumtWnV71+v1735HRzzIDcOHv2zvvPOu/fjjT3llea1VqFDRqlWrapUqVbI2bQ61c845myY2JWDq1Gk2bNiLeQebr12e6/mEuodVza733LO+nXFGF2vatKmfG9nu9ddH2BtvvGnr1v249XtUvXo1q1ixgrVo0cLVRO+4445+bgAA8jdkyBC75pprrHfvv9jxx59s99zT1927vP32Ve0Pf7jCevT4fd7xpZKfOzNUm3zvvX+zV199ybbbbru89bjKzj//Erv11t5u3caNG2cNGzb0cyPdcipYjnv++edd4WjTpo1PAXLThAkTbOHChXmB2hk+BZmgjr9uu+02u+OOO3wKctmnn37qLqaef/75PgUAgORFg+WuXc92ae+886b97W99bM2a1bbrrru5IPrEE0+z/fdv5qaXBF3AnzDhA3v99ZftvffecheDGzfeN2897nf/5ZZbbiBYzoCsv2e5IDz3FGVJxYo5/XXMWeR72cL+BACkU4cOv7Xhw9+266/vYzVq7Oh6ou7Ro3NeMN3J/v3vf9no0e/Y118v9XMXnR4H9cYbr7pa5BNPbG9XX32JC5YPPLCl3XXXg/bcc69sDZSROTlds/zCCy+4h4dTs4xcp5rlRYsWWZcuXXwKMkE1y3379nUDcp9qlqdOnZp3EtPDpwAAkLxENctxU6Z8ZEOHPucC26hatXZxtc0adt+9ntWps6sbateu4/7rnEP3Qa9cudxWrND/r23JkkU2c+YMmzNnpq1bt84vyVwfTaed1tXOPPNcq19/L5+6LWqWM4NgGcgCBMulg2C5bCFYBgAURzLBcrBq1UobO/b9vGPP1LwAepLNnz/XTymaAw9sYS1bHmotWrSyI444yqpU2d5PSYxgOTMIloEsQLBcOgiWyxaCZQBAcaQSLMd9//13Nm3aJJs16zP79ttvbd26H9y9xj/+uM79121C6pS4WrUtg17XqlV7a5CcKoLlzCBYBrIAwXLpIFguWwiWAQDFUZxgOdMIljODnlAAAAAAAIghWAYAAAAAIKbUm2HPnDnTv0rdG2+8YXvssYcdeOCBPiV1TZs29a+A4ilOWf7kk09s2bJldtxxx/mU1JXnslzUvN+wYYMNHDjQrrzySp+SOn5D0uvzzz93+6Uo5s6d68rCKaec4lNSx/4EgPKLZtiIK/Vg+bXXXnNBQlFMmTLFdtllF3ffclEcdthhdsABB/gxoHgU8E6cONGPpeaLL76w1atXW4sWLXxKaurWrWsnnniiHyt/Hn/8cf8qNRs3brTXX3+9WMHVRRdd5F8hHRQsv//++34sNV999ZW797+o/VjstNNOeSdHXf0YAKC8IVhGHB18AVmADr5KBx18lS108AUAKA6CZcRxzzIAAAAAADEEywAAAAAAxBAsAwAAAAAQQ7AMAAAAAEAMwTIAAAAAADEEywAAAAAAxBAsAwAAAAAQQ7AMAAAAAEAMwTIAAAAAADEEywAAAAAAxBAsAwAAAAAQQ7AMAAAAoNyrVKmSf5X9Nm/e7P7n0jrnIoJlAAAAAOVegwYN3P+FCxe4/9lM61i5cmWrX7++T0FJIFgGAAAAUO4deOCB7v9nn33q/mern3/+2ebMmWnNmze3ihUJ50oSuQsAAACg3KtWrZo1atTIZs6cbps2bfKp2Wf27M9cwHzQQQf5FJQUgmUAAAAAyHP++efbjz/+aM8//4xPyT6PP/6wVahQwa0rShbBMgAAAADk+cMf/mBNmza1Bx/8u6vBzTYvvPBfe++9t12gfPDBB/tUlBSCZQAAAADIo96l77//ftuwYYPdcMOVrpY5W8yfP9fuvfdvVqtWLfu///s/n4qSRLAMAAAAAF6LFi3s3HPPta++Wpz3/3f20Ufj/JTSsWnTRhsyZJD94Q/nuHuV+/btazvttJOfipJEsAwAAAAAEXfeeadde+21LmC+4oqL7IYbrsh7vcRPzZxp0ybbWWedav36/dW22247+9e//mVdu3b1U1HScjpYnjJlis2ePduPAblr1qxZNnXqVD+GTPnuu+/s22+/dU2tkPs+//zzvJOKaX4MAICiU2Dau3dvGzVqlKtp1n3CXbseb3/60zU2YcIHtnnzZj9n+q1fv95ee+0lu+SSs11t8oIF8+yMM86wsWPHEihnWIW8HV1ye7oEqbC89dZb9sMPP9hll11m++yzj58C5JY5c+bYv//9b6tevbodf/zxduSRR/opKGkDBw60b775xj3Qnx4lc9uXX35pDz/8sG2//fZ21FFHWYcOHfwUAACK7/3337fBgwfbsGHD3HjduvXs1FO7WtOmB1iTJs1st93quvSi+uKL+TZr1gz7+OMp9uqrL+XFON9bzZo17ayzzrLzzjuPWKeU5GSw/Mknn9hLL73kguSlS5fa8OHDrWfPnrbrrrv6OYDcsGzZMhewdenSxZXf8Do8FB8l59lnn7WqVata586d7b///a97tqJeI/esWbPGfXc6duxo++23nwuajzvuODv00EP9HAAApIdapClofuaZZ1zLwKBWrV1s//2b5Q1Nbeeda+WdV1R3FSHVq9ewGjV2cPcar127Nm/4wdat0/+1tmLFMps5c4bNmTMzL22dX5K5i75nn3025yVZIOeC5S+++MKdCF188cW27777ujTVMk+cONEFzKpVAHKBfhR1gn/YYYdtrU1WLfMTTzzhLgQ1aNDApSH9XnnlFVu5cqVdcMEFPmVLLbN+U4499lifglygQ5iOCXrMR6hNDrXM2r/777+/SwMAIN0WLVpkH330kRsmTJiQF/jOtI0bN/qpydGF+5YtW7rzwdatW7v/qlFGdsipYHnVqlXuBOiEE06wQw45xKdu8frrr7ta5osuusinANntP//5j+2xxx6uPEdNmjTJ3nzzTXfxZ+edd/apSBc1o/r444/dBQndjxToSrEC5mOOOcbatGnjU5HtdGV/hx12sN/97nc+ZYvp06fbCy+84PZz3brFaxoHAEAydHuoWsAuWbLEVqxY4W71+uqrr+zrr7+2KlWquFaEu+++u9WuXdt2220322uvvdz90MheORMsq+mCTmTVPPU3v/mNT92WmkRUrlyZG9+R9Z5//nn3/8wzz3T/4959912bMWOGC5grVqTT+nRRJ2qvvfaaC6B0oIrTFWL9zvTo0cOaNGniU5Gt/ve//9nq1avdvVyJjBs3zsaPH+/2t5rCAQAApCJnzsJ1f6GapeYXKEv37t3dFRzVygHZauTIka4WM79AWVS7ueeee7p7aZEe8+bNs+eee87dA5QoUBbluaYr33UlGNnrvffes4ULF7r9lZ8jjjjCmjdvzvcIAAAUSU4Ey+rAS7Vrp556qk/J3znnnOOaWKo2Acg2qulSjXFBJ/jBaaed5v6//PLL7j+KTk2hFDDp96FRo0Y+NTEFVyeddJKbX82pkH302MAPPvjA7U+1JipIp06d3O0MQ4YM8SkAAADJyfpgWc82U7t/nRQlo0aNGm7eESNGuKAEyBa6h/KNN95wgXKyTUI1r5oGq1k2ikbPKlTgq9r6gw8+2KcW7PDDD3fzUiOZffQsZQW++p2vVauWTy2Ynk35/fffu+MCAABAsrI6WFYP1xp0UlShQgWfWrh69eq5IENNtxVoAKVNvfOGms1UOhuqVKmSe49aSkyePNmnIhXKd/Vy3b59e5+SnN/+9re2yy67uL4QkB3UQUr4Hu29994+NTk6JqiXUtVIAwAAJCNrg+XZs2e7ZynrBKco3aercx41Y9WJle4PBUqLngGrcqjnJ+sZsKlSE1IFB+rZd+7cuT4VyRg2bJh7JIOaVReFOgvUcxDV2z5K148//ugugOpZygcddJBPTZ6eo63jyVtvvWWffvqpTwUAAMhfVgbLegSUggud2KhL9aLS41/0vDItCygNmzZtcuVPz8w79NBDfWrq1LmdAmYta9myZT4VBVFQpHuVzzrrLJ9SNMp3XbzT89xRehQo65nJ7dq18ymp0+M6wvdInYMBAAAUJOuCZdXi6ERGz5494IADfGrRqRZCzV4JmFEadIKvZyl36NDBpxSdHpt23HHHuWWuW7fOpyKRCRMmuMdEKTAqru23394tR/0nqPNAZJ5aVeg+/xNPPNGnFJ2a5OseZh0T9NgpAACA/GRdsKwTGAUFbdu29SnFd/rpp7vnNL/yyis+BSh5egasapZ/97vf+ZTiO/LII61p06YuYEZin332mb366qsuwN1hhx18avHsuuuubnnK9wULFvhUZII6xVNQq0cDpkurVq3cMUbHm40bN/pUAACAbWVVsKweTnV/5vHHH+9T0kcnujrJff/9930KUHLUe7WaeaajZjNOrS4UBD7//PM+BcHixYtdQKtbOFSjn0777LOPdevWzS1fz3NHyVPHdrq/WPsz3cKzzLnwBAAA8pM1wbIe6aFHe6h5XEnQszgVuIwZM8Y1zwRKinqt1km+ypt6sy4JCtrUcd3IkSN9Cr777jsX+Jxyyimu9r0kHHLIIa52XzWSaq2CkqNH/+m4oEBZjwQsCTzLHAAAFCQrgmU9ykOP9CiJWrgoPQZGn6FHwehZnUC6qbdq3V+pE/xknwFbVPoMBRTjxo3zKeWbAtiWLVu6ztRK0m9+8xtr2LCh+zyUDD3yT/mrMq5HAZYkHRP0ee+8845PAQAA2KLUg+VPPvnE3n77bXfCoke8lDSd5OoETDVQy5cv96lA8YVnwKp8pfoM2KJQh0f6LN3TOX36dJ9aPun7vNtuu7kO0DJBtddqraLH2yG91GJC3yP1NaFHAJa0ihUruuOPOoWbNGmSTwUAAMiCYFk1cTrh14luphx88MHufrVZs2b5FKD4VJ6OPfbYIj0DtqjU07u+P+X5+ctffvmlrV+/3jp37uxTMkP5rsfc6SIJ0kcdtOmRfxoyRX1laH/S4ggAAERV2JzHvwaAnKRguUqVKn4sc3788ceMtIgBAABA5hEsAwAAAAAQk1WPjgIAAAAAIBsQLAMAAAAAEEOwDAAAAABADMEyAAAAAAAxBMsAAAAAAMQQLAMAAAAAEEOwDAAAAABADMEyAAAAAAAxBMsAAAAAAMQQLAMAAAAAEEOwDAAAAABADMEyAAAAAAAxBMsAAAAAAMQQLAMAAAAAEEOwDAAAAABADMEyAAAAAAAxBMsAAAAAAMQQLAMAAAAAEEOwDAAAAABADMEyAAAAAAAxBMsAAAAAAMQQLAMAAAAAEEOwDAAAAABADMEyAAAAAAAxBMsAAAAAAMQQLAMAAAAAEEOwDAAAAABADMEyAAAAAAAxBMsAAAAAAMQQLAMAAAAAEEOwDAAAAABADMEyAAAAAAAxBMsAAAAAAMQQLAMAAAAAEEOwDAAAAABADMEyAAAAAAAxBMsAAAAAAMQQLAMAAAAAEEOwDAAAAABADMEyAAAAAAAxBMsAAAAAAMQQLAMAAAAAEEOwDAAAAABADMEyAAAAAAAxBMsAAAAAAMQQLAMAAAAAEEOwDAAAAABADMEyAAAAAADbMPv/ISKrZIFzMxcAAAAASUVORK5CYII=;" vertex="1" parent="1">
          <mxGeometry x="-60" y="980" width="971" height="518" as="geometry" />
        </mxCell>
        <mxCell id="6DFZFS7HIfwsKLZCXP9J-3" value="" style="shape=image;verticalLabelPosition=bottom;labelBackgroundColor=default;verticalAlign=top;aspect=fixed;imageAspect=0;image=data:image/png,iVBORw0KGgoAAAANSUhEUgAABA0AAAJvCAYAAAAQkSiGAAAAAXNSR0IArs4c6QAAAARnQU1BAACxjwv8YQUAAAAJcEhZcwAAEnQAABJ0Ad5mH3gAALXWSURBVHhe7N0HmFTV/f/xL72DdBWkqiCoIKKCgAWi2GLBBEQ0iRoFJREr/0QiFqLRaGIs+ANrBDSAgqKogIIFUEREQKpUQQSU3rv//RzOWWeH2d3Z3dnd2d3363nmmTnn3rlz752Ze+/5nnKL/ZzCAAAAAAAAohT3zwAAAAAAAGkQNAAAAAAAADERNAAAAAAAADERNAAAAAAAADERNAAAAAAAADERNAAAAAAAADERNAAAAAAAADERNAAAAAAAADERNAAAAAAAADERNAAAAAAAADERNAAAAAAAADERNAAAAAAAADERNAAAAAAAADERNAAAAAAAADERNAAAAAAAADERNAAAAAAAADERNAAAAAAAADERNAAAAAAAADERNAAAAAAAADERNAAAAAAAADERNAAAAAAAADERNAAAAAAAADERNAAAAAAAADERNAAAAAAAADERNAAAAAAAADERNAAAAAAAADERNAAAAAAAADERNAAAAAAAADERNAAAAAAAADERNAAAAAAAADERNAAAAAAAADERNAAAAAAAADERNAAAAAAAADERNAAAAAAAADERNAAAAAAAADERNAAAAAAAADERNAAAAAAAADERNAAAAAAAADERNAAAAAAAADERNAAAAAAAADERNAAAAAAAADERNAAAAAAAADERNAAAAAAAADERNAAAAAAAADERNAAAAAAAADERNAAAAAAAADERNAAAAAAAADERNAAAAAAAADERNAAAAAAAADERNAAAAAAAADERNAAAAAAAADERNAAAAAAAADERNAAAAAAAADERNAAAAAAAADERNAAAAAAAADERNAAAAAAAADERNAAAAAAAADERNAAAAAAAADERNAAAAAAAADEV+zmFf40k8/7742zatC9s+/Ydpq+pVKlS1rhxI+vc+TyrX7++nwvIO6tWrbLx4yfYkiVLbe/efVasWDGrUKG8nXHG6XbxxRf5uZAdW7dutXfffc/mzp1nu3fvdnlly5a1k046yS655CKrWLGiy0P+++mnn9zxecGChbZnz96U/4FZuXLlrFWrU1K+q4utdOnSfk4AQLJYunRpyjXMh/bddyts3z5dwxS3ypUrWtu2Z9r55//KzwUgFoIGSejll/9rs2d/Y+3anZtSGGvvCmbBd98tt48/Hmfbt2+1P//5T1anztF+CpB71q5dZ//5z1NWvnxFO/fcC6xBg0Z+yiFffDHFpk79yJo3P8H++McbfC7iNWDAw7Z16zb71a8usmbNTva5h8ybN9s+/PA9q1btCLvnnr/4XOSHnTt32j/+8U87cOCgdep0kR1//Al+yiFff/1lyvF5gtWrV9duu+1WnwsAyE/Lli2z//u/56x69Vp2zjnnp1w7H+OnmO3fvz/lGuZTmzZtip1++ml29dVX+SkAIhE0SDJ9+/7VWrVqY+3aneNzYtuxY4cNHvyEXXrpJSmFuLN9LpB4kydPsdGj37Ibb+xjlSpV9rmxTZs22aZPn2yPPfaoz0FGVqz4zp544knr0qWHNWp0rM+NbenSRfbWW8PtzjvvsGOOqetzkVe++WauvfDCy9ajxw121FF1fG5sc+Z8bR9+ONYeeKC/Va6c8X8GAJB71IJv0qRP7E9/6mslS5b0ubF99NF4W7Bgjv3jH3/3OQACggZJ5O67/2KXXdbV6tdv7HMy99RTj9hvf9vFRUeBRJs582t77bXh1qfPPT4nc6tXr7Q33hhmjz9O4CAjW7Zssf79H7C77rrP52TuwIED9sQTf7eHHx5gFSpU8LnIbStWrHQtbe68816fk7mtWzfb888/lfK+f/kcAEBemjTpY/voo0/spptu8zmZW7Bgbsp73rN//OMhnwNAGAgxSTz77CBr2/asLAUM5NZb/5JSqPufTwGJ9corQ7MUMJA6depZhw6/sieffNrnIJaHHnrEbrjhzz4VnxIlStjvf3+zDRjAxUxeeuqpp+2227L2P6hc+Qi7/PLudt99D/gcAEBe2bt3r7399jtZChjICSecaM2bn2JDh77qcwAIQYMkoEHPlixZZqed1s7nZM0FF1xuzz//gk8BifHyy0PsvPMu9qmsadXqdFu1arVt27bN5yDSZ59Ns2OOaWBVq1bzOfGrWbOW1a5dx7788iufg9z07rvvW8uWp7mATVY1bnycFS9eyvWnBQDknaefHmhdulztU1lz9tnn2VdfzfQpAELQIAmMGjU6pXB2iU9lXfPmLWzu3Pk+BSTG7NmzrEWL1j6VdRdeeJm98cZon0Kkd94Za5dfnv3Blq644iobM2aMTyE3ffTRR3buuZ19KusuvbSrvf76KJ8CAOSFlSu/t4YNMx4rKCPt23d052oAhxA0SAK6U8KJJ7bwqeypVeso+/HHH30KyJlNmzZZ1ao1fCp7jj++mc2bRzArll27dvlX2VOiREl3K1bkvpyO+lOjRk1bs2atTwEActuSJUusUaPjfCp7dPeyL76Y7lMACBokgT179vhX2aemzitWrPApIGe+++67lN9UQ5/KPt0HGWmpO1LFipV8KvvKlCnrBkZE7vnhhx/syCMzvlNCPHQvcABA3tD1cL16Ob+G2bFjp38FgCuZpFDMP2df2bLlXGEESAT9llQozbmc/7YLm0P7tpxPZZ/+84kIOCJ9ifquihfnVAsAeUWt+XSOzCluMAf8giuZJFAsAeUq3d7riCOO8CkgZ6pUqeJ+UzlVrBgn3Gj6nyZi3+7Ysc3Kly/vU8gNifquDhzY718BAHJb1apVE3LsLlGCYhIQ8G9IApUqVcxxNPPbb+dbkyZNfArIGf2Wli5d5FPZV758Bf8KkfbuzXkLgf37KYjmtmrVqtn69et8Kvuyc+cFAED2NG3a1BYtmudT2bNt21arWbOmTwEgaJAEzj33HPvoo/E+lT0HDuyzMmXK+BSQM2pOndNWAlOmTLSzzmrvU4hUt24dW7PmB5/KulWrvrMGDer7FHKTgro5Gbhy3rzZ1qLFyT4FAMhtNWrUsI0b1/tU9nz88Xjr1KmjTwEgaJAEOnY8177++gufyrp33x1tF110oU8BifHrX19iY8aM9KmsmzZtil1wQfZvVVeYXXttD3v99SE+lXWjR7/mloHcd/XV3W3EiP/6VNaNH/+29ejR3acAAHnh7LM72EcfTfCprFu8eKGddlr2bzsNFDYl7k/hXyMfadC5994bayef3MrnxGfNmtX22Wcf2003/dHnAIlRv359e/PN0XbUUXWtcuWsjZcxfPh/rUOHdta4cSOfg0gVK1a0RYsW2ZYtW6xu3ay1GJg69SMrV660nXVWB5+D3FSzZg379NNPrVSp0lar1pE+Nz7jxo2xhg3rpRzXT/I5AAor3ar4q6++srlz59qsWbNs+vTpNmXKFPv888/tm2++ccf85cuX2/fff+9aL9WqVcu/E7nhhBOa2pAhr1izZidneWDn559/0n772y529NFH+xwAxX5maNCkMWjQc3bgQDG79NKuPidjP/64zoYOHWyPPfZIygVtKZ8LJI4OD3fccbddffX1cd96Ti1f9u/fZX/60y0+B+n561/7Wdu259opp5zmczI2Y8bnKY+p9tBDA3wO8srdd/8/u/DCK+y4407wORn79NMPbdmyhXbvvf18DoDCZP369TZ58mT77LPPXGBg6dKlfkp8NFhfmzZtUs4Bbe3MM89MKdw2s2KJGBkbqRSY79//AevZ83arVKmyz82YWpbVrl2D1nxAFIIGSWbo0Fdtzpy5dv31vTO8l/ukSeNs7tyvbcCA+61s2UTcGg+ITQPu3XPPvda06Ul23nkX+9zD7dq101544Wk74YQmdt11v/e5yMyDD/7dypevZN26/cHnxPbaay/ZgQN7Ur6Lv/gc5LV+/fq7ljeXXdbN58T20kvP2BFHVLY+ff7scwAUBtu3b7e33norpWA5wmbMmOFzzbVCatbsJDvuuCZWoULFlEcFNxCwHhpvatu2bbZz5w7bsWN7ymOH/fDD9zZ//jeuCXyglgddu3a1q6++2ho2bOhzkVMbNmy0hx/+h512Wjtr1+5cn3u4jRs32JAhg6xt2zb2m9908bkAAoIGSWjlypU2ePALtnv3HjvppFZ2zDH1rXTp0ikHvp/cSebHH9fYOeecbZdffql/B5D73nlnrE2c+JHVrKmLo5OtRo2atm/fPvv+++9s9uyvUi6MSrluMg0aNPDvQLw++2yajR492sqWLW8nntgqpWB6tOnIrO5H33wz0/bu3W2//e2VdsYZp/t3IL9MmvSRjR37rlWuXDXlu2rpCgsHDhxM+a5W2ddfz3ADiKqG6qSTTvTvAFDQzZw50/773/+mnAffSbk2221HHnmUde78azv55FNSjgMtrGrVan7OrJsz52t3bffJJxPtq68OjW912mmnueDBVVdd5dLIuREjXnctQo4+up41adLcqlWrYXv27E655l5mc+fOtooVy1vv3jdb7dq1/TsARCJokMT01XzxxZc2Y8aX9u23i+yiiy52F6J16sTXTBzIDWvWrEm5yPnG3n//PWvUqHHKxc3pdvrprbmtXAKoKeXXX89yBVPdH/qcc86xU05pmVJAja9ZJfKOmibPnj3bPvjgQzviiKrWrt2Z1rr1qVauXDk/B4CCToHxf/zjHzZo0CArX768nXvu+XbxxZdbq1an50pXgnXr1ti7777lHrpLTsuWLd1na4whJMZ33620+fPn25gxb6ecX09JOW63slNPPdVPBZAeggYFwJIlS+yLL76wHj3oX4XkMXz4cHfCbdKkic9Bonz0kYIGJeyss87yOUhW7777rquZat2aUbaBwmTx4sV20009beHCBXbuuefZPfcMsCpVsjYocE6MHPmqPf30Y1ayZAn7+9//TquDBHvxxRetc+fOVrduXZ8DICPcchEAAADw1q1b51p36k4H99//iD366NN5GjCQrl172GuvjXF32Ln99ttt2LBhfgoA5D2CBgAAAIB38803u4ELn376Rbvoost9bt7TmFYvvvg/q1evgd133322YsUKPwUA8hZBAwAAACDF888/7wbMu+GGW6x585N9bv4pXbqMa+mg8RV69uxpBw8e9FMAIO8QNAAAAABSPPfcc+6OVb///U0+J/81bnycdex4vs2ZM8e++uornwsAeYegAQAAAIq8Xbt2uXEMWrQ41QUOksnpp7dzz/PmzXPPAJCXCBoAAACgyFNNvpxxxpnuOZm0b3+2e547d657BoC8xC0X89D+/fvt/fff96n4rV271t36p0OHDj4nflWrVk050bT3KeBw6rupe85n1dSpU61hw4Z29NFH+5z4nXfeeVa2bFmfKryWLVuWrVohXRQWL17cmjVr5nPid/LJJ3NP72z45ptvsjXI2MyZM61KlSrWuHFjnxO/tm3bWo0aNXwKQH775z//aU888YTdeuvdds01N/jc5NGu3Ul21FFHudtw45APP/zQtRDJqkmTJlmLFi2sevXqPid+v/71r/0roOggaJCHFDQIUeysUFM5FTx0P9nsaNWqlX8FHE6Fnuz44IMPrEmTJlavXj2fEz8VhotK0GDz5s0+FT/1WS1RooS1bNnS58RPF0AEDbJOQQMNNJZVn332mVWrVs2aNm3qc+Kn/w5BAyB5DBw40P7+97/b+edfkvL8uM9NDitWLLOuXS+yunXr2pdffulzkd1rmHfeecfOOOMMq1Wrls+JH9fVKIoIGhQAS5YscVHlHj16+Bwg/w0fPtxOOeUUFzhAYn300UcuaHDWWWf5HCSrd99912rXrm2tW7f2OQAKqhEjRthtt91mJ5xwor3yyhs+Nzm8//7bdt99fV2AUucI5MyLL77oKuMUhAGQOcY0AAAAALxFi+bb4sULfSr/6TaL//vfK+51hQoV3DMA5CWCBgAAAICnQnq/fndmq8tSbnj55UG2cOE8K126jJUpU8bnAkDeIWgAAAAAeGef/StbsWKpPffc0z4n/yxZssheeGGgHXVUHatUqZLPBYC8RdAAAAAA8K64oqsdf/wJNmTI824cgfXrf/JT8s6BAwds+PAh1rPntS79+OMDrVixYu41AOQ1ggYAAACAV6JESRs0aIhdeulv3ACEV1xxng0e/JRt3rzJz5G7xo9/190p4d//fthq1aptL7zwPzvuuKzfoQUAEoWgAQAAABChYsVK1q/fAHvuuWFWo0ZNe/HFZ+2SS862Bx/8qy1Z8q2fK3G2bdtq//3vcymfcY7de++dtm7dWrv55tvt1VffsubNT/ZzAUD+IGgAAAAAxNCyZWt7880P7B//+I+dckprGzv2Tbv66kvtuuu62lNP/dMmTHjXvv9+pZ87fjt2bLcvvvjMXnnlObvzzputU6fT7dln/23Fixez3r3vsLffnpTyGT1T0iX8OwAg/xT7OYV/jSS1ZMmSlBPLF9ajRw+fA+S/4cOHp1xAnWJNmjTxOUgU3YO7RIkSdtZZZ/kcJKt3333Xateuba1bt/Y5AAqqESNG2G233WZPP/2SnXHGmT43rTVrVttbb71un3460ZYuXexzzSpVqmzHHdfEtVAoX76Ce1SoUNFKly7tWhHs3LnDBQr0vG7dOjfQYlC1ajU7/fS2dtllv005lrTxuYe76KIOdvzxx9moUaN8DrLrxRdftM6dO1vdunV9DoCM0NIAAAAAiIPuYnDzzbfZ//73jk2ePMuef/41u/POftahQ0fbs2ePLVw438aNe8dGjx5uQ4e+4Lo1jBw5zLVQmDnzSzeoYr169e3GG/9k//73IHv33U9t/PjPbMCAf2UYMACA/ETQAAAAAMiiMmXKWosWraxbt2vt/vsfsZdfHmljx35s06cvtPHjp7rxCF56aYSNGTPJ5X3wwTQXbHj88Wdd0KB9+3OsZs1afmkAkLwIGgAAAAAJVLVqdXfHgxNPbGFHHXW0zwWAgomgAQAAAAAAiImgAQAAAAAAiImgAQAAAAAAiImgAQAAAAAAiImgAQAAAAAAiImgAQAAAAAAiImgAQAAAAAAiImgQQGwfPlymz17tk8ByWHWrFm2bNkyn0IizZ071+bNm+dTSGZff/21LVq0yKcAAAXBwoULbdWqVT4FIDMEDZLcDz/8YF9++aUdffTR9uGHH/pcIH999NFHVrt2bfvqq6/s+++/97lIBAVjdu7caVu2bLFvvvnG5yIZTZs2zcqWLWsrVqywb7/91ucCAJLZe++9Z3Xr1rWpU6fa+vXrfS6AjBA0SGLbtm2zUaNG2YUXXmg333yzLV261L744gs/FcgfM2bMcBH6nj172q9//Wv3G1UBFzmn//i7775r11xzjV199dX21ltvuZZGSD5qCaILzuuuu866du3q/gdr1qzxUwEAyWjy5Mm2bt06u/XWW61Dhw7u2L1nzx4/FUB6CBokMR3IWrRoYaeccoqVKVPGrrzySnewmz9/vp8DyFsKFkyaNMn9FsuXL+9+n61bt3a/1QMHDvi5kB0//vij24/at3Xq1LF69eq518qjJiS5rFy5MvW7ql69uh133HHWuXNnl7d9+3Y/FwAgmagln7qU6dhdrFgxO+OMM6xx48bu2A0gYwQNkpQOYDVr1rSzzjrL55jVqFEjtRBBPyzktdWrV6cWlGrVquVzzdq1a+e6z3DSzT51R9D+69ixozVt2tTnmjVr1oyakCSzadMm931cccUV1qBBA59r1qpVKzvppJP4HwBAElJLPnVL0DVM5cqVfa7Zr371K1cJ8s477/gcALEQNEhC48ePt/3799vFF1/sc37RsGFDu/zyy92FqS5egbywdetW95vTb1JR+WgXXHCBi9q///77PgdZoX2rYIFabUSjJiR57Nu3z9544w1r06aNCxBEO/vss11wl+8KAJJHaMnXpUsX15Ivmq6rN2/e7MZrAhAbQYMk89lnn7lWBIqEpkcXq6effro7ACq4AOSmn3/+2f3W1E2mZcuWPvdw+s2qT/eUKVN8DuKhcQuqVKli5557rs85nGpCypUrR01IPtP/oH79+ta2bVufczgF1hRcmDBhgs8BAOQXteRTsDe6JV80XcMsWLDAjdsE4HAEDZKIRkrXQIc6cJUsWdLnxnbmmWfaMcccQ40Wcp1+Y7pTgprJZ6R48eLut6s7KnCL0PhMnDjRduzYYZdeeqnPSZ+aw6sm5OOPP/Y5yEsaoLJUqVJ2/vnn+5z06X/w3Xff2eeff+5zABQEOo8lMwXxS5Qo4VOIh65hTjjhhJgt+SKpi4KO3Tovcxtd4HAEDZKEbtn15ptvugNW1apVfW7GNPCWTh7qowXkBnWVOXjwoF100UU+J2OqMddvWDXiy5Yt87mIZfr06bZ48WK3v+KlppUaCJWakLz16aef2k8//RT3d6XgguZV0GDu3Lk+F0CyU0siWbky+e5as2PHdtuwYb0bJBfxiaclXyRVkOjYrUCDbnkO4BcEDZLAhg0b3AFKB6qsngz0Ht06RndVABJJt5P7/vvvXUE1K3Tv43DSVT9CHE5NID/55BO3n3Sf/3hVqFDBvYeakLyjkbbVckb7PSuqVauW+j9QqwMAye/EE090zwsWJF+wL6xTrPFUcListOSLdOyxx7pbnevYrVufAziEoEE+04joOjBpBPrmzZv73Php8DldmOo2MnoAiTBnzhz78ssv3W8rs64ysagp4DnnnON+27t27fK5EI1Zov2ifas7pGQVNSF5Z8mSJTZu3Di3vytVquRz46day/Bdbdy40ecCSFZqol6vXn1buHCez0ke8+d/456zc61Y1GSnJV8kjeGkW0rr2K0uIQAIGuS70aNHW6NGjdxo3NmlW8eoNljdFHSRC+TE8uXLbcyYMe5ke8QRR/jcrDvttNOsSZMm7qSLQzQmgfaHaj70v88uakJy39q1a93+1f9AtxTNLtVcagwaLWvv3r0+F0Cyuv7661Kupb61jz76wOfkv61bt9jw4UNcwEAFWqRPXfiy05Ivmm55rttL6zodAEGDfKV+3zqgaWT0nNItZEKNlrorANmxfv361IKSBtrMKY1WrBpaBSGKugMHDrh9q2DKySef7HOzL7ImBImlJq3arzo2H3/88T43+xQUbtCgAd8VUADcdNNNKYXzE+2++/raihX5PzbPwYMH7K67bnG32X722WcZCDEDasmnQv5vfvObbLXki6bxnHSXMo3vBBR1BA3yiUZA1wlAI6Inimp1O3Xq5C5MdYsZICtCVxndJaFZs2Y+N+cuu+wyVxs+adIkn1M0ad8quKeuSImimhBdGFEYTSztT9XonXrqqT4n58477zwrU6aMjR071ucASEbq9jlw4DPu1ql//GN3+/TT/Dt3rVmzOmUdrrZZs76yO++8IyFBzMJKLfkUMFBLvoYNG/rcnFMlioIRuiU6UJQRNMgHuiXdvHnz3IEo0XRLGfUnpxCBrNJvpnHjxnbGGWf4nMTRb10D92mchKLo/fffdxeiF1xwgc9JnIsvvtjVhEyYMMHnICd0FxvdwUZjciSaupFp4Fs1nQWQvFQJM3r0KDf4rGr5+/W7w7Zt2+qn5o033njNrrrqEluwYJ795S9/sT59+vgpiBZa8ukaOBEt+SJpXCddw+iW6Lo1OlBUlbg/hX+NPPDtt9+6+31fffXVbnTt3KAIq0br1gjtTZs29blA+tRVRifGeG+tmFW6BZ0GhVM3herVq1uNGjX8lMJvypQp7v+o/7wCB7lB/3MVRHfv3p2QbiVF1YcffmhbtmxxTVtzi8ajUIBH/7ejjjrK5wJINmoZ1r17dzdW1IQJ79vo0cNdC9H69Rtla2DUeOzduyflPDnKHnjgLzZ27JvuGDFixAjXYi+3zh+FwRtvvOFa3alLZG4oV66c+z0MHz7cXcvkZLwnoKAiaJCH1qxZY//73//cBWm4F3BuUZRcLRp0b/GcDLiGwu+jjz5yt0bs1q2bz8kdqrHRBdDIkSPdb1IDeBZ2ulXftGnT3IWnLjpyS/HixV2wUAHJihUrujssIGtUi6RAq4I72bljSLxKly7tAjuqFTvyyCNdEA1AclKXossvv9zat29vGzast9GjX08pOL7i7q5QqVLllP9vTRcUz6mFC+fbkCHPW//+fW3SpPGuAHzPPffYU089xfE8E2rJp64kCqzkpipVqrgKD1Wy6Bpbd9oAipJiP3MvkTw1c+ZMa9WqlU/lLtU6agRwDcAFpEd99VRwyasToArSGsCvKNi6dasbz0E1FHlh5cqVrgWTAgfIGgVYVZOXV61g1OpMx2YFEQAUDN9//70999xz9tpr/7MdO7a7vIYNj7WmTZtZs2Yn2bHHNkk5/lZKOZ9WcIFyPcqUKevufqABVvWenTt32I8/rrU5c752wYf58+e6FgaiblG9evWys88+26WROd1aUV0rFTzPC6oIyMkdz4CCiqABAAAAECcFADSgtYLgesyZM8cNxJdVJ510kuuDr1uzKlCQyAH8ACCRCBoAAAAAOaCWXhr/QC081eVPz7oFtlp9qouBuiPpvv96rS5KiR6wDwByE0EDAAAAAAAQE7dcBAAAAAAAMRE0yCVTp05192TXPbmj6X71nTt3ds9AbtJvrGXLlun+FmPRfJpfv+GcGjBggHvktURuQyLEsz5hHg3GF+uhwbF27drl585/Gsgv3t9UVmk7tb3a7vT2WVZ+W9n5H2RVdn7rubkPtVwtHygKMjp+5vQ8MGvWrCwfe8P6JMs5KDfoeBe5n3NyfI0+fmbneJod+n50boi+Hg/njFdffdXnHJLV71XLibzej07HS78//Q6B/ETQACjEZsyY4fpPqm/luHHjfG7euffee90D8ZsyZYqp11j0Y9CgQbl628as0AXTrbfe6lOJp77By5cvt/PPP9+GDh2a42BJXvwPsvpbz819qAvbHj16uDtCAEVJ9PFz4cKF1rt378MKf/HS+3TsxS9CwXn16tW2c+fO1H2t45/uPpOIQEleXTs0bdrUjTWxfv16n3OIzhmaNnny5DTnH/2eRNPyij7/9ttvt3nz5vkcIH8QNAAKKZ1odML73e9+Z1deeeVhJz8gWemCTaOI33XXXe72VgoiZBf/A6Do0v30Bw4caI899liWa3cR27PPPmvt2rU7LJCtPAVtFKQpKPtat5rWrW9XrFjhcw6dM3RHjO7du7vgdeT5R/Np/ry6RTWQTAgaJIkQuc2smVdkc7BYTao0/YknnkhdViIiviiYZs6c6QpcrVu3to4dO6Zb+Ir+7Q0ZMsRP+YVqW9RcvG/fvqnz6bcW/d7o31t0E8OwHN3nOrwnvd96XtDFQWgGn9666D+m/1qYR+se3bxQ2x2mh0d2a7YyE/a51jsUfsM6hs9UWusYuZ9jHS8y237NrwsnHVM0XfNOmjTJ2rdvb+PHj09YrVIkfb5aF3To0MFatWrlaoEURMiueP8H2ndhP+gR/f1Ff8eRv2uJ/q2H7ynMH7lvtaz09qGWEfk50d9bZv8hPauVgZatz4heT6Co0XFE99WPPo5kdtzW62uuucYGDx5sbdu2TfM/zOx/Gqh2OPL8Eet4Gc+yMjv+iN4T+Vm58d/XZygw0LVrV5+TVqx9rfUIj7BuOoZlFLwN8wfxLiN6P0Ufx6Mp6KFzTWQwWeeHVatW2amnnuqC16EVgqZrPs0fgiWZ/YbikdF5WNPUykC/Qf0WM9tvQG4iaJAEdADo16+fXXvttanNvBSxVTQ3CAcVCfMoet6tW7fDTi6vvPKKPfnkk6nLQdGkwp1O3vXq1Uv3oin89vQ70e9FTQ31e1KBI5pOWi1atHDzqYneqFGjXOFEJ0jlDRs2zJ3Qw8kuPVpOhQoVUj9PUfvI33pe0XpeccUV7gJA66KH/oPapsgCWJ8+fezuu+9203XxMHr0aHcbrUD768EHH3T7JCxH+yK3araqV6/u/t8q/Gpd9B2qUK9adK17oHXUdK2z1knboG2J3LbMtl8WLFhg27dvd9NVs6SCty4aFZTQshN9jNF+VDcCFfK1rVqnnLQOiOd/oAs/BSrCvtI6KHgWvr/o71jz6T16xJLZMV2vY+1D/Zcim/zqWeur7zdy+zP6D2mfaTlatj4jL5r4AslMBbw6derYsmXLfE58x20dC5XXs2dP+/zzz12rBYn3fyo6Bk+cONHNF6sWPp5lxXP80WtdD44YMSJ1OVpuZME7EfTZKtgq2BlLrEK49O/f3507wvqrxl77JisyW4b2pbZX08I8Oq4rPyOhpYH2mej80KxZM6tbt6773egcIpoeWhpIPL+hzGR2Htb+1G9Bv0EtO5m6KaLoIWiQBMKBKFJ0fy5FPrds2WK33HKLzzl04amCwsiRI33OIeECGUWXTja6iNDJRyeYcCLXCTSyQKhaWP32wu9K8ymqreBANBVCFAEX/b70O9PyVUiRcCLNTORywnrp4ib6Yiu36USvde7SpYvPMfdaeaHfu54j59G2RhfCdCGpIEu4oBQVeNWHPjtUOxxqHCIfkReI+iwFAfR96vuK/A4jaV3D9xO9bfFsf6ALtbyiCzQd18L+1L5UgES/1ayK938QffyN/k518RkZKNI+1T5KL2ASzzE9Fl0oRl4UhvWNliz/IaCgiv6PS7zH7Xj/pxJ5DI51zRbPsuI5/ui4qXNC2B4tR+cGBSriLcDGS+eIrDbPV6FXQVvR+mvdI4M48choGTr2KVARub/1rHT08T6axieoWrWq28+iZYZznp51DtH7dc6UMJ5BTn5DQVbOw0B+I2iQBHRg00Wtmh6pcBDZNCnQwWz48OEuuhtZkFDkNZoio+EEhKIp+uQmOpmpBjdMExVsoi8A9BtTk/Bo2blQiCVRy8kpbbtqbLUu4f+k18oLdPEQ/X/S/ol1UaD/rP67Wo72e+RFXlboIi/UOEQ+oguo4cJC6xt5oRRoHSNrg7QNkbVt8Wy/RC8nN2kf6gItMkgRAlShticr4v0fhAJ4OL5G10yFFgpajqZnVnsXzzE9I9oH4TvRMqIly38IKOhyctzO7H+qgmj0sbNRo0YxA3wZLSuz44+WpWWG40145OQ8lBGdO0KtfLwScV2a0TJCoDY66K50ZnS8VssCtTDQ70H7Mpwz9BwCClq+zsPR59qc/IbiPQ8DyYCgQS7RiUIHmvRUq1YtzclE0WYVDEKkU9MiLzR1YAlNWaMLE5nVXqFo0QWEIuuKgIdCUDiZaXCf7BS+CiMVnlVzoYuN6P+U/o/xUi2O+pFqX6ugqPerQJqV2obsiKzNDs9ZkajtTyTVrOh3G3nhFy6gQm1PvLLyP9BFoD5b264moOHiOwQPdKGq2kBNV1BHwVpNzyh4kNkxPRZ9nparJsz6DYX1AZB9oVAdGYzMyXE7kf/TeJaV2fEnnAv0Ps0T+dBt+iJrwnNK+0vLDce1aNrX0f3+84LWR8HgWEF3HdujC/rRFMzROVHfgYSgrJ6rVKniAgqarvmCRJz7k/E8DKSHoEEu0UFEYh1YdfDRQSgclCKFi9fwvnAAU82SDojpHaiBQF1Z1Jw71slTFxUaiyA0V9TvShcbOmEF4eRb2OnkH73t0WLVCmn/RNYk6P+sWiAtJ5zko+fJDaEP+1tvvRWzD6U+P/J4ES6cw0VPPNufl8LFpvqIRv9udRzUbzIrzTWz8j+IFAr7mifWWAqqadJ0LTeeQEZ6x/RoYfv1uZEX+rqoBJB9oRteqD2W7B63s/I/3bRpU5pjsGi+UGOenf98rOOPriV1Ls+LY4XWUUHdkVHdYoPIgWfzkq651UJS33N2aH3nz59v06dPTxPw0LPS+p40PXK7EnHuT7bzMJARgga5RBeKau4UOfCY6CJVF/iKSoaDkqarBiqySWy4sAwnudA8LXJwnFjvA8KJLPT9ixROeJpHNI8uNkIBVL8t/cZUE1vY6b8jkYMwhpoDXYyJ5tEJPQy2pP9crNrlyJO+lqFao9yk9VOhVwMiXnbZZa6fbKxBuLSu4fijbdB6hu2OZ/vTk1ltU3aokK/bW8UalTt0UYhViE9PVv4HOoZqf4R9FS7mw8Wj9of2S2SQQS0VYjVVlXiO6entw8gLf70/Vhe0zIRCRHYvoIHCIhyPdc0V/V+N57gdK7Au8f5PI4/B4bgdfYzLbFmZHX90jNL26X2Rx+7o41qiaPwcfU70SP7KU0BBg3QnsnVDPLQftA+iA+ja//HccUDHYwV5NJB4dMBDvwG1dtP0UCEY5PTcH895WN9vZNdCIL8QNMhF6jagg5gOMmpKpocuGHVA1cE+0MFOF/862IX5dOBRXjjJ6aChQoHoglDzaLlaPk2YEOjiQE2y02saqBO5Cpih8BV+V6qB1m9Kvy3No64whUF0/0Y9QqFf/y1dVOnEHKZF/z+j/5v6z2ksgcjmh/r/af7wP9cI1lpGdm8VGGud9QgXf+HCJHLQK13E6eLl8ccfd2nROmpdw3rpd6HtDceUeLY/PSrE61ZUml/LSISRI0e6ZcYaxDVcFKsGS8GFzGT1fxD9Hep/oIu0cGzVNO1vbW/YV/rP3HXXXW56tOjfjR7Rx/Tofaj1fOihh9J8H1q/CRMmxL3dgZalbVc3C27RhaIk+vgZjmnR10nxHrf1ftF8+m9m9X+qY3CnTp3cfDoG6O4G4bgd77LiOf5oHrU+iNz+6GN+omh5aj2lY0y4HtVD51YFQbUu+UHfaaz9pGucWOeBSNomrbcCzdHnIC1P10SaHrkv4/0NZUTLi+c8rK41CgrlRhAIiFexn1XVAQCIiwrt999/vz3zzDMJvxhLFK3jrbfeak899VTqBSoAAACQHbQ0AIB0qAYgMrKvGlvVWqjrUbIGDAAAAIBEImgAAOmIbn4Ymq1zxxIAAAAUFXRPKAD2799vq1atcv1fgWSgw8bSpUvt2GOP9TlIJLVsUJBCt2ZFclu8eLEdd9xxPgUAv9i7d6+tWbPG6tev73OQDPbs2ePuchBrDB0AsdHSoABQk+g333zTp4D8d+DAATegE3KH7l4xb948n0Iye+211/wrAEhr69atNnbsWJ9CstCdEN5//32fAhAPggYAAAAAACAmggYAAAAAACAmggYAAAAAACAmggYAAAAAACAm7p5QAGjQOY2mXqtWLZ8D5C8dNjTy8JFHHulzkEjbtm1zd0+oWLGiz0Gy0sjoRx11lE8BwC909ysNulezZk2fg2Swb98+27Jli7udMoD4EDQAAAAAAAAx0T0BAAAAAADERNAAAAAAAADERNAAAAAAAADERNCgANBAOkuWLPEpIP9pKJRFixb5FBLtp59+coOfIvktXLjQvwKAtPbu3WvLli3zKSSL3bt32/Lly30KQDwIGhQAu3btsrffftungPynO3q88cYbPoVE++abb2z+/Pk+hWQ2YsQI/woA0tq6dau9//77PoVksXnzZpswYYJPAYgHQQMAAAAAABATQQMAAAAAABATQQMAAAAAABATQQMAAAAAABBTsZ81DDqS2sGDB23Tpk1WvXp1nwPkLx02NLp/jRo1fA4SaceOHVasWDErX768z0Gy0p0uatas6VMA8AsNGrxlyxarVq2az0Ey0F3Jtm3bZlWrVvU5ADJD0AAAAAAAAMRE94RCQrdl7NWrl02dOtXn/EJ5F1xwQb7e9z2sX07WQ+/r3r27LVq0yOeYvfrqq265Wn5uirV/tR6dO3dOsz45peVHb09ebSMAAAAARCNogDwxc+ZM10RPTcHGjRvncwu2Jk2a2Pjx491zburRo4cNGjTIypUr53MAAAAAIG8QNCiiVHutPtN6tGzZ8rDa8lCzHuaJrunW/H379nUPTR8wYICfEtukSZPskksucY/JkycfVmseq9ZeywzLVSsDFZ6HDx9uTZs2TVPjr2DE9ddfn7qu2rZoGW1vaMHw3HPPpc4T2SJC63r77bfb4MGDrX379qnLj7XOeq3lh+VEr4vWO0yL/hxN0/L1OVdccUVqvpYRvf8jlxPr+9N+e+KJJ9zyw3yR+wwAAAAA4kHQoADQgC0LFy70qZxT4XHo0KG2fv16N6DdwIEDrU+fPocVkjt06OCm61GnTh17/PHH3fRgwoQJ1qJFCzf93nvv9bmH03Lnz59vrVu3do/ly5fbypUr/dT4aBBIFZ6vuuoqty/atWvnp5gLJPzpT39y6zFlyhR77LHH0hSi9T4FKnbu3Blze0UDTao1hObRo0GDBvbss8+6aarhVwG8Z8+ebvkKXsSi5Wm5Wr4+R/tX+zkU1vXcu3dvt/5huoTP0TZp+fqcN998M92BL6OXo8/r1q3bYYGDV155xZ588kk3z7Bhw1wgIXKbc0LLnDdvnk8h0datW+cG2EPymzt3rn8FAGnt2bPHFi9e7FNIFrt377YlS5b4FIB4EDQoAFSIf++993wq8VRYVZeBUEhV4Vm6dOninuWWW25xBf/Igmnt2rVdECAzWnaVKlWsXr16rim/atNHjhzpp+acCtmtWrVyr9UK4cgjj0wtkKuQPHbsWBcECc37tb1hmyNde+21bh49FDBZvXr1YS0iMqLlKdgQ1kX7U3khwKHnWbNmpXZn0PQwLV5aHwUi7r777tTlaBlXXnnlYftUeWEefU+RgYqc0ojQb731lk8h0RSQSWSgELln1KhR/hUApKUR+lXBguSyefNmmzhxok8BiAdBgyJIhVoVbnW7vFjN1lesWOGayOt2b6Fpu+ZdsGCBnyN+KuSqlj8UyKVjx47uMxNV650RFZK13gomhG3Ro3///n6OxFm2bJlrkRG2Mz2RXRiyuh5qBaHvR99fpEaNGvlXAAAAAJA4BA2KIBVqNbCeap4ffPBBV/Mf3S9etfehOX94RNaSx0utFsJYAKHArtcaQDC6pj+3qEVEaMof+Uivm0FuCcECBTBCFwbtfwAAAABIVgQNCgkFAlTLrVroaKFmWi0HomksAgUH2rRpYzNmzHB5mlfvUX5OaQBEFYyjC+zKizUgYqKF1hSJapafEdX2Z9SlQftXXQa0/VntlhDoOwzfTyS1cgAAAACARCNoUIio2X/0IIDqAqA+8OqjH5rNq2tA5Kj9GpRQgxOG8QlC94UwQJ9Evycemlfv03pF69q1a5oBEUPhPgQutA2J6CuscQPUNSJyEEA9a1uiu2XklJapwnwYE0LBA931IPIOCpFBBeVntXuCvkNtT+T3rO3QvtI+BQAAAIBEImhQAFSoUMHdUjAzqr0eMWKEG0k/dAVQYVytCSKb4ms+PUJBXc3lVXgNXQ9UMH3ooYdcYTQsR4VuFXLTG9E/ltD9QMuPpkERGzZsmDp4n5ar9bzmmmvc5+luBRp8MZLmadasmVteZEE8M9r2yO0N+yQrtf3aJwq8qGtFuA1kNK2f7lagOxvoc9QqQK0/wr4PA0uGsSLUOkB3NdB+DgENbZsCD23btk0T/Imk9Vb3Bs2r5ejz9L1ntetITpQoUeKw7weJo+//tNNO8ykks1tvvdW/AoC0qlat6q5rkFxq1qzpbrUNIH7FflZbaQAAAAAAgCi0NABgf/vb3+ykk06y0aNH2969e30uAAAAgKKOlgYA3L2k77vvPnvzzTddlwcN2KguMSeccIKfAwAAAEBRRNAAgKOxFDSY49atW6148eJ28OBBd0eI6667zn77299a5cqV/ZwAAAAAigq6JxQA+/bts3nz5vkUkDt0x4z333/fKlasmHprzKVLl9r9999vzZs3txtvvNE+++wzN6+mzZkzx71G4q1Zs8bWrVvnU0hms2bN8q8AIK3du3fbwoULfQrJQnexSm+waQCx0dKgAFDT8YsvvtiOPfZYnwPknu3bt9vnn39u+/fv9zmHqNuCDhe6I4QCCOvXr7d+/fr5qUikSZMmWalSpdwdO5DcHnjgAde1BwCi6TypuxvpLkdIHmvXrrUxY8ZYz549fQ6AzBA0KAAUNNAJp2PHjj4HyD3Tp0+3t99+2w4cOOBzzEqWLOmCBsccc4zdfPPNdumll9rTTz9N0CCXEDQoOAgaAEgPQYPkRNAAyDqCBgWAggbPP/+83XHHHT4HyB0vv/yy9e/fP7WVQbly5dzrX//61/bHP/7RTjnlFJevvEcffZSgQS4haFBwEDQAkB6CBsmJoAGQdYxpAMAZNGiQ3XPPPa6FQZkyZezoo4+2v/71rzZ37lwbOHBgasAAAAAAQNFB0ACAvfTSS67GVHdNOO+882zYsGH21VdfubELuGsCAAAAUHTRPaEA0Fe0Y8cON6o9kBvGjRtnCxYssGuuucZq1qzpczOmbjOVKlXyKSTSnj173LNafCC56RalBNYAxKJbF2uk/goVKvgcJAO1qNSdLfhegPgRNAAAAAAAADHRPQEAAAAAAMRE0AAAAAAAAMRE0AAAAAAAAMRE0KAA2Ldvn82ZM8engPynwZ1mzpzpU0i01atX25o1a3wKyWzGjBn+FQCkpcH25s2b51NIFjt37rT58+f7FIB4EDQoAHTS+fDDD30KyH8KGrz//vs+hURbtGiRLVmyxKeQzN59913/CgDS2r59u3388cc+hWShu95MnjzZpwDEg6ABAAAAAACIiaABAAAAAACIiaABAAAAAACIiaABAAAAAACIqdjPKfxrJCl9RRoMsVy5cj4HyH8afbh8+fI+hUTSHVOkVKlS7hnJi/8BgPRo0OC9e/da2bJlfQ6SAd8LkHW0NCgAihUrlmnAYNeuXdarVy83b/Rj6tSpfq6iIeyLeLY71n4bMGCAnxq/DRs22AUXXJDQfa1ldu/e3Y2kH+h1586d0+TlFwpKuUfBAgIGBQP/AwDpKV68OAXTJMT3AmQdQYNCZsqUKa5lQngsXLjQevfuXeQCB/FQwOD222+3Dh06pO4v1RrqHvkKJGh6smnSpImNHz/ePQMAAABAbiNoUMipcDlw4EBXe66a6yC6hj1W7XqoPY81T6wab02Pnkc15WPGjEmzDOW3bNnSpbX8yPUSBTjC/HpEBzy0jCeeeCLNuoV5QiBg8ODB1r59e3v11VddfiwrV6605cuXW+vWrX2OuRYder/yNT2SlhU+T+ufWW1/9D6OFYiI3Bd6hPXVPunRo4cNHz7cmjZtmrp9mj96v0d/T9HbrHTfvn3TrEtG+wUAAAAAAoIGRYAKnVWrVrX169e7dChY16lTJ03temSBX/P069fPrr322jTzZLWwuWDBApszZ05qq4dRo0ZZnz59bOLEiW6ZDRo0sHHjxvm5DwUMtB5a1/CeBx988LAC+iuvvGJPPvmkm2fYsGHuPSo8q9CvgELPnj1dqwsVvNNTo0YNV4AeOXKkzzkkVm2+tnvy5MlunfWZCsRoO6IDHkHYx5GtGLS/H3/8cT/HocK+lqFlabq2eejQoW4fVK9e3X3mVVdd5fZBu3bt/LvSCsGF8D2FZUR/T4899ljqPNovSmcW9AAAAAAAggYFgAZrmTlzpk9lnfrcVqlSJTVooGWtWLHCbrnlFpcOtesqTIaCZJhHNdiieQYNGpRhITyW2rVrW9euXd3revXqWZs2bVzhVYViLVOF6mXLlrnpKmirwHvvvfe66aKC++9+97vDCvZXXnllaqFeLQVCgTkr9BkKPCiQEWrgY7UgUMF87Nixbh9pnUWFeD0iAx6RwvfVpUsX9yza3/Pnz09dvt6roEmrVq1cWuujvPQCBLGEZYTP0TK0/7QfIwMaCqKEz1EQ6cgjj8zy/oqkQYSmT5/uU0i0VatW2Q8//OBTSGZffPGFfwUAaem6Zvbs2T6FZKEKoG+++canAMSDoEEBsGfPHvv44499KucUDFBBM3IAL9W6V6tWzadiz5MoWm4sOojrc9WtIBTi9bjmmmv8HImnwMOsWbNSa+B1clehOrIrgQrXajGh/Mj16t+/v5sei7ZDXSS0/8L82sdaTqBgiVofhEBEdsRahj5HLUtyk4IGH3zwgU8h0RYvXmxLly71KSSz9AKHALBjxw53bYHksnXrVvvss898CkA8CBoUASqMb9myxRUmCwKdYFWIj3yo9jy3qYZfn6UggQr9ka071GJC3QSi1yujlheq3Q/dGcJDAYrIbg8AAAAAkMwIGhQBKuxu2rQpNWigmn4VilWgDVRQ3rhxo0/Fnie3qVY+fG5eUL//WIMTRq+H9ptaCmSlOX88+69Ro0ZunIjoz8+KWMvQeur7BgAAAICcImhQyKn/vG65GDlOgPq2q1D77LPPurQKnBo8UN0CQi14mCey6a0GGwyDJYaC9IwZM1xan6OxAXJCTew13kHkIH1aNxXsszoAYzw0XoMK9pGDE0r0eA7ab1qvMNii6FnTo+/sEETvY9G8ek9YRvj80KIhO9saljF69GiX1rK1nmHcCAAAAADICYIGhUz0eADdunWzESNGpBlcT4VzBQlUQ615VLOufvGRXQA0z0MPPeQG1AvL0vx33XWXmx4G3NN4A5qm5YWBFXNC63n33Xenjh+gddNgiVkZgFHrrvdoX4QgRyzahjfffDN1P4SHtln5kYVufb7WLQRL9KztT2/QwrD/FCgIy9W6KCAQlqtnDcSooI6mh+8hbKumN2vWzO2L9AIJmkfTwvek9VLAIKsDVgIAAABALMV+VkdrJDV9Rfv377dSpUr5HCD/6a4epUuX9ikk0oEDB9xziRIl3DOSF/8DAOnh+i058b0AWUdLgwJANcgc2JBsKCjlHgULCBjkveeff96OOeYYGzZsmBv1PB78DwCkh+u35MT3AmQdLQ0AAEixe/du+/e//20vv/yya0FwySWX2B/+8Ac77bTT/BwAAABFD0EDAAA83X1EA4yuWbPG1UaVLFnSjR1y/fXXW/fu3a1atWp+TgAAgKKBoAEAABF+/PFHO//8893dSNTvVTS46b59++yss85yAYRzzjmHLiQAAKBIIGhQAKiZ7OWXX25VqlTxOUD+27x5sx1xxBE+hUTS7TdVy122bFmfg7y2Z88e++qrr9zxN1L4XipUqGA33HCDtW7d2t2pBQCi6Vi+YMECdxtmJA+NWbN48WJr2bKlzwGQGYIGBcC2bdusT58+1rlzZ58D5K+DBw/ae++95/p8I/F0kala7OOPP97nIK9988039sorr6S2NJDixYu7wbPUXaFXr17ulra63ex9993n5wCAX6i7k257rVsrI3msXbvWxowZYz179vQ5ADJD0KAAUNBAo3rfcccdPgfIXypIPfroo9avXz+fg0SaNGmSK5x26NDB5yAvjRs3zgUF1NpA1LJAv/lOnTrZjTfeaO3atXP58sADDxA0ABATQYPkRNAAyDpuuQgAgPfGG2/Ydddd57olaBwDtSpQS6+ZM2faf//73zQBAwAAgKKAoAEAACnefvtt+/Of/+xen3nmmTZ48GCbM2eO3XbbbVazZk2XDwAAUNQQNAAAIMXRRx9tf/rTn+zLL790LQ7OO+88N44BAABAUcaYBgWEBp7j4hXJhN9k7gmHZY3Uj+TG/wBARjhGJCe+FyBrCBoAAAAAAICYCLEBAAAAAICYCBoAAAAAAICYCBoAAAAAAICYCBoUALpf+LRp03wKyH8aQGjy5Mk+hURbvny5rVy50qeQzD755BP/CgDS2rlzp7sbC5LL9u3b7auvvvIpAPEgaFAA7Nmzxz777DOfAvKfggaffvqpTyHRFDT47rvvfArJ7OOPP/avACAtBQ2mT5/uU0gWChrMmDHDpwDEg6ABAAAAAACIiaABAAAAAACIiaABAAAAAACIiaBBAVGsWDH/CkgO/CZzj/Yt+7dgKF6c0yiA9HGMSD6cY4GsK/ZzCv8aBdiuXbvs9ttvt2uvvdbatWvnc/PHgAED3PO9997rntPz6quv2jXXXGNTpkyJa53jXW6Q1fmzK+z7wYMH+xyzBx98MFufq32ybNmy1PcuWrTIbr31VnvqqaesSZMmLg8AAAAA8grhT+SLDRs22NixY+3uu++2oUOHuoJ3oqngndsBAxXq27Zta3Xq1DHF38JDLrjgAredOaFAwfjx4wkYAAAAAMgXBA2KmKlTp6Y2y9JD6UgqBLds2dJNU6H3iSeesF69eqUp1KsGP3IZoUY/KxYuXGhVqlSxq6++Ot170kevy+rVq/2UQ9M6d+7sngMV0Lt3756ap/WKXDdN13LSW+/MpkfTPtH+UeAjOjihtFpPPPvssz7nUCuCsE7hMyL3f2h50b9//9R9Hms7I79D7Z/IaaLla70ityX6ewYAAACAeBA0KEJUcFSBcv369a42XAV3NaMPhU4Vmvv06eMKwZr+5JNP2iuvvOKmBXq/Cu+697DmUdcCFXKzWiidNGmSdejQwdWgN2zY8LD75WqdunXrZgMHDnSfo0J4ZPP/evXqHfa+EIjQtGgqgPfr189139DytP7aDhXURdveo0cP9zmxpseiQIcCHq1bt/Y5aXXt2tXmz5/vlh1oXzVq1Mh9hta3d+/eqftOnz9s2DD3nQwaNMjKlSvn8iNpXr1H79UytH+0n6IDB/re9P1pHi1T31vkegAAAABAPAgaFBEqNKsbgArF1atXd3kqsP/ud7+zkSNHurQKog0aNLAuXbq4tKZfeeWV7nWg90cWaJs2bepqwrNCBVwFG1TY1nJUkNe6RRZqFQxo06aNtWrVyqVVa6/CdKD3KegwefLk1FYQIRARq7A9c+ZMW7Fihat9F82j7VBBXcaNG+c+I4ytoOkap0BdKNIrbCv4olr8GjVq+Jy0Qr7mC3r27HnY/tV6xyN8hwrqhO4KWl8tI3yHgfLCPNrPCh5ErgcAAAAAxIOgQQGwZ88eV8jOCdWcq9Dcvn371Cbreqg5fKDp6psfWehWrXgsqoEPBWb1uc8KBQS0HqFQq8CDKGgRaDDAzNZFheHQtUEFe9Xqp1frr21TQKR8+fI+Jy19nloBRO4brdemTZv8HIkRa5vUoiEEPjISvkNtR6T0vqPcdPDgQfvoo498Com2dOlS910j+U2cONG/AoC0duzYYdOmTfMpJIvt27fb9OnTfQpAPAgaFAB79+5N2MFNwQfVOkc+1HogXiFYoBpv1VzrkZWWBirc672RBfQQeFB+PIXnILKLQkZdE+KllgzR+0YtEELLjGhab82TXg1+yE+vJUJBpqDBZ5995lNItO+++85WrVrlU0hmOQ3oAii8dE3z1Vdf+RSShYIGX3/9tU8BiAdBgyJCNeyqoc6o9lLTo2u9VQMfKF/dAXSRnFFhOiOhNYEK1JGFcy1T0fgwIGKsGvjIdRHV2IcuCmPGjEm3a4KEbVdtfSxZqfEPYo2rEEldBpo1a5ZmP8XapujWB+lJ7zuM3i8AAAAAkCgEDYoIFUo1dsBjjz2WOmieCq8apT8M9qfm+CqQjh492qU136hRo9zrSKHQqvdrcMGsdE9Q/331w48OOGjsAo1hEArgGntAn6OxCEQDAKp1QjR1R1CwQdsV3Ww/kpav6Qp2BBocUA8Jnxe2XbRfou8cEUn7VOMe6LPDcgKltc633HKLzzlEgzmGbQpjO2jAxHjE+g71GfqO4l0GAAAAAGQFQYNCJnrMAj3C6PwqrGsQPQUHlK+aa9XOh8EAVZDXiPsqlGq67qTw+9//PrUmPLKQHN6vAfc0uF88g/mFIETHjh19zi+0bK1LGBAxrIvuFKDPCgMARlNtv4IN6iIRxkaIRct/6KGH3HK0PD1U63/XXXe56dHbrodaMOjWhXpvejQuw+eff+6WFd6nh8RqjXHVVVfZM8884+bR+ioQEsZ2EAVBtI8UxIg1AKO+Q90xIXyH2j8jRoxIswwAAAAASJRiP6ttOJKa+l69/PLL9uc//9nn5B3Vtqv5e1bGPUBs2pfxBCIKgv3799u///1v69u3r89BIn3yySdWqlQpO/PMM30OktXDDz9s99xzj08BwC8U/FdFwE033eRzkAzWrVvn7o51ww03+BwAmSFogFRqkaBm9SrcqoZcJzu1QlDAINyKENlXmIIGiJ9anFx33XWupctvfvMbq1y5sp8CAAAAJD+6JyCVAgN6aLR/NX3XMwEDIGc6depkf/3rX+2RRx6x5s2bu5oNBY+I1wIAAKAgoKUBAOSyrVu32iWXXGJLly516dKlS1vFihVdC4Srr77ajjzySJcPAAAAJBuCBgCQBzZv3mwXX3yxrVq1yvbt2+fyypYt68aHOP30010LhPPPP99KlizppgEAAADJgKBBAXH55Zf7VwAKKgUI5s2bZ7t37/Y5v9A4F2qB8Ic//MHuvPNONxAiAAAAkN8IGhQAe/bssf/85z92wgkn+Bwgf+mwMXfuXDvppJN8DuKxePFid2vP0NJAihcvntpdQSNsd+/e3TZt2mQlSpSwRo0a+bmQrCZMmOBaiABAtB07dtisWbMYGyrJbNu2zV3DtG3b1ucAyAxBgwJAB7fnn3/e7rjjDp8D5C/VmD/66KPWr18/n4PMaPDDa665xvbu3evSoWuCLiYVLDj33HPdAKQyadIk19KgQ4cOLo3k9cADD9h9993nUwDwi/Xr19uIESOsd+/ePgfJYO3atTZmzBjr2bOnzwGQGe6eAAC57IMPPrBu3bq5gIG6IVSpUsVuvPFGmz59ug0fPtw6duyYGjAAAAAAkglBAwDIRZ988okbp0CNulq1amVPPfWUaxZ5zz332FFHHeXnAgAAAJITQQMAyEV169Z1QYOpU6fau+++6269yB0SAAAAUFAQNCgA1GxZ/Z+BZKJm9shc48aN7aGHHsrSoIYaz4C7JxQM/A8ApIfrt+SkAYjLlCnjUwDiwUCIAAAAAAAgJloaAAAAAACAmAgaAAAAAACAmAgaAAAAAACAmAgaAAAAAACAmAgaFAB79uyxiRMn+hSQ/w4ePGjjxo3zKSTaokWLbOnSpT6FZPbee+/5VwCQ1vbt2+3TTz/1KSSLrVu32pQpU3wKQDwIGhQAe/futdmzZ/sUkP8UNPjqq698Com2evVq++GHH3wKyezLL7/0rwAgrd27d9s333zjU0gWO3futHnz5vkUgHgQNAAAAAAAADERNAAAAAAAADERNAAAAAAAADERNCgAihUrZhUqVPCpjA0YMMDNHx69evWyXbt2+almGzZssAsuuMCmTp3qcxLv1VdfTfO5Wic9An12WD/Nm1Xahu7du7vB4vKTPr9z587proe2X/sh8vsIj9zc//GK/l6yQttQsWJFn0or/Maif3tB9O8DhytTpoyVLl3ap5DMKlWq5F8BQFrFixeP+/oNeadEiRJWvnx5nwIQD4IGBYAKZz179vSp9IUC4M8//5z6qFOnjl1xxRWuICfVq1d3o963a9fOpfPCvffe6x7BpEmTbNiwYW79evTo4XMLL43QG/mdLFy40Hr37p0UgYPs0gm3T58+PpWWfl8NGjSwFStW2MyZM30uskL/zzPOOMOnkMzuuOMO/woA0qpWrZr94Q9/8Ckki5o1a9q1117rUwDiQdCgkFBQQIXQjh07+pxDbrnlFvesgqpEtzRQLblq7ceMGZNaC67gg/Jbtmzp0po/BB1E05977rnUWnTNl1Gtf6jRDjXv/fv3t2uuucYt94svvjistl7rFv2Z2aEa7bBNsdZRnxOma7369u2bGniRWC0FstMyIlqTJk1s4MCB7rMitzH68yLXJchomzLb3lg0Sr/2dfR7wrpEbm/0bycWvW/y5MnuZKyCrwJEAAAAAAouggaFhJpZqXZ36NChruAWxNOyYMGCBTZnzpzUWvBRo0a5WuSJEye629JoudH35FfLBxUM9R4VgLt165ZpIbVcuXI2aNAge/DBB11LAy3z5JNPtoYNG9qMGTP8XIdaImjZWvfsUmFXhVetf1hHbVMopGtdVdsfWgHo8x577DE3TbQPb7/9dtdSQ9P10DprnngK45lp2rSpVa1a1davX+/S0Z+n9VaBPjJwoMK6vl+9J3qbMpqWkcGDB7tWIOE94XvUd9WhQwe3D8PvSb8N/RZatWrl0rGsXLnStmzZ4rZPASytV2brAAAAACB5ETQoJFTIe+ihh1yTcAUQQo1zRrXCQe3ata1r167udb169axNmzaphfZQeFy2bJmbHqjgHwIRKkTqPZEF/3hFF05VwJw/f761bt3az5F1WsbYsWNdIVzLF62rHiH4oXW98sor02xDZBcQvU8BjshuFVon7atE0HdUpUqV1KCBmvHruwstQ/T5Wn8FNVSI175RUCAymBK2J1ZwJaNpkTL6HrW9y5cvd4EAUTBH31XYp7GMHDnSmjVr5j5Xy4sVcAIAAABQcBA0KERUUFMBTbXGqhVu0aKFtW/fPltN/VXYy0ijRo38q0MFXNWQRwcW4qXCqWqnVbuuQvQxxxzjghfZpWWo9YRqu0PwRA91iwi0rrG2IRbV9uv9Wt66det8bmIpYKB9HjkwT40aNVx/SNG+CfPEEgroek+8wSLJ6HvUd6BWINqfClps27Ytw2BOCPiEAJSWF91aAQAAAEDBQtCgANi9e7dNmDDBp+KjfvOzZs1Kt3tBMlHhVLXuCnSollvBjoxqs+OhFgFangIokY+sDLwYggXqJqD9qOUlqqWBlqdAiQr5iaD9pZYR2ka1HlCwKN5xDdITCv1qYRBaG4RgzsGDB11rjkj6jQ0fPjxNsEZjV6gLBAMiZo2CXosXL/YpJLO3337bvwKAtLZv387YPklI11+ffPKJTwGIB0GDAmDfvn02d+5cn4pNNcuxWhRE1x4nSuTyVIusgnVkrXVWhMKpBmOcPXt2jromSKhtD03/Y9G6xtqGINSaK1CgwnhOgxjRtNxNmzalBg0U2FFLAgUTAq3/xo0b3eswZoXmyYy6VGg58XQZyex71Heh/fDee++lCeYoaKDvKtB71aIg3BUjPLQe6vbBRVPWrFmzxtauXetTSGZff/21fwUAaanSR0FgJBdds+g6DED8CBoUEqF5er9+/dzBMFBNs/rFhybjiaLBEkMtduiPr6BFdqlwqtYUW7duzVHXBFE3DfX9j7w7gZ4jR/7X52kbQlrboBrxSCrUh8CD3q+BBRPRPUH7TYMwqnAfxhwI39+zzz7r0voOn3jiCddiQK1GVFjXNmlcg7BNWk6480R00EgtAzQeQWYBmMjvcfTo0Yd9j6EVyCuvvJLhstL7vLDeWr+wbgAAAAAKDoIGhYQKZ6oRV6uCyIEQVdB97bXXXMEzkVSLrWXrM1QAfvLJJzMddC8jKpxqmZkNtBeoQB89ZkFkc3x1Q9AAf6HVgZ5VSA+D/oXbHqpQrukqjN99992ptezaFs0fpnfq1MmljzzyyCwP+BiWER66Q8GIESNS10W0zQoSqKZf8+g71Hepzww0vwrgYZu0/RqnQduiaZHbGzktI7///e9Tv0fdGSL6e9R66TvRd5NRMGfkyJFu/INY82hdhAERAQAAgIKn2M9qQ4ykpgHonn/+ebvjjjt8Tv4KtwGMLNDmlGrW77vvPrvhhhsSHuCIl7ZLQYOsjHtQFOj2lRK5X/bv32+PPvqoa9mCxFN3jlKlSrmADfLOnj17bO/evVapUiWfk7kHHnjAHbsAIJpaK6qSQJUrSB7q/qcusZF3zQKQMVoaFADFixd3TcQLs+iB9nKbCsK9evVK7cqhFgrqxpFZc/6iRvsn1jgTaplwxBFH+BQSrWzZsu6BvPXSSy9Z8+bN3QW+BpKNR9WqVf0rAEirRIkSVrlyZZ9CstD3kpXgMABaGiAbEt3SQMtT33pF4/OqlYEKw7fffnvqOAYa5C8vP78g0DgE6lqhwQ1pfYGiQAOPXnLJJW58DrX0qF+/vt18883WpUsXgjgAAKDIImgAAIAXBk398ccfXVcFjS+iu4VoLJIbb7zRGjdu7OcEAAAoGggaAAAQQQED3ZlELQ8UOJDSpUu74MGJJ57o+sFefPHFrjUCAABAYUfQoIBQk9lw8QoAyF379u2zJUuWuEE/o2lMD40zo4FbNUCtxp0BAAAorAgaFBAffvihfwUAyG3vvPOOjR49Ok3QQMEBPWrVquUGUlWXBQY5AwAAhR1BgwJg9+7d9tFHH9mFF17oc4D8pWbaKlRddtllPgeJNG/ePCtZsiQDc+YT3eJWA7SqtYGoG8KBAwfsvPPOc+MatGvXzuWLAgsaKBEAoumW2dOmTXPHDiSPLVu22FdffWUdO3b0OQAyQ5vKAkAXrgsWLPApIP8paDB37lyfQqKtW7fO9atH3nv55Zetf//+7rirVgXVq1d3XRB0C8b//ve/aQIG8s033/hXAJDWnj177Ntvv/UpJAvdQWvx4sU+BSAeBA0AAEgxduxYu+eee9xrBQcUJJgzZ47ddtttVrNmTZcPAABQ1BA0AAAgxZFHHml/+tOf7Msvv7Q33njDNSlmkEMAAFDUcTUEAECK1q1bW79+/axu3bo+BwAAAAQNCgDVdFWrVs2ngPynW87VqFHDp5Bo5cuXdw8kP/4HANJTokQJq1q1qk8hWWig4SOOOMKnAMSDuycAAAAAAICYaGkAAAAAAABiImgAAAAAAABiImgAAAAAAABiImgAAAAAAABiImhQAOzatcveeecdnwLy34EDB2zUqFE+hUSbO3euLViwwKeQzF5//XX/CgDS2rZtm40bN86nkCw2b95sH3zwgU8BiAdBgwJg//79tnjxYp8C8p9uurJw4UKfQqL9+OOPtn79ep9CMps/f75/BQBp7dmzx5YuXepTSBa7d++2ZcuW+RSAeBA0AAAAAAAAMRE0AAAAAAAAMRE0AAAgD2h8ml69etkFF1xgGzZs8Lm/UJ6mTZ061efEFuYrVqzYYY/M3ltQLFq0yDp37uye06NtjbUPtI+1r4sK7Yd4tzn8BiP3V3q/x2QWvc3x/ncAANlD0KAAKFGihNWqVcungPynC83atWv7FBKtYsWK7oHkd+SRR/pXmZs5c6Zt2bLFqlatmuPB0bQMjSui8UXCQ+nevXsXqYJTz549befOnWn2Q506dez2228vUoGDeCgA07ZtW+vQoUOa/XXttddap06dMgzQJLvq1au7/1S7du18TnIoWbKk1ahRw6eQLEqVKuV+MwDiR9CgAChfvrxdc801PgXkPwWy/vjHP/oUEu3000+3U045xaeQzFRojdekSZPskksucY/JkycnvFDbpEkTu/LKK23FihU+5/Ca5QEDBvgpsWtnNT1yHhUk+/bte1iNbqzlidLPPfectWzZ0j1CQTSz94nywvQXX3zR52bdXXfd5Z5Hjx7tngNtZ1h+5LpFilyHyBr4WPvq1VdfTVPbreV1797dxowZk7oMLU/5+rzoZQZaTpg/er3CMp944onUeSI/U+vTvn17Gzx4sF1xxRWHLTvQ/FrG3XffbT169PC5hyit382MGTN8ziGR+0uPyG0XbZuWGfm9Rs+T2feubY9cRnh/9GdH7jdNi97m8DmRn5/Rb1/02fptR86jvEQ64ogjrFu3bj6FZKGAwW9+8xufAhAPggYAAOQyFWp0p4XWrVu7x/Lly23lypV+au5QoUk17qp5V42yauRXr16dWnjShbNqZkOQQeuoQpfmCYVSFSRbtGhh5cqVc9NVwLz33nvTLC+6oKXC+sSJE23WrFkukBHP+7ROytM0PbZu3Wrr1q3zU7NG66ra9MjR0bVdaoURWmcMHDjQFeYiC+han7AOoQa+X79+qfsiHrpV6pw5c9z79Vm6NW2fPn3c/tByGzRokKaViT5TAaTwmVovza99FmiZ27dvd9N1VxV9XyEgou9vypQpLnj15ptvplt7qt+aWrmoYB2LvpvIYIL2l74TfV7YlgcffDDN/pJXXnnFnnzySTfPsGHD3HvCusf7e4lchrYn+rsKd5J59tln3XM825zZbz947LHH3PesebRMpaO3EQBA0AAAgFyngmKVKlWsXr16riCtmtKRI0f6qYmhwpYKqQpKiLpDqIB5yy23uLQK0ypIqXAUCkYdO3ZMbfWgwpkKtaJCpvJmz56durzQ/FsPCcsbO3ZsmkKupkcW5DJ7nx5adxXeNC1Mz0kXKG2HConaBj2GDh3qatm170Xrotr18B1oHTRPWAdRgXfQoEGp6Xhonbt27epe67tu06aNW6b2h5YTGczQZ2ofaFvDZ4T9FBlYiFxmCPRk9XZx+m71+1PLxcyE/aXCfvgetd9+97vfHfab1T4M+1S/k8hCfry/F+0j7atA84eAk4Rtzop4fvuiwEOrVq3c66ZNm7ruRmH9AQC/IGgAAEAuUiFMBfPIAqkK6yooRxaesmLTpk2ukBOaVeuhQIRqqkNhS4UmFZ4jC4rqX12tWjWfOpRWDbRqYtWqQIVa1c6q4BRaQoQCnQqq/fv3T/OZWgetS0Yye58+S4XNyL7f0euZE9q2sC8iNWrUyL+KvQ6JEv25gT5TrQiiv0ftq7ygGv/Izw3dHsL+0u8pcnpWu0lm9/cSqHAfunVkdZ/E89sHAMSPoAEAALlItZ7qfx1ZCNPr8ePHp6lRjqaAQmR/8Mi+7LEGQtQjqzWyCgioBlrLUiFPBS0FNDT+ggq1oWtCoCbq0Z+pbYhsWRBLdt+XXSo0KvgRue7JSK0IYn2PkV0FEiEyOBToM8LnqWtBNNXKR66THmp9kBXZ+d5DsEABBgXB9B4tBwCQfwgaFAC6SHzrrbd8Csh/Bw4cSHjTavxCfaLnzZvnU0hm//vf//yr9KkAHqvwpLyMBkRUwUoFrDB/VpvKKwCgwnNkQVGBgI0bN/rUoWbbal0wffp015xfBTUVMLdt2+bWO3RNENXMhyb/WZHZ+/R5Copo3YLo9cwKfY72a2hJoNrmsC8iRTbxj7UOuS0vPzMEhzIKUgXp7a+syu7vRS1e1O1Bv/msBsGCeH77eUFjc7z77rs+hWSh1i7x/BcA/IKgQQGwf//+NBc3QH7TxdzixYt9ComWHxe3yJ5vv/3Wv4pNrQXUDUG199HUTz03B0RUX20VnsIAciq8aaR6tXIIXRhE89xxxx3utQqMKswqcKUCX2Rfc7V6UEEs8q4EauIe2QIilszep+CIum6oH73SYT2zOxDi448/7p67dOninhUY0fIjB7kL4z9EjhUQuQ6iebTu+g5DQVqBFFGe5s2J8JnRgwfqM/XZiaR9oD792gfRAxHqsyK7HsTaX9on+r6i35uR7P5eJDLYoPdktXtCvL/93LZ3794cB1+QeHv27LHvvvvOpwDEg6ABAAC5JNRmqQY/mgrkDRs2zLVWOyr8qaCkAphqtFXwVZP96CbmWrfOnTu7Fgd6jwqzquGNbt6vfI1yr8KklqeHavT1GZHzRYvnfWoqr8/TOuqhQl88AyGq24fmD8vVQ6JbZWh71NRd26p5NDr/iBEj0hQgI9chzKP11vprWSp0K9CgaZr35ptv9u/MPi1H6xZaHehZ309Wati1TSqYtm3bNs0gf9G0rZ9//rnb9/qs8Ah3KojcZ/p8DRwZ9pf2iX4fWt94Zff3EoI94XtQpYm6Tyi4EYIrmW2zlh/Pbx8AEJ9iP6vKEElNzUSff/751JogIL+p9cujjz7qbkeGxFNtZqlSpdxFOpLbAw88YPfdd59PASjMfvzxR6tVq5ZPZU6txhScUmAGyWPt2rU2ZswYd/cMAPGhpQEAAACQAXVF0sCgl156qb3//vsueA4ARQVBgwKgRIkSdtRRR/kUkP/U3FNNPZE7Kleu7B5IfnXr1vWvABRmxx13nBv74csvv7SbbrrJTjzxRHvkkUdcrXV6SpYsaUceeaRPIVmULl06Sy1GANA9AQAAAIjLX/7yF9flYPfu3Va2bFnbt2+f60qmpu5nn322C6oDQGFD0AAAAACIk+7moLtnKHAgxYsXd7XXuq3ljTfeaN27d7dq1aq5aQBQGBA0AAAgmzQwmu4pD6Bo0S1Bt2/f7m5BHEldSuWyyy6zv//971a1alWXBoCCjKABAADZpKDB4sWLfQpAUaBbVN5///124MCB1KCBuiWou0KZMmXs2muvdeMf6LaqAFAYEDQAAAAA4jBz5kzr0qWL7d271wUMypUr58Y10HgG119/vZ1zzjmuuwIAFCYc1QqAXbt22ahRo3wKyH+qXXnttdd8Cok2a9Ysmzt3rk8hmalfM4CiYc6cOakBA41hoLsI3Xnnne6YPWzYMOvYsWOagMGWLVvs7bff9ikki02bNtnYsWN9CkA8CBoUALoX8HfffedTQP5T7cry5ct9Com2ceNGd1GD5Lds2TL/CkBhpjEMFDA4ePCgex45cqTNmDHDevfubdWrV/dzpaUWCKtWrfIpJIs9e/bY6tWrfQpAPAgaAAAAABmoUaOG/fOf/7QFCxbYM888Y6effrqfAgCFH0EDAAAAIAO6K4JaGFSoUMHnAEDRQdAAAAAAAADERNCgAFB0u27duj4F5D/dWqp+/fo+hUQ74ogjrEqVKj6FZNagQQP/CgDSKlWqlBssEclFg1geddRRPgUgHtxyEQAAAAAAxERLAwAAAAAAEBNBAwAAAAAAEBNBAwAAAAAAEBNBAwAAAAAAEBNBgwJg586dNmLECJ8C8t+BAwdsyJAhPoVEmzlzps2ZM8enkMxefvll/woA0tqyZYu9+eabPoVksXHjRhszZoxPAYgHQYMCQAW01atX+xSQ/3TTlVWrVvkUEm3z5s3uYhPJb+XKlf4VAKS1b98+++GHH3wKyWLv3r22du1anwIQD4IGAAAAAAAgJoIGAADkoqlTp1qxYsViPnr16mW7du3yc+aPV199Nea6DRgwwM8Rvw0bNlj37t1t0aJFPifnYi1T65ad9csKfe4FF1zgvr9EC8tO7/vXd5IMvw0AAISgAQAAuaxnz55ufBp17Yl8DBo0yMqVK+fnyj8PPvhgmvXSuqpbXG4XzLPr3nvvdY+Caty4cdagQQNbsWKFG8MEAIBkRtCgAChZsqS7uACShWohGzVq5FNItGrVqlnVqlV9CsmscePG/lXOqSa9b9++7hFZ06/n5557zlq2bOkeocY9sgVDZH6Q3vvioUDGQw895D4juqY9smVC5HJVe96jRw8bPny4NW3aNM370ntPEGrewzxh29NbpqaHeYLIz9Cy9N5An6fWCk888UTqPPHW5E+aNCnme7TMzp07p9kWrV/0Z0fT+ydPnmzXXnuttWvXzi0fhVPp0qWtXr16PoVkUaZMGTvmmGN8CkA8CBoUALp469Kli08B+a9EiRLuAhy5Q4WqE0880aeQzK655hr/KjEmTJhgLVq0cLX9kTXpo0ePtokTJ9qsWbOsSZMmrnDau3dvW7hwoZt34MCB1q1bt8MK49Hvy4rq1au7Qq1qwwMVzFXgDa0m9Ll9+vRxhWTNr+lXXXWVWy+9N7P3iArR/fr1c4XoyFYOel96y4ymeYYOHWrr1693y9CyFGyILLwvWLDAtm/f7qZrPm2X9k9mtK/DcuvUqWO33367W2cVBhs2bGgzZszwcx4KMOiztd7p0eCZGuhUQZCOHTu65WcUZEDBVblyZfv1r3/tU0gWCspfdNFFPgUgHgQNAADIZYMHD7by5cun1liHhwq7kWrXrm2tW7f2qV+osBwKoiqwqoB89913pwYCNP3KK6+0kSNHunQQ+b7sUIuiZcuWudcq2I4dO9YVmkOXCi1fDzW3jyWe96h5vgrwqqEXzaduGyr0x0Ofof2hIEvYVgXa1UIvcr20b7t27epeaz6tQ9i2jEQuV+9fvny5K/hrPTt06OACIvpOtB7z58+P+f1F0nfUrFkzt8xWrVodtp4AACQbggYAAOSy9MY0iLdgHEnLUSE7uttabncZUm27autVQx4Z+Ojfv7+f43DxvCdsi4Iq2RFaAdSoUcPnHAo8qFVATqlGMnK5eq3112eKAgRqNaDvRHlq8pxRc/QQWAjBi+jAAwAAyYigAQAAiEk18ZHBCNXWhy4R8QY/svOegkIBgipVqrjtUzcFdS0JLSpiUYuCMD5DCKCoi4taojAgIgAgWRE0AACgAFGNvGrmI8cakHia2meFasXV3z60aIiuZY9HPO8J26La+uyI9Rmqtde4CDm1adOmNMvVawU8QuuD0FJgzJgxNnv27Ay7Jmid1KJg2LBhaYIn2m61RGFARABAsiJoUADoguK1117zKSD/HThwwF5++WWfQqKpxlID1yH5vfDCC/5V3lFBVYPtPfbYY6kDH6pwP2rUqNRm7zmlAq4GJwzjD4j64OtzddcCBRREzxqLQJ8fSzzvidWvP9bdEdIT6zM0wGHkOAk5ofEStD/00N0X2rdvn2ZQSQUKNIDl1q1bM+yaoHEQNB5CdGAhfJ8MiFj4bN682d544w2fQrLQ/yyeQVAB/IKgQQGgAtratWt9Csh/qh374YcffAqJpsLHtm3bfArJLN7a7PQGQszqrRADFeR1F4LQzF13UhgxYkSW75AQaIyByPXSuqoGPfIODqIuBfrsULuvZ80TGVjQIH9arzDIY2bvUaFZt3dU4Tx8vvbrXXfd5abHWmY0fYYK3uEztCzNq/fmhMY0UFBD+yOMuRDWK1CgoE2bNm5/ZdQ1YeTIke5uC7ECC9o2YUDEwmX//v22bt06n0Ky2Ldvn/30008+BSAexVIu/n/2r5GkVHh4/vnn7Y477vA5QP7ShdCjjz7qaiKReGqmXKpUKVcIQXJ74IEH7L777vMpFEVqgaDfwA033JDtoA0Khh9//NFq1arlU5lTdxYF8xTUQ/JQRZy6FKlbEID40NIAAAAgm9TtQDLqmoCC79tvv3UDXV566aX2/vvvu+A5ABQVBA0AAACyQeModOvWzbUyyKhrAgq+4447zt3p4ssvv7SbbrrJTjzxRHvkkUfoPgqgSCBoUACULFnSGjdu7FNA/lOf4eOPP96nkGjql53TvtjIGzRHL9o0NoMGLeV3UPjpvKfBR3//+9+767ItW7a4sUo0sGX37t3t448/duP9RCpdurQbxwLJpWzZsql3hQEQH8Y0AAAAAOKkgUM12Obu3btdunjx4i5AUKVKFbvxxhtdEKFatWpuGgAUBgQNAADIJg2MdtFFF/kUgKJi06ZNbhDM6MvoEiVKuOfLLrvM/v73v7s7cABAQUfQAACAbFLQ4Pvvv/cpAEXB/Pnz7Z577nGDIYbLaHVfULP3MmXKuNt/avwDBscEUFgQNAAAAADiMHPmTOvSpYvt3bvXBQw0AKbu+3/22Wfb9ddfb+ecc47rrgAAhQlBAwAAACATc+bMcbdcVMBAYxho0NrrrrvOrrrqKgavBVCoEQotAHbs2GFDhgzxKSD/HThwwJ5//nmfQqJNnz7d1WYh+Q0aNMi/AlCYrVu3zrUwOHjwoHseOXKkzZgxw3r37p1uwGDz5s02fPhwn0Ky2LBhg73++us+BSAeBA0KAJ2g1q9f71NA/lMDJfXlRu7Yvn27CxYi+akgAaDwU6uCf/7zn7ZgwQJ75pln7PTTT/dT0qcxD1RARXJRd5KNGzf6FIB4EDQAAAAAMqC7IqiFQYUKFXwOABQdBA0AAAAAAEBMBA0AAAAAAEBMBA0KgFKlStnxxx/vU0D+0/2oTzjhBJ9CotWqVctq1qzpU0hmzZs3968AIK0yZcrYscce61NIFmXLlrXGjRv7FIB4cMtFAAAAAAAQEy0NAAAAAABATAQNAAAAAABATAQNAAAAAABATAQNAAAAAABATAQNCoAdO3bYyy+/7FNA/jtw4ID93//9n08h0aZNm2YzZszwKSSzZ555xr8CgLQ2bdpkr776qk8hWaxfv96GDx/uUwDiQdCgADh48KA78QDJQjdd2bhxo08h0Xbu3Gm7du3yKSSzDRs2+FcAkJYC7Js3b/YpJIv9+/fbli1bfApAPAgaAACQB6ZOnWrFihVLfVxwwQW5EnTQ5/Tq1SvXA09ad22DPi9RtMzu3bvbokWLfI651507d06TBwAA8g5BAwAActmAAQPcQ81i1VJHj2uvvdY6depUYAvD1atXt3Hjxlm7du18Tu5o0qSJjR8/3j0DAIC8R9AAAIBcpJp4PdS3WQXtoEePHnbllVfayJEjfU7sWvUQcAhCDX9osRA5TZ/Tvn17Gzx4sF1xxRVpWjJoWnhPy5YtDwtWaDnPPfeca6UQOY/yw/si+2dHtzSIXH7kI/I9Wp6WG6ZFroeWp32ivsZNmzZNXa6mR++T6H0Q3W9c6b59+6ZuS6x5AABAfAgaFAClSpWyZs2a+RSQ/4oXL24nnXSSTyHRjjzySKtdu7ZPIZm1aNHCv0rfpEmTXG18ZMAguPfee90jXupy0K9fP9dKQa0VNP7F6tWrUwvE+pwpU6ZYz5497c0330z9TBXAe/fubQsXLnTvGzhwoHXr1i1NQVyeffZZu/322908Cmio8N6oUSOX1nKHDh2aJhARSZ+t+cJj2LBhrrCvwr3os/SZ+mxN17q3adPGnnjiCbddWldtx1VXXeXWM70WDCG4EPaBWm9ovaKDAo899ljqPFp3paO3F8hNZcqUoYVMEipXrpwdf/zxPgUgHgQNCoCyZcumXnQByUBBg0svvdSnkGgKEnJBUzBcfvnl/lVsKgyrUK+Cd27Qxe+gQYNcITo9WgcVqu++++7UAowK5NGtHER5YZ6OHTumKfQrgFC1alVXSM+MCudDhgyxJ598MjVwoeXOmjUrNRigde/QoYN7nRXqEtGgQQPr0qWLS2v5CrxEBzQUOGnVqpV7rXVXMC6edQcSpVKlSvarX/3Kp5AsqlSpYueee65PAYgHQQMAAAoIFbRVe37NNde4JvfxDHioGv0VK1a4gnakeAIZek/58uV9Kj4quPfp08d+97vfxaxljexaoO3IqmXLllmdOnXcvghq1KjhAhoAACDxCBoAAJBLVLBVAVcF3UQJ3QDUhH/atGmuUB85rkF+Ct0ntI7RrR9CsEAF/NBtQF0YAABAciNoAABALlIzf40pENl0PlA//OzeHjE091d//fSWLwoqqMWAWhtESmQgIxg9erT7nFtuucXn/EJBDq2HWj5k1J0iM2ohoS4fkftM3Q42bdrkUwAAIJEIGgAAkItU6x5q3iML9goYqHm+at1DU3vVwqvZ/owZM1xaYwOMGjXKvRYVlBVkiBz0L6OBFiV0aYgcCFBBBi23a9euLp0IWqY+I3Icg2gKKChoIJo/O90T1FpBy1GAQrRP1dJC25je5wIAgOwjaFAA7Nixw1544QWfAvLfgQMH7JlnnvEpJNpnn31mX375pU8hmf3nP//xrzKmgfpUqA1BAT00cJ9qyFXgD8KgfmHMAt1ZILLWXgEA3d1AhfOwHNW633XXXX6OQ4P+qVDdtm3b1CCBPkN3LdA0vUd3UhgxYkTMMQeyS8GL2bNnp35GeISuEyF4EvaBtn/ChAmui8XKlSvdPNp+DQSqZUTfDSHQPJqm92s5obtDTlovALlh48aNbkBQJJeffvop3eMLgNiK/axOhUhq27Zts+eff97uuOMOnwPkr/3799ujjz7q+i4j8VT40q1WszOyPPLWAw88YPfdd59PASjMlixZYscee6xPZU5BQQXnFKRD8li7dq2NGTPG3WEFQHxoaQAAAABkQK13wm1IX3/9ddu9e7efAgCFH0EDAAAAIAMaxPPhhx+2OXPm2K233uq69qgF6Ndff+3nAIDCi6ABAAAAkAmNNfL4449byZIlbe/evTZy5Ei7+OKL3fghL774om3dutXPCQCFS4n7U/jXSFIadkLN4Bo3buxzgPynATqPO+44n0Ii7dmzxypXrsxI8AWAxpxJ5GCCAJLbySefbNWqVbNPPvnEDQosmzdvtk8//dQNNjpv3jw3vV69eu76TWMAqZUCksfBgwfdd1e/fn2fAyAzDIQIAEA2/fjjj3buuef6FICiQoFzBXjT06ZNG9f6QAEEACjoCBoAAJBNChrotmoAio65c+e68Qz27dvnc8zKlCnjWhWcccYZdtNNN9l5551nxYvTCxhA4UDQAAAAAIjDzJkz7YorrnBjGkj58uWtRIkSdu2119p1111ndevWdfkAUJgQNAAAAAAyoTsn/PrXv3YtCtSKoHnz5tarVy83GGKpUqX8XABQ+BA0AAAAADKwbt06O/PMM90AeldddZXdcMMNDAYMoMigs1UBsH37dhs0aJBPAflPF03/+c9/fAqJNmXKFPviiy98CsnsX//6l38FoDCrUaOG+78vXLjQHnnkkbgCBhrv5OWXX/YpJAuNRTNkyBCfAhAPggYFgBqD7Ny506eA/KffpEaORu5QX9nQXxbJTUFdAIWfxi24/PLLrWzZsj4nc7q1H9dvyUffy65du3wKQDwIGgAAAAAAgJgIGgAAAAAAgJgIGgAAAAAAgJgIGhQApUuXtlNOOcWngPynW021bt3ap5Bous/30Ucf7VNIZqeffrp/BQBpafyDk08+2aeQLMqXL28nnniiTwGIB7dcBAAAAAAAMdHSAAAAAAAAxETQAAAAAAAAxETQAAAAAAAAxETQAAAAAAAAxETQoADYvn27DRw40KeA/Ld//357/PHHfQqJ9umnn9rnn3/uU0hmjz76qH8FAGlt2LDBXnjhBZ9Csvjxxx/t5Zdf9ikA8SBoUADoBhd79uzxKSA58JvMPQrK6IHkt3v3bv8qfVOnTrVixYrFfPTq1ct27drl58yYCiAXXHCBW15+WbRokXXu3Nk95xZtZ/fu3XP1M+Lx6quvZvj9xPu96llp5ev70/Zp2WFeLWfAgAHuEY/M1gvJg+u35HTw4EHbu3evTwGIB0EDAAByWc+ePW3nzp2uEBH5GDRokJUrV87PlfyaNGli48ePd8+I73tduXKlbdmyxdavX2/jxo1z94ifPHmyTZkyxc3brl07u/fee90jHj169ChwvxsAQMFG0AAAgCSgGuS+ffum1krrobxokyZNSp0eaq4jqcY6TNcjsgZbtfeqxX/iiSdSp8eqtY5cRuRnRLc0iGedNW/Lli1Tl6XPjvWZWaXPCZ+p5Ue3TIhsCaDP03pG74uwXuktI6e0Dk2bNrXhw4dbjRo1bPDgwXbFFVe45/bt26fuB61XRusWuU/1Onr/ZbQvNC2z7yi0YgnTw7poOdEtS7RNsX53AIDCi6ABAABJ4rHHHrNrr73W1UCrJlrp6ILs6tWrXe22Hg0aNLBnn33WTzlU2A/TwzL69+/vCnrBggUL3Fg5mq7a7xUrVtjo0aP91EOFzMhlaH369euXbiE/o3VWwbJPnz529913u+lPPvmkvfLKK25aTmgdVVsf1lHj/uhzIoMbvXv3Tq3N1/ppvQJN79atm3ufpms5bdq0cQGNnAYzIqkVwcKFC+2qq65y+1otE9588033rHWL1WIg7LOwbnrf0KFD03yHkTLbF5LRd6Tt1fcbpms5+v613Hr16lnDhg1txowZbl5R0ErzVq9e3ecAAAo7ggYFQOnSpa1169Y+BeS/4sWLuwts5A5dqNetW9enkMzOPPNM/ypjqllWs/RQkxse0TW+Kky2atXKvVYN9ZFHHukKjZFUYFNBU48OHTq4Al4o6KqJe2RBVMtQTXGk2rVrW9euXd1rFfxUsF22bJlLq6CpAmr4DMmsOXxG66wCswIbXbp0cWl1a7jyyivd6+zSOo4dO9Zuv/321HXSNuih5v+iQq4+R3mi9dN6BlqPWbNmpU4P+zKr4v1es0LboH0W9qm+I+WFdY0Uz76QjL6jmTNnusCRWg+IlqPvW9972C8KSug3ps+bP38+1yRx0v475ZRTfArJokKFCtaiRQufAhAPggYFQJkyZeyss87yKSD/KWjQqVMnn0KiHXvssa52D8nvvPPO868ypkJbqAmOfKhglhtUaFXhVU3iNQZBvFSQ1HrpfYmgwmidOnVSC7TSqFEj/yp7tI5qLaHCb2RBXS0qAgVBIj9Hn6/1iKZCcGiWf8011/jc+OXG96p1j95n6YlnX2RG35GCFAp+xKIAgcZk0Hbq84455hgX2ETmVDiNN7CIvFOpUiUqPoAsImgAAEAhEYIFai2gAp4e0S0NCgO1llArhuwW1kOwQMGR0Cx/2LBhfmrBktN9kRkFCKpUqeI+Qy04VEMbT0ADAFB4EDQAAKAQUPPxMCq/mqZnp8+5CtEKOijYkAiqwY7sPiGhK0R2xbOOamUQ+Tn6fK1HELpNqPY8t1p7ZJfWPXqfpScR35f2g1obaF/EogCBuiiMGTPGZs+eTdcEACiCCBoAAFCIqAAoKnRqgLusdE9QoEE172qpEAqtORktX83mtT5hoEUNvjdq1Cj3OrvCOmrQx7BOoeVAGCxQBVt9Tkir377GH4gUWVDWfNnpnpAbtB1aN62z6HvQnQ9ijZMQz77IjMY6UOAgcgwELS/cQUG0PydMmGBbt26lawIAFEEEDQAAyGXpDZiXyNv8qUZYA+JpZHwtW5+nwQDV714j3sdLNe/qUx/WV3ch0F0PstNyQe/Re8M6aVT/3//+95n22d+0adNh/fQj95XWUYP9hZp2PWsQyDBYoAY61F0EdFtDTVcQRHdwCOMchMECw/s1XYXiadOm2cqVK9088ciN7zXsM+13LUvL1/5Kr0VEZvsiM/oeHnroIbcPwvqrpcNdd93l5zjURUF9wNXigK4JAFD0FPtZHd+Q1HRrrJdeesluvfVWnwPkr/3799u//vUv+3//7//5HCTSxx9/bKVKlYr7oh/5R4Ut1eYjfqoxV9cBFWzzkmrOFTRItu4IBYFaO9x33312ww03uIBMUbVkyRI3UG281OrjjTfeSHPnDuS/devW2TvvvGN//OMffQ6AzNDSoABQXEeFNCCZ8JvMPQcPHnQPJD/+BxmL7tqgZ9Vod+zY0aVziwITatIfulio1l9jPdAfP3tC64ui3DVBXUb0u9XAoq+//rrt3r3bT0kf12/JSd/LgQMHfApAPAgaAACAXBHdDSCrTeezq0uXLu45dB3o1q2bPfXUU0W6ljy71EJD+0+tDIpy1wSN+/Dwww/bnDlzXMtP/ZbuuOMO+/rrr/0cAFB4ETQAAAC5RkEC1eyFR150u1HhdtCgQamfOWvWLAIG2aTvj/13iAbLfPzxx61kyZK2d+9e1+Lg8ssvt7Zt29qLL77oBooEgMKIoAEAAAAQB42JodYXChyo64GCB+q6oPFNmjdv7lpk6NanClYBQGHBQIgFwJ49e2zGjBkMioakof72uig6++yzfQ4SSYPElShRwurXr+9zkKzefPNN10QZQNGyb9++mP3i1R1Gl9a628Qzzzxj33//vZ1xxhl+KpKBBhhfsGCBnXbaaT4HQGYIGgAAkE0//vhj6mB7AIqGzz//3Pr27esCB0GZMmVcywMFC2666Sb71a9+ZcWL06AXQOFA0AAAAACIw7hx49wtFNUtQTTYplqGXXvttXbddddZ3bp1XT4AFCYEDQAAAIBMvPXWW3bzzTe7IIG6IWgMA93a8+KLL7ZSpUr5uQCg8CFoAAAAAGRg0aJFds4557huCN27d7frr7/ejjvuOD8VAAo3ggYAAABAJt5++207//zzrWzZsj4HAIoGRmgpALZt22b//ve/fQrIfxrsSbeXQu6YNGmSuzsFkt8DDzzgXwEo7C699NIsBQzWr19vAwcO9Ckki7Vr19rgwYN9CkA8CBoAAAAAAICYCBoAAAAAAICYCBoAAAAAAICYCBoAAAAAAICYStyfwr9GktK9gHX/37p16/ocIP/pPtX16tXzKSSS/vPVqlWzKlWq+Bwkq+LFi1v9+vV9CgDS0i0ajz76aJ9CMtA5Vt/LUUcd5XMAZIZbLgIAAAAAgJjongAAAAAAAGIiaAAAAAAAAGIiaAAAAAAAAGIiaFBAHDhwwL8CksP+/fv9KyTawYMH3QPJj/8BgPRo2DCu35IP3wuQdQQNCoBt27bZk08+6VOx7dq1y3r16uVGhI1+TJ061c+Vu2Ktw6uvvuqnJt6AAQPcI9Bn6fO1HiEdOR2Jo4LSo48+6lNItI8//jjP/rfImYceesi/AoC0NmzYYIMGDfIpJIt169bZCy+84FMA4kHQoJCZMmWKi6CGh9K9e/e2RYsW+Tlyh5bftm1b69ChQ+pnr1+/3oYOHZpnBfcePXq4k3O5cuV8DgAAAAAgJwgaFHJNmza1E044wacORb0vuOCCNLWYkTX0Kvx37tw5TZBB8+o9em8set8TTzxhd999tyu4B9WrV3ctJBS4CMvTMvRZml8tEaJbBoQWCi1btjws0KG08jVd67N69Wo/5ZDI7dDra665xvr375/mMxTACJ+R0TYBAAAAAAgaFHoLFy60Zs2aWZMmTXxOxurVq2cNGza0GTNm+ByzSZMm2bXXXuuCALGsXLnSli9fbq1bt/Y5v9Dnjh8/Ps3nr1ixwrZv3+5aI4SWASrkT5482Xbu3OnyBw4caH369Ekt1Ctg0K1bN5ev6ffee68NHjzYTYtFwYthw4bZgw8+mOYzFGgIn6Ft6tevX2pAAQAAAACQFkGDQqZ9+/apNel6KK2CcrwFYxWu1cVABXi9R4X2+fPnxwwIBOqGoM+qUaOGz8lcx44d/atDrQ/Gjh1rt99+e2rXgnbt2rnHuHHjXFpBjDZt2lirVq1cWtMUEMgJujMAAAAAQMYIGhQAZcqUsbPOOsunMhY9poFaGkybNs1mzpzp58icAgRbtmxxNfIKCBxzzDGuBUJu0WcsWLDAdaWIDHioa0GwbNkyq1OnTpoCfqNGjfyr+Kg7glo5lC9fPmb3B8SvePHi1qlTJ59Coh177LGuxQ+S33nnnedfAUBaFSpUsDPPPNOnkCwqVarkKqIAxI+gQQFQunTpDGv6M6JuAVdeeaXrYhAvBQiqVKniAg6q4W/RokWGtfFqYaAAhQr/2VW7dm33eZEBDz0ix0jIKXWvUMsFBUN0slCQgnENskdBA064uUf/wbp16/oUkhkFAgDp0bXTKaec4lNIFgrm6NoWQPwIGhQRWamV10lOXRTGjBljs2fPzjRgEWschEAFchXMM7p9nIIOalmQUdBB6x/dzUKtD7JD26duCeHzFKwAAAAAAByOoEEhpyb46rIQCv5qmt+gQYPUlgcq1Ou2iNE0/4QJE2zr1q2Zdk1QIVzjETz22GNusMFAy1ZLAX1eGIsgFrUA0KCEurNBqPWPDjaErgWhm4XyI7svxCPy7goSggVqcQAAAAAAOBxBg0ImeiBEFYhVuA53LwgF/FGjRrnpKtTffPPNblokBQrU/FwtDvSezGj5EydOdAGI8NlqQaBgQDyDDWo9NLhhaHWgZ90hQXkSbt/Yu3dvN12fo1s8ZkSBD21n6ILQpUsXl6/AiZahZWmZ6d0VAgAAAACKumI/q+M4kpq+or1797oBEfOKauPvu+8+u+GGG9LcLhEI9uzZk6e/yaJk//797rlkyZLuGcmL/wGA9Oj6bd++fW5sKuQedV+tVq1aXJVcwvcCZB0tDQqA7du328CBA30qb6xcudI9Z9Y1AUWTCrWPP/64TyHRPv30U/v88899CsnskUce8a8AIC21cnz++ed9CrnlqaeesubNm1vfvn3dbcIzs27dOnv55Zd9CkA8CBrgMBpboFu3bq6VQbxRWwAAACCv9evXz91xSF1XdTtoddUdMmSIq3QDkBgEDXAYjSUwa9YsuiUAAAAgqVWuXNnGjh3r7uSlbn1Lly61Bx54wJo1a2Y9e/a0adOm+TkBZBdBgwJEfbB48EiWB79JHjz4H/DgwSPjB8eIvHlUqlTJ3n33XTv66KOtVKlStnPnTjdugYIJ3bt3t1NOOcV1Y8jo9t4A0sdAiAXAtm3b7JxzzrEffvjB5wAAAACIl1ohqNjzt7/9zd1FS60QAMSHoEEBoEjp5MmT7cQTT/Q5QP7SYWPOnDnWokULn4NEWrNmjRUvXtxq167tc5Csvv76a1eDBQDRdu/ebcuXL7cTTjjB5yA3aZDmXr16uS62unYOND6XWh/8/ve/tz/84Q92xBFH2LJly7iuBrKAoAEAAACAAksBGg3iPXv2bHcrXN1O8eDBg3byySe7FgUXXnihCxwAyB6CBgAAAAAKJI1f0LVrV5s5c6aVLVvWtYa8+uqr7frrr7fGjRv7uQDkBEEDAAAAAAVS7969bfTo0e6uXzfffLNdfvnlVqZMGT8VQCIQNAAAAABQIM2bN889N2/e3D0DSDyCBgWAvqJdu3ZZ+fLlfQ6Q/3bs2GEVKlTwKSTS3r173cjO9L9MfvwPAKRHferVv14D8SF58L0AWVfcPyOJbd++3QYNGuRTQP7TCMX/+c9/fAqJNmXKFJs2bZpPIZk9/vjj/hUApLVx40Z76aWXfArJ4scff7QhQ4b4FIB4EDQAAAAAAAAxETQAAAAAAAAxETQAAAAAAAAxETQAAAAAAAAxlbg/hX+NJFW8eHGrUqWK1a5d2+cA+a9y5cp21FFH+RQSSfeXrlGjhlWsWNHnIFnxPwCQHl2/HXHEEVazZk2fg2RQokQJd13N9wLEj1suAgAAAACAmOieAAAAAAAAYiJoAAAAAAAAYiJoAAAAAAAAYiJoUAAcPHjQtm3b5lNActi6dat/hUTbvXu37dmzx6eQzLZs2eJfJcbUqVOtV69etmvXLp9ziNLKf/XVV31O7tmwYYNdcMEFMddDtA7pTcuOAQMGuIeE7dR+CHLyeVpOsWLFUh/aLm1fbli0aJF17tzZPcdKp/fdovDi+i05HThwwLZv3+5TAOJB0KAA2LFjhz3//PM+BeS//fv329NPP+1TSLTPPvvMpk+f7lNIZv/5z3/8q8Jj3Lhx1qBBA1uxYoXNnDnT5+aee++91z0SLQQj1q9fbxrzWY9rr73WOnXqlFqQz01NmjSx8ePHu2cUTRs3brQhQ4b4FJLFTz/9lCcBWKAwIWgAAEABFFoEhFr0UFsfhFr7MD2eWm5Nnzx5sitct2vXziZNmuSnxE816pE1+mE9o1sPhIv2ULjXZ99+++02ePBga9++fZqLerXouP7661O3JbMLfn2WHpqvevXqPtesR48eduWVV9rIkSN9zqF1eeKJJ1L3ZVjPzPavKC9Mf/HFF33uIZEtDbRMbZO27YorrkjdN/rs8P6WLVvmSTADAICsImgAAEABowJ2v379XOFeNeg7d+601atXpxamQwG8Q4cOqbXsderUsccff9xNT8/KlStdAb1p06bWsWNHV9gNBdx46b1Vq1Z1NfyycOFCV+OulguidZs9e7a1bt3apYNy5cq5wnvPnj1typQproAfDB8+3P70pz+57dC0xx57LMMCtoIdCnpEBgyCWC0bXnnlFXvyySfd8vU+bbM+X/PF2r+igIHyNE0Pddlat26dn5qWlqn11ra9+eabbr20b4cOHZraEmLgwIHWp0+fLO9vAAByG0EDAAAKOBW4Bw0alFrQDt0KunTp4p7llltusfnz52dY2B45cqQ1a9bMFWpbtWrluimou0JW6L1axowZM1xawYK7777bBQoUMFBgQurVq+ee46HCttZHFJQ48sgjU4MS0fQZKsw3atTI52SuTZs2adZH26yCvh6i/asgzNixY12hXg8V+hW00bQwvXbt2m7+7NBn6XNjBToAAMhPBA0AAChgVEhVgfWaa65xTdujux6ooK6m8OXLl09t/l6jRg1bsGCBn+NwKggrqNC1a1eX1meopYK6K0QuOx4qsC9btiy1VcFll13mauJVI69gQosWLdzyk5XWvX///qn7Tg8FKzZt2uSmh9YB2qeBXlerVs2nMheCMnqflh+6RQAAkGwIGhQAZcuWdf0qgWRRokQJu/TSS30KiaZaWgZPKxguv/xy/yrvqWZaBVc1/582bZoLEET2u1ftvArpmic8Zs2ale5vS7Xc6gagwnEoKCsooeBDVgdEVNcDBSBWrVrlggVaprpHaF1//PHHw7omJJKCEfosFfxz4sEHH0yz7/RIZEsAradah2i5+iyNecC4BoVLpUqV7Fe/+pVPIVlUqVLFzj33XJ8CEA+CBgVAqVKlXCECSBYqTJx00kk+hURT0+tatWr5FJKZaswTSbXOGlNAhf1ISqv1gGqmoykIoGCA+syHMQjC3Q+il5MetQhQi4Jhw4alKSTr/Qo+ZHVARDX1P+aYY+zjjz92BXgVtNX6QHcF0a3OstI1ITsyGo9B4xJkNiik1lVdHNKbJ7QOiOwiodcaLT87NHaC9rW6SYRuHSj4ypQpQwA4CSlgd/zxx/sUgHgQNAAAIEmoMK1asGeffdbnHBLGFVCNvagwq4Jv5MB8kYP/habvkctRITryrgaRNM7A8uXLYw5OqG4Q6RXA06P3qZZVAYcwtoDW54477nBpTc9NYTwCjfEQud7aX2o9EcYiSI/2k4Iuo0eP9jlpgw3ax1qGBjJUWg8N4pjeQIixRH8f6X0HAADkN4IGAAAkCRVk1WRdQhcBPdQKIIy6L5pPA+/pLgJhHtWM33XXXanTH3roIVcwDdPVdUEF31jN60eOHGkNGzaM2QIgBCpC4CJequ1XS4xQCNZydAvCWK0lAq23xlFQU/1YtzjMCtXeq2AfWgXoEe5WoIBCRrSPdDeFyP2r70CBgRBsUEBCrSjULUQPBWoyGghR269ARNu2bV0XhBDYCOun6RpHgZppAECyKfaz2h8CAIBctXv3blfwzs9xEAAAALKKlgYFwMGDB1NHbAaSgWKN2e27i8ypb3N6famRXOJpsv/tt99a3759XU2y7sO/ePFiPwVAYXbgwAHbvHmzTyFZ6HvR2DEA4kfQoADYsWOHvfzyyz4F5D+dcP/v//7Pp5BoGgmfwdAKhmeeeca/Smvfvn2uP7ya45999tmuWfyePXvs0UcfteOOO87PBaAwU4VP5LgjSA4//fSTu1MMgPgRNAAAIEG+++47d/s83fFGrQrmzJnj8nUXnH//+9921VVXuTQAAEBBwZgGBcC2bdvs+eefd6NOA8lg//79rsa0X79+PgeJpFHwVcjUgHBIbg888ID97W9/sw8++MCee+4510pE393evXv9HGYlS5Z0A9xp4DwARYe6L40aNcpuuukmn4NkoLucTJgwwd3dBUB8CBoUAAQNkGwIGuQuggYFx1/+8hfXmuDrr7/2OQCAZHbppZe6u50QNADiR9CgACBogGRD0CB3ETQoOEJLgw8//NAGDx5s06dPdy0LNH5BUKJECdfS4Oqrr/Y5AIoCtTTQ2CY33nijz0EyUEsDHbMJGgDxI2hQAKiAtnTpUu7djKShw8aCBQtcv20k3o8//uju216zZk2fg2Q1b948a968uU+Zff/99/bSSy+5gQ81YGi4C4aCQAq0de/e3aUBFH4KHq5atcqOPfZYn4NkoNvfrl692ho3buxzAGSGoAEAAAmmuyeMHTvWBg0aZPPnz3e3ztXjySeftK5du/q5AAAAkh9BAwAActG3335rL7zwgo0cOdINkPjJJ59w20UAAFBgEDQAACAPqEnsuHHj7PLLL/c5AAAAyY+gAQAAAAAAiKm4f0YSUz/Y9evX+xSQ/xRr1GB9yB3bt2+3HTt2+BSSGf8DAOnRQNa6gwKSi76XjRs3+hSAeBA0KABUeBgyZIhPAflPo8LrNqDIHbpt38yZM30Kyez//u///CsASGvz5s02fPhwn0KyUEXc66+/7lMA4kHQAAAAAAAAxETQAAAAAAAAxETQAAAAAAAAxETQAAAAAAAAxMQtFwsAjfL63XffWePGjX0OkL902Fi8eLEdf/zxPgeJpEGaihUrZtWrV/c5SFaLFi2yJk2a+BQA/GLv3r22evVqa9iwoc9BMtizZ4+tWbPGGjRo4HMAZIagAQAAAAAAiInuCQAAAAAAICaCBgAAAAAAICaCBgAAAAAAICaCBgWABmz59NNPfQrIfwcPHrSJEyf6FBJtyZIltnz5cp9CMvvggw/8KwBIa8eOHfbZZ5/5FJLFtm3bbNq0aT4FIB4EDQoAjb47Y8YMnwLyn4IGnHBzz8qVK+3777/3KSQzCgQA0rNr1y77+uuvfQrJQsGc2bNn+xSAeBA0KABKlSrFLb2QVIoXL27NmjXzKSRarVq1rGbNmj6FZNa8eXP/CgDSKlOmjB133HE+hWRRtmxZbmMOZBG3XAQAAAAAADHR0iCXTJ061S644ALbsGGDz/nFokWLrHPnzu4ZyE36jbVs2TLd32Ismk/z6zecUwMGDHCPvJbIbUiEeNYnzFOsWLGYj169ermmrsni22+/jfs3lVXaTm2vtju9fZaV31Z2/gdZlZ3fem7uQy1XyweKgoyOnzk9D8yaNSvLx96wPslyDsoNOt5F7uecHF+jj5/ZOZ5mh74fnRuir8fDOePVV1/1OYdk9XvVciKv96PT8dLvT79DID8RNAAKMY2FUbt2bVu7dq2NGzfO5+ade++91z0QvylTppgagEU/Bg0aZOXKlfNz5S9dMN16660+lXga00EDQZ5//vk2dOjQHAdL8uJ/kNXfem7uQ13Y9ujRw3766SefAxQN0cfPhQsXWu/evQ8r/MVL79OxF78IBefVq1fbzp07U/e1jn81atRISKAkr64dmjZtakceeaStX7/e5xyic4amTZ48Oc35R78n0bS8os+//fbbbd68eT4HyB8EDYBCSicanfB+97vf2ZVXXnnYyQ9IVrpga9iwod11111uwE0FEbKL/wFQdGk8qIEDB9pjjz2W5dpdxPbss89au3btDgtkK09BGwVpCsq+Ll++vDVo0MBWrFjhcw6dMzRIYvfu3V3wOvL8o/k0v94HFDUEDZJEiNxm1swrsjlYrCZVmv7EE0+kLisREV8UTDNnznQFrtatW1vHjh3TLXxF//aGDBnip/xCtS1qLt63b9/U+fRbi35v9O8tuolhWM5zzz2X+p70fut5QRcHoRl8euui/5j+a2EerXt080Jtd5geHtmt2cpM2Oda71D4DesYPlNprWPkfo51vMhs+zW/Lpx0TNF0zTtp0iRr3769jR8/PmG1SpH0+Wpd0KFDB2vVqpWrBcrJ3WPi/R9o34X9oEf09xf9HUf+riX6tx6+pzB/5L7VstLbh1pG5OdEf2+Z/Yf0rFYGWrY+I3o9gaJGx5E2bdocdhzJ7Lit19dcc40NHjzY2rZtm+Z/mNn/NFDtcOT5I9bxMp5lZXb8Eb0n8rNy47+vz1BgoGvXrj4nrVj7WusRHmHddAzLKHgb5g/iXUb0foo+jkdT0EPnmshgss4Pq1atslNPPdUFr0MrBE3XfJo/BEsy+w3FI6PzsKaplYF+g/otZrbfgNxE0CAJ6ADQr18/u/baa1ObeSliq2huEA4qEuZR9Lxbt26HnVxeeeUVe/LJJ1OXg6JJhTudvOvVq5fuRVP47el3ot+Lmhrq96QCRzSdtFq0aOHmUxO9UaNGucKJTpDKGzZsmDuhh5NderScChUqpH6eovaRv/W8ovW84oor3AWA1kUP/Qe1TZEFsD59+tjdd9/tpuviYfTo0bZu3To3XbS/HnzwQbdPwnK0L3KrZqt69eru/63Cr9ZF36EK9apF17oHWkdN1zprnbQN2pbIbcts+2XBggW2fft2N101Syp466JRQQktO9HHGO1HdSNQIV/bqnXKSeuAeP4HuvBToCLsK62Dgmfh+4v+jjWf3qNHLJkd0/U61j7Ufymyya+etb76fiO3P6P/kPaZlqNl6zPyookvkMxUwKtTp44tW7bM58R33NaxUHk9e/a0zz//PPUuVvH+T0XH4IkTJ7r5YtXCx7OseI4/eq3rwREjRqQuR8uNLHgngj5bBVsFO2OJVQiX/v37u3NHWH/V2GvfZEVmy9C+1PZqWphHx3XlZyS0NNA+E50fdHeounXrut+NziGi6aGlgcTzG8pMZudh7U/9FvQb1LKTqZsiih6CBkkgHIgiRffnUuRzy5Ytdsstt/icQxeeKiiMHDnS5xwSLpBRdOlko4sInXx0ggkncp1AIwuEqoXVby/8rjSfotoKDkRTIUQRcNHvS78zLV+FFAkn0sxELiesly5uoi+2cptO9FrnLl26+Bxzr5UX+r3rOXIebWt0IUwXkgqyRN4WVQVe9aHPDtUOhxqHyEfkBaI+S0EAfZ/6viK/w0ha1/D9RG9bPNsf6EItr+gCTce1sD+1LxUg0W81q+L9H0Qff6O/U118RgaKtE+1j9ILmMRzTI9FF4qRF4VhfaMly38IKKii/+MS73E73v+pRB6DY12zxbOseI4/Om7qnBC2R8vRuUGBingLsPHSOSKrzfNV6FXQVrT+WvfIIE48MlqGjn0KVETubz0rHX28j6bxCapWrer2s2iZ4ZynZ51D9H6dMyWMZ5CT31CQlfMwkN8IGiQBHdh0UaumRyocRDZNCnQwGz58uIvuRhYkFHmNpshoOAGhaIo+uYlOZqrBDdNEBZvoCwD9xtQkPFp2LhRiSdRyckrbrhpbrUv4P+m18gJdPET/n7R/Yl0U6D+r/66Wo/0eeZGXFbrICzUOkY/oAmq4sND6Rl4oBVrHyNogbUNkbVs82y/Ry8lN2oe6QIsMUoQAVajtyYp4/wehAB6Or9E1U6GFgpaj6ZnV3sVzTM+I9kH4TrSMaMnyHwIKupwctzP7n6ogGn3sbNSoUcwAX0bLyuz4o2VpmeF4Ex45OQ9lROeOUCsfr0Rcl2a0jBCojQ66K50ZHa/VskAtDPR70L4M5ww9h4CClq/zcPS5Nie/oXjPw0AyIGiQS3Si0IEmPdWqVUtzMlG0WQWDEOnUtMgLTR1YQlPW6MJEZrVXKFp0AaHIuiLgoRAUTmYa3Cc7ha/CSIVn1VzoYiP6P6X/Y7xUi6N+pNrXKijq/SqQZqW2ITsia7PDc1YkavsTSTUr+t1GXviFC6hQ2xOvrPwPdBGoz9a2qwlouPgOwQNdqKo2UNMV1FGwVtMzCh5kdkyPRZ+n5aoJs35DYX0AZF8oVEcGI3Ny3E7k/zSeZWV2/AnnAr1P80Q+dJu+yJrwnNL+0nLDcS2a9nV0v/+8oPVRMDhW0F3H9uiCfjQFc3RO1HcgISir5ypVqriAgqZrviAR5/5kPA8D6SFokEt0EJFYB1YdfHQQCgelSOHiNbwvHMBUs6QDYnoHaiBQVxY154518tRFhcYiCM0V9bvSxYZOWEE4+RZ2OvlHb3u0WLVC2j+RNQn6P6sWSMsJJ/noeXJD6MP+1ltvxexDqc+PPF6EC+dw0RPP9uelcLGpPqLRv1sdB/WbzEpzzaz8DyKFwr7miTWWgmqaNF3LjSeQkd4xPVrYfn1u5IW+LioBZF/ohhdqjyW7x+2s/E83bdqU5hgsmi/UmGfnPx/r+KNrSZ3L8+JYoXVUUHdkVLfYIHLg2byka261kNT3nB1a3/nz59v06dPTBDz0rLS+J02P3K5EnPuT7TwMZISgQS7RhaKaO0UOPCa6SNUFvqKS4aCk6aqBimwSGy4sw0kuNE+LHBwn1vuAcCILff8ihROe5hHNo4uNUADVb0u/MdXEFnb670jkIIyh5kAXY6J5dEIPgy3pPxerdjnypK9lqNYoN2n9VOjVgIiXXXaZ6ycbaxAurWs4/mgbtJ5hu+PZ/vRkVtuUHSrk6/ZWsUblDl0UYhXi05OV/4GOodofYV+Fi/lw8aj9of0SGWRQS4VYTVUlnmN6evsw8sJf74/VBS0zoRCR3QtooLAIx2Ndc0X/V+M5bscKrEu8/9PIY3A4bkcf4zJbVmbHHx2jtH16X+SxO/q4ligaP0efEz2Sv/IUUNAg3Yls3RAP7Qftg+gAuvZ/PHcc0PFYQR4NJB4d8NBvQK3dND1UCAY5PffHcx7W9xvZtRDILwQNcpG6DeggpoOMmpLpoQtGHVB1sA90sNPFvw52YT4deJQXTnI6aKhQILog1DxarpZPEyYEujhQk+z0mgbqRK4CZih8hd+VaqD1m9JvS/OoK0xhEN2/UY9Q6Nd/SxdVOjGHadH/z+j/pv5zGksgsvmh/n+aP/zPNYK1lpHdWwXGWmc9wsVfuDCJHPRKF3G6eHn88cddWrSOWtewXvpdaHvDMSWe7U+PCvG6FZXm1zISYeTIkW6ZsQZxDRfFqsFScCEzWf0fRH+H+h/oIi0cWzVN+1vbG/aV/jN33XWXmx4t+nejR/QxPXofaj0feuihNN+H1m/ChAlxb3egZWnb1c2CW3ShKIk+foZjWvR1UrzHbb1fNJ/+m1n9n+oY3KlTJzefjgG6u0E4bse7rHiOP5pHrQ8itz/6mJ8oWp5aT+kYE65H9dC5VUFQrUt+0Hcaaz/pGifWeSCStknrrUBz9DlIy9M1kaZH7st4f0MZ0fLiOQ+ra42CQrkRBALiVexnVXUAAOKiQvv9999vzzzzTMIvxhJF63jrrbfaU089lXqBCgAAAGQHLQ0AIB2qAYiM7KvGVrUW6nqUrAEDAAAAIJEIGgBAOqKbH4Zm69yxBAAAAEUF3RMAAACAbFqwYIHNmTPHvvvuO9u6davt2LHDtm/f7h4HDhywChUquEfFihXds8acOemkk+zkk092aQBIdgQNktiECR/a559/btu2bbeffz5opUuXseOPP9bOP/88V9sJ5LU1a9bY+PEf2Lfffmt79uyxYsWKp1wEVbC2bdtY587n+7mQHRqB+d1333MXnjt37nZ55cuXsxYtWtgll1xkZcuWdXnIfxpF+/33x9u8efNs9279Dw4NUKtRt/VdFS9OIz6gMPvkk0/cgIW6VaKOAzofBhUqVEw5HhwKEui5TJkyKddxhwIJO3Zst61bt/g5D9Ft9xQ8OPPMM93dcCpXruynINEU1Jkw4QNbtmy57d27113DVK1aJeUa5kzr2PEcPxeAWAgaJKGhQ1+1r76aaaef3t7atGlvpUqV9lPMli5dbB9/PC7lBLXLbr/9NqtVq6afAuSeDRs22r/+9YSVLFnKzj33Ajv22F8G19u/f7998cUUmzbtU2vZsoX94Q+/81MQr3/841Fbv35jykXLBSkXj2lvETh79lf20UfjrXbtmta3b+zR+pE3dJH50EP/sF279linThdZs2Yn+SmHfPnl5zZ58kRr3Lih/elPt/hcAIWBCpzDhw93d3r54YcfXJ4qc04++RQ77bQ21rp1G2ve/CQrXryEm5aRH3743mbMmJZyzJjmnjdsOHTrVQUYLr74YrvqqqtS74SAnFu1apU9/fSzVrlyVTvnnPOtfv2GforZ7t27Uq5fJrvvoV27tta162/8FACRCBokmf/3/+6xFi1OtQ4dfuVzYlOk+oUXnrIrrrjczjqrvc8FEu+zzz5PuUgaZddf39uqVq3mc2ObOvVjmznzc/vnPx/xOcjIqlXf27/+9W+7/PJuKQXNQ7f2Ss+33863d955I+UYcZcdddRRPhd5Zf78BTZ48PMpF/PXWd26h98WMtKsWTPso4/G2YAB99P0GCjg1q5da3feeadNmjTJpRUoOP/8i6xz51/bGWec6fJyShVCH300wd5++42Uz1vj8urWrWuPPPKIu2Ujsm/cuAmu5e4tt9xpZcpk3GLvww/ftSVLFthDDx26NTOAXxA0SCJ9+/7VLr64izVqdLzPydyTT/7DunfvaqeemrZ2EkiE2bPn2JAhr9ptt93jczL33XfLbcyY/9ljjz3qcxCL+rr+7W/97fbb7427Obtqup966h/26KMP010hD+le34899u+UgkN/n5O5jRs32H//+6w98cTjPgdAQfPOO+/YXXfd7SpqTjyxhf32tz3snHPOy/S+/zkxa9ZXLngwduybLv2HP/zB3eZXrRCQNZ9+OtnGjfvAbr75Tp+TublzZ9nkyR/Yww//3ecAEIIGSWLQoOetRo2j7IwzOvic+D3++AP25JP/9ikgcW677Y6UgtJ9PhW/r76aZqtWLbE//7m3z0E0tSq6+uobrFq1Gj4nPj/+uNbeeGOI/eMfD/kc5LY777zbevf+f1aqVCmfE5+lSxe57mT33x9/sAFA/tu2bZv99a9/tVGjRrna6T//+S7r2vUaPzVvLFq0wO699y5bsWKpG/dg8ODBduKJJ/qpyIwGoLzzzr5ZCvYGH3883ooXP2A9enT3OQAYrSkJqPZQA8tlJ2Ag55//a3vxxZd9CkiMIUOG2bnnXuhTWXPqqW1SLnRWutp0HO6LL6bb0Ucfk+WAgdSqdaTVqHGkzZz5tc9Bbho3bryddNKpWQ4YSOPGTeznn4u5vtAACo7bbrvNBQw0fs9rr43J84CBNGlygo0c+W7KZ/ewZcuW2eWXX24bN270U5GZp556xi67rJtPZc0553S2L7+c4VMAhKBBEnjjjdEpBf9LfCrrNHDanDnf+BSQGCqUtmp1uk9l3YUXXu5+2zjcmDFvW5cuV/tU1l1xRXcbPfotn0Ju+vDDSdapU/aCZ6KL1hEjXvcpAMnum2++sffee88qVapsTz/9oh1zTH0/JX/cdde91q7dOe7uC4899pjPRWa++25lmkGbs6pdu3Nt7Nh3fQoAQYMkMHv2bGvevKVPZU/NmrXtp59+8ikgZzZv3mxVqmQ86GFmmjRp5m5FhcPt3LnLv8oe1XrrVqzIfQcP5qwHn47NP/xwaGAzAMnvlVdecc8PPviYVa+e9dZgueHBB//p1kV3bzh48KDPRXqWLl1qDRoc61PZ06ZNB5s27QufAkDQIAnoPt85Vb9+Y1uxYoVPATmj31L9+o18Kvv27t3nXyHQ/bwrVqzkU9mngRC5eMxda9assaOOquNT2ad7gQMoGGbMmJFS4Gxk7dqd7XPyn1o9aBDG3bt324IFC3wu0rNs2XL3HebUjh07/SsAXMkkhZzfh1cD9ezalbPaSyDQbykxo/Nzj+lo2rdlyuR85O2yZcvxn89lh/4HOf+u4r07BoD8pXF4Fi1a5G59nWzCOs2cOdM9I327dyfmPMtY8cAvuJJJAsUSUK7aunWzHXHEET4F5Ix+S1u2bPap7CtWjBNutCpVqrj/a07t2LHdKlSo4FPIDfquEvE/OHBgv38FIJl99dVX7rlly+QLGpx44slWsmTJ1HVE+qpWrZqQY3eJEhSTgIB/QxKoWLGif5V9ixcvsOOPP96ngJzRb2nZskU+lX3ly5f3rxAUK1bM9u7NeZek/fvp+pHbqlevbuvXr/Op7OPCEygYPvroI/e8bNkS95xMSpQomXLc328TJ070OUhPkyZNUq6L5/tU9mzfvs2dAwAcwpVMEjj33LNTTlTjfSp79u/fm6Dm5IAuTkrkuFnelCkfWYcO7X0KkY4++mhbty77g+N9//0qq1evnk8hN1WsWMGNQ5Fd8+fPsZNPPtmnACSzOnUOjWGycmXyjRH17beHxjKghVnmatasaRs25Gxw8I8/Hm+/+lUnnwJA0CAJdOrU0b76appPZd37779lnTt39ikgMS6++EIbO/YNn8q6L7741C688AKfQqRrrrnaRo4c4lNZN2rUsJRldPcp5Kbu3XXLxP/6VNaNGzfGevTguwIKgsqVK7vnZAwazJ9/6NbaBA3i06FDO/v00w99KusUpDn99NN8CgBBgyRx6aW/ttdee8mn4vfjj2ttyZKFdv75v/I5QGKce+459t13S+2HH773OfF7/fUhdsEFBLLSU6fO0SmPo+zLLz/zOfH7/PNPrFGj+larVi2fg9zUvHlz279/T+oFe1ZMmPCOtW59quuHDKDgWLFiqc2alTxjB+iuCf/73yuuFaDGWkHmrryyi82cOc11M8iqF1982gWMAfyCoEGS6NTpXKtYsay9++5on5O5jRvX29Chg+2BB+7zOUBi/f3vD6ZcqLxkP/0Uf7/u8ePHpFzYGEGDTPTp82ebPn2yffNN/CNhz5r1Zcpjut1yy80+B3nhvvvutQkT3rbly7/1OZn77LOPbdWqZbQyAAqg6tVr2F//2sc2b97kc/LXP//5QMrx5DurVKmSGxcH8bnnnr/aoEH/tp07d/iczL3xxjCrX78erQyAKAQNkkjv3jdb2bIl7OmnH3W3i8nIJ598YEOHPmcPPTTAypVjLAPkDtWQPvrowy5wMGnSOJ8b2969e+3ZZx9PebXfFYiRuUceedi++GKyu0jJzIgRr9jXX0+zhx/+u89BXvrXv/7puhqMHTvK56TvlVcG2fffL7f77+/vcwAUJFdffZ1t2LDerr++my1evNDn5r2dO3emHEf+X8px5027+OLLU87JpfwUxKN69Wr2t7/dY4MHP2HTpn3qc2PbunWL/ec/D9vRR9ey6677nc8FEBT7mZuQJp2lS5fZCy+8ZPv27bdTTjnN6tZtYKVLl3aDuixYMMdWr15p7dq1s9/+9kr/DiD3jR79ln366WQ76qi61rz5ySkn41opv9G9KYWj71IKs1+mXMwUTznR/sGOP/44/w7E69NPp9iYMWOsUqUqdtJJrezII+u4gSjXrv3B5sz5ynbs2GpdulyR8r8/078D+WX8+A9s3LjxKb//mnbiiadYrVpH2oEDB2zNmu9T/gfT3V0tune/ylq1aunfAaCgGDFihN1222329NMv2ebNG+3hh+91dyzo3ftOu/rqP/i58sbChfPs//2/W1OOLautc+dLUgq/f7crrjjPnWNHjco8eIm0hg17zb78cobVr9/ImjQ50apVq+4GuV25cpnNnv2VlStXxnr16plyzX1oMEwAaRE0SGL79u2z6dO/tBkzvrRvv11sF154YUqB4sSUA159PweQ91atWpVSkP0mpeA0zho2bGinn366nXZaaytTpoyfA9m1YcMGmzVrln300cdWvHhxO+ecs61ly5YpFzfV/BxIFmvXrk35rubYxIkfWtWqR9iZZ7azU09t5ZoPAyiYIoMGZ5xxpq1YscwV3JcvX2InntgipdDezX71qwtTCpjl/DsST0H4995728aMed2l//a3h+zSSw9VEl10UQeCBjm0bNkymzdvvr3zzjvu/Krjtq5j6PYBZIygQQGwZMkS++KLL6xHjx4+B8h/w4cPt1NOOcXdDxmJpXuFa8Crs846y+cgWb377rtWu3Zta926tc8BUFBFBw1EgxA+9FA/Gz/+XZcuXbqMdex4vl144aXWosWpVr58eZefEwsXzrdPP51o7703JnXw4WOOqW///Ocz1rjxL633CBokzosvvujuPFa3bl2fAyAjjGkAAAAAxFC2bFkbMOBfNmTIaNdFoWLFijZu3DvWp8+Nds45raxbt0vsvvv62ogRQ23WrBm2evUq/87DrV//k+t28OGH79u///2w3XRTD2vfvoX97ndd7IUXBrqAQYcO59o///m0jRo1Pk3AAADyEy0NCgBaGiAZ0dIg99DSoOCgpQFQeMRqaRDLZ599mvL4xObPn2vffrvQ9u7d46f8onLlKlarVm0rW7acrVu3Nt27EKlFQdOmze3UU8+w88670CpVquynHI6WBolDSwMgawgaFAAEDZCMCBrkHoIGBQdBA6DwiDdoEG3JkkW2YME818pg+/Zt7hZ/u3bttB07driBUtWFoXz5Cv5R3g2k2qRJMzvhhOYuL14EDRKHoAGQNQQNCgCCBkhGBA1yD0GDgoOgAVB4ZDdokFcIGiQOQQMgaxjTAAAAAAAAxETQAAAAAAAAxET3hDy0f/9+Gz9+vE/FT/cDX7x4sXXo0MHnxK9KlSrWvn17nwIO9/nnn9vGjRt9Kn5Tp061hg0b2tFHH+1z4tepUyc3InVhp/tBL1iwwKfiN3fuXCtevLg1a9bM58TvxBNPtPr16/sU4vXNN9/YypUrfSp+X331lR1xxBHWuHFjnxO/M844w2rUqOFTAPIb3RMKng8//ND27Dl8IMrMTJw40Vq2bGnVq1f3OfG7+OKL/Sug6CBokIcUNJg1a5ZPxe/777+3efPmub5X2UFfW2RkxowZ/lXW6ER9/PHHW7169XxO/FSwLSpBg+wEZGbOnOmCBrqgyaqaNWsSNMgGBQ2yc+H52WefWbVq1axp06Y+J34NGvz/9u4sRsoq7QP4ARVXUFldEAQREHFBRcEdXHBBEHQSdWIkmcRkJpm7ufhuTOa7+uLczI2JJpMYNS4xUVFZFCUKiigogoiIiAoKtCwKIqCAMh/P6bedFl+c7qaqurR/v6RT3U+VTXyr69Rb//ec55wqNIA6IjT47WnrOcy0adNycNu7d++i0nLOq+mIhAa/ARohUo80QqwejRB/OzRChN8PoUHHoREitI6eBgAAAEApoQEAAABQSmgAAAAAlBIaAAAAAKWEBgAAAEApoQEAAABQSmgAAAAAlBIaAAAAAKWEBgAAAEApoQEAAABQSmgAAECHd9hhh+XbH37Yk2/rze7du1KXLl2KnwBqR2gAAECHN2TIkHy7atVH+baebNq0MW3bti0NHjy4qADUjtAAAIAOLz6Qd+7cOa1Y8UFRqR/Ll7+fb88666x8C1BLQgMAADq8WJ4Qsw3mzZubGhrWFdX68NhjD+bbM888M98C1JLQAAAA9rn77rvTrl3fp7///X+KSvubNu2ZtGTJojR69Oh0xhlnFFWA2hEaAADAPrfddlu68sor0+LFb6fnn3+6qLafLVu+Sv/85/+lY445Jt1///1FFaC2hAYAAFC47777Uo8ePdI//vG/6V//ui/t2dM+uyksWrQgTZnyh7R9+7fp3nvvTX369CnuAagtoQEAABQiMJg2bVpuOhihwR//ODEtWPBGcW/1bdz4Zbrnnr+lP//5rrRz5470wAMPpMmTJxf3AtSe0OA3YM2aNen99xu75kK9WLp0afrss8+Kn6ik5cuXpw8//LD4iXq2ZMmStHLlyuIn4PdiwIAB6fnnn9/34f2etH792vTXv/4pTZp0TQ4RGhrWF4+qnOijMGPGs+kvf5mSJkwYm2bNmp7Gjh2bXn/99TRx4sTiUVTKihUr0rp19dXsEupZp3/vU3xPHfryyy/TQw89lDv6jhgxIr+BQHubO3dueuedd/ad5OxKd911Vzr55JOLezhYEcbMmDEjxdA8YcKENHz48OIe6s3ChQvTnDlz0vfff5/uuOOONGjQoOIe4Pdkw4YN6eGHH06PPvpo2rRpU64NH35OOvfc89PQoWemYcPOSn379sv1ltqxY3tatmzpvg+vy/aN+4vT22+/tW8s+S7fF7MKpkyZkkaOHJl/prJefPHFHM6HOM7du3fP3wMHJjSoYzt27MiBwahRo/a9IQ3L319wwQXeRGhXixYtSm+99VZ+o/3444/zVZAIDrp161Y8grb69NNP0+OPP56P5969e/NrPo5z//79i0dQL2ImyPTp0/Pz8/XXX6dnn302f2/NMfy+xeyDBx98MC1YsKCoNOratVsaMmRY6t27z76vE1LPnr1Sr1590pFHHpk2bGhImzdvyssONm3amNau/SKtXv1J8V82OuGEE/IYEgFkr169iiqV9sYbb+RZBnGsI/hdtmxZ/j4uzgEHJjSoY4888kjq169f7uIbNm7cmJPum266KQ0dOjTXoJZiGvYzzzyT32DjBCdEaLBq1apc69SpU67RenH1Kl7fN954409basXJzEsvvZSPrSsh9eOLL77Iz1Wc3A8cODDXYuZNnIBG4HP00UfnGvD7tWXLlvTee+/lr5ghFl9r164t7v11Xbt2zf0Szj777J++YizxHlpd8Ry9+uqreZw+7rjjci3eYyP4jV0zgAMTGtSpqVOn5tRz/PjxRaVRXIl84okn8oDXt2/fogrV19DQkK9833rrren0008vqo1mzpyZdu7cme+j9WJ6exzb8847L1144YVFtdGbb77pSkgd2bp1aw4MxowZk0/0m4ulChEo3HnnnUUF6GhijNi+fXueLRq3P/74Yw4S4yu2TYzbmH1AbUUPpsceeyyfP59yyilFtVFcDOnSpcsvzrmB/xAa1KGXX345bd68Od1+++1F5eci1Y6T0/gQceyxxxZVqJ448YkPtRdffHH+YFvmySefzMn9uHHjigotFScyMXPjqquuKio/50pIfYiT/3gdxEyvSy65pKj+XHRc/+GHH9KkSZOKCgDtqWwm3/7i/lNPPTVdccUVRQVozu4JdSbWikcaessttxSVXzrnnHPS+eefn55++um87hmqLf7WYirlgQKDEH+zcZV1/vz5RYWWiPWxceXpQIFBuPbaa/NVkGiQSPuJ10E0/TxQYBBi+dh3332XZs+eXVQAaC8xky/G7ssvv/yAgUGIc5jYqezdd98tKkBzQoM68sEHH+QGLTFwxQeEX3PppZemE088MQ+EUE0xba9nz57/NX0/9NBD899uNIeyRWjLxNrKb775Jt18881F5cCim3bMQHrttdeKCrX0wgsv5PXG1113XVE5sHgdfPLJJ79olAZAbcV5ciyp3H/p3/5i6UiM3bNmzcpNnoGfExrUic8//zwPbDFg9ejRo6j+uuuvvz5vyxZbx0A1xFKZ3bt35yl9LXH88cfnvgbRST5mzHBg0TgvOjjHa76l4rHRyMmVkNqaN29e7unR0ufq8MMPz4+NJqFN23oBUFstmcnXXFyMi7E7zsdjy3PgP4QGdSA68MYAFWtgYz1Va8Tgtn79+jxDASopGvCtXr26xR+UmkSDoaY33bgyzi9FWPDKK6/k43TUUUcV1f/OlZDaix4yEdLEce/cueVvmTE7p+l1EMt2AKid1szka27w4MHpmmuuyWN39HMCGgkN2tmePXvywDRq1Ki8Zry1DjnkkHxiGlct4+QWKiG69UdoEH9bbenYP2zYsHTZZZflv+1du3YVVcK6devycYlj27t376Lacq6E1E4sMZg+fXo+3m1pOjtgwIB8whrPVYTDAFRfW2byNRd9w4YPH56XZwKNhAbtLE4m+/Xrl0aPHl1UWi9OZmNgjK7dsSUjHIw1a9b89KG2e/fuRbX1LrroonTaaafl30Wjbdu25eMRyz3i2LRV8yshsa0Xlbdx48afXgfR/LCtIgyOtbTxu2JXBQCqp60z+fYXfZziHEhwAI2EBu0oOqHHVdzojH6w+vbtmwfIODGNrWWgLWJbv6YPSv379y+qbXf11Vfn/agj0Oroov9IHNsRI0akc889t6i2XdOVkPidVFbsfhDHdcyYMXl7xYMVW5XGsh3PFUD1HOxMvv2NHz8+z5aM/k7Q0QkN2kl0QI8P9zGwVUpsJRPJaAyYscUMtEbTUpn4gBMfRislenXE1Ow5c+YUlY4pjm2fPn3yso1KaboSMnXq1KJCJcRzNWTIkDRy5MiicvDGjRuXl5PNnDmzqABQKZWaybe/OE+Pxs6xJTp0ZEKDdrB48eLcf6CSgUGTmAYbW8vEwAmt8dRTT+VGnNFfo9JiR4XoIr9o0aKi0rFE48K9e/emG264oahUTlwJiZDQlZDKeO6551LXrl3T2LFji0rlxJi/YcOGvKsCAJVR6Zl8zcUW6DF2R8Px2BodOiqhQY2tWrUqb5EYA1CcmFZDbC0TXdZjqxloiWj2FtvExTr5aoh1hfE3P3v27PTRRx8V1Y5h/vz5ae3atVUJCZvE73Yl5ODFOtjolj1x4sSiUlmdOnXKz9WSJUvyFwAHrxoz+ZqLrdBj7I5/J7ZIh45IaFBD0ek8BpwYeE466aSiWh1x0htTteIkGH7N3Llz01dffZUmT55cVKoj3tCb3nRjm9COYOnSpWnhwoX5/zumpleLKyEHL56nlStX5uNYTd26dcv/RixTiBAZgLar5ky+5mImZpwnxTlM9H+CjqbTv2NODzUT07OjgVktRDOvhoaGNHDgwKICvxS7JUSKHrNTaiGW58QUwo5g69at6dtvv81N8Gph9erVucdBfDCldWLZQOfOnVOvXr2KSnXFjJtoNnrEEUcUFQBaK8bSQYMGVTWYby62oz6YHc/gt0poAAAAAJSyPAEAAAAoJTQAAAAASgkNAAAAgFJCAwAAAKCU0AAAAAAoJTQAAAAASgkNAAAAgFJCAwAAAKCU0AAAAAAoJTQAAAAASgkNAAAAgFJCAwAAAKCU0AAAAAAoJTQAAAAASgkNAAAAgFJCAwAAAKCU0AAAAAAoJTQAAAAASgkNAAAAgFJCAwAAAKCU0AAAAAAoJTQAAAAASgkNAAAAgFJCAwAAAKCU0AAAAAAoJTQAAAAASgkNAAAAgFJCAwAAAKCU0AAAAAAoJTQAAAAASgkNAAAAgFJCAwAAAKCU0AAAAAAoJTQAAAAASgkNAAAAgFJCAwAAAKCU0AAAAAAoJTQAAAAASgkNAAAAgFJCAwAAAKCU0AAAAAAoJTQAAAAASgkNAAAAgFJCAwAAAKCU0AAAAAAoJTQAAAAASgkNAAAAgFJCAwAAAKCU0AAAAAAoJTQAAAAASgkNAAAAgFJCAwAAAKCU0AAAAAAoJTQAAAAASgkNAAAAgBIp/T/Ea6U7ieq68AAAAABJRU5ErkJggg==;" vertex="1" parent="1">
          <mxGeometry x="-80" y="1570" width="1037" height="623" as="geometry" />
        </mxCell>
      </root>
    </mxGraphModel>
  </diagram>
</mxfile>
